<svg width="113" height="94" viewBox="0 0 113 94" fill="none" xmlns="http://www.w3.org/2000/svg">
<rect x="26.5" width="60" height="60" rx="30" fill="#121212"/>
<rect x="27" y="0.5" width="59" height="59" rx="29.5" stroke="#888888" stroke-opacity="0.25"/>
<path d="M41.842 24.848C45.074 24.848 45.938 27.728 45.938 30.208C45.938 33.744 44.818 36.192 41.682 36.192C39.538 36.192 38.322 35.056 38.098 33.248L40.306 32.848C40.418 33.664 40.786 34.352 41.778 34.352C43.154 34.352 43.698 33.072 43.746 30.832C43.266 31.68 42.498 32.256 41.33 32.256C39.298 32.256 37.842 30.752 37.842 28.608C37.842 26.864 38.914 24.848 41.842 24.848ZM41.778 30.384C42.898 30.384 43.458 29.568 43.458 28.528C43.458 27.648 43.09 26.72 41.858 26.72C40.61 26.72 40.162 27.36 40.162 28.64C40.162 29.728 40.594 30.384 41.778 30.384ZM53.8105 32.08H55.2185V33.92H53.8105V36H51.6985V33.92H46.8665V31.84L51.4265 25.04H53.8105V32.08ZM50.1465 32.08H51.6985V29.664C51.6985 29.264 51.7145 28.512 51.7305 27.792C51.3625 28.432 50.9305 29.104 50.7225 29.408L49.7945 30.8C49.5705 31.136 49.2345 31.616 48.8825 32.096C49.3945 32.096 49.9385 32.08 50.1465 32.08ZM58.9184 36H56.5024V33.472H58.9184V36ZM59.4286 26.944V25.04H66.9326V26.912C64.5646 29.104 63.3486 32.4 63.1726 36H60.7886C60.9966 32.688 62.1646 29.376 64.5486 26.944H59.4286ZM75.7464 36H73.1864L71.0584 32.432L70.3704 33.104V36H68.1304V24.8H70.3704V30.608L72.8504 28H75.6824L72.5624 31.008L75.7464 36Z" fill="white"/>
<rect y="66" width="113" height="28" rx="14" fill="#121212"/>
<rect x="0.5" y="66.5" width="112" height="27" rx="13.5" stroke="#888888" stroke-opacity="0.25"/>
<path d="M16.3311 84.144C14.4831 84.144 12.8631 83.22 12.8631 81.264L14.0151 81.144C14.0151 82.488 14.9991 83.232 16.2951 83.232C17.5311 83.232 18.5871 82.86 18.5871 81.636C18.5871 80.472 17.0991 80.496 15.8391 80.196C14.5311 79.884 13.0911 79.428 13.0911 77.82C13.0911 76.104 14.6991 75.456 16.0671 75.456C17.8071 75.456 19.2351 76.14 19.4151 78.132L18.2871 78.336C18.2631 77.076 17.4231 76.356 16.0431 76.356C15.2271 76.356 14.2071 76.788 14.2071 77.772C14.2071 78.72 15.4791 79.02 16.6191 79.2C18.2871 79.464 19.7151 79.764 19.7151 81.552C19.7151 83.592 17.9511 84.144 16.3311 84.144ZM23.8871 77.856C25.4831 77.856 26.6471 79.044 26.6471 81C26.6471 82.896 25.5431 84.144 23.9231 84.144C23.0831 84.144 22.4471 83.856 21.9911 83.22V86.4H20.9111V78H21.9911V78.876C22.4351 78.192 23.0831 77.856 23.8871 77.856ZM24.9071 82.872C25.3031 82.488 25.4591 81.852 25.4591 81C25.4591 79.596 25.0991 78.708 23.6951 78.708C23.1311 78.708 22.6991 78.888 22.4111 79.26C22.1111 79.644 21.9551 80.22 21.9551 80.988C21.9551 82.104 22.2071 83.28 23.6711 83.28C24.2231 83.28 24.6311 83.136 24.9071 82.872ZM30.5238 84.144C28.6518 84.144 27.5238 82.956 27.5238 81C27.5238 79.176 28.6638 77.856 30.5238 77.856C32.3598 77.856 33.5118 79.188 33.5118 81C33.5118 82.884 32.3238 84.144 30.5238 84.144ZM30.5238 83.292C31.1358 83.292 31.5678 83.112 31.8558 82.788C32.2038 82.392 32.3478 81.78 32.3478 81C32.3478 80.22 32.2038 79.596 31.8438 79.2C31.5558 78.888 31.1358 78.708 30.5238 78.708C29.9358 78.708 29.5038 78.864 29.2158 79.164C28.8318 79.56 28.6878 80.196 28.6878 81C28.6878 81.804 28.8318 82.44 29.2158 82.836C29.5038 83.136 29.9238 83.292 30.5238 83.292ZM36.5778 84.06C35.4618 84.06 34.9698 83.628 34.9698 82.656V78.9H34.1058V78H34.9698V76.332H36.0378V78H37.2618V78.9H36.0378V82.62C36.0378 83.016 36.2178 83.088 36.6618 83.088C36.7938 83.088 37.0098 83.064 37.2138 83.028L37.2378 84C37.0458 84.036 36.7938 84.06 36.5778 84.06ZM39.3935 76.872H38.3135V75.6H39.3935V76.872ZM39.3935 84H38.3135V78H39.3935V84ZM42.4256 84H41.3576V78.9H40.4936V78H41.3576V76.944C41.3576 75.972 41.8496 75.54 42.9656 75.54C43.2176 75.54 43.4936 75.576 43.6256 75.6L43.6016 76.56C43.4096 76.524 43.1576 76.5 43.0256 76.5C42.6176 76.5 42.4256 76.572 42.4256 76.968V78H43.6496V78.9H42.4256V84ZM47.2233 81.24L48.3753 78H49.5033L47.0553 84.552C46.5633 85.872 46.1313 86.46 45.3033 86.46C45.0153 86.46 44.6913 86.424 44.3913 86.34L44.4153 85.332C44.6313 85.404 44.8833 85.464 45.1593 85.464C45.6033 85.464 45.8073 84.972 46.2033 83.952L43.8633 78H45.0153L46.1553 81.24C46.2993 81.648 46.4913 82.236 46.6833 82.836C46.9233 82.104 47.0553 81.72 47.2233 81.24ZM58.4962 84H53.0722V75.6H54.1522V83.052H58.4962V84ZM60.4872 76.872H59.4072V75.6H60.4872V76.872ZM60.4872 84H59.4072V78H60.4872V84ZM64.2274 84.144C62.8834 84.144 61.6714 83.52 61.6834 82.032L62.6674 81.936C62.6554 82.776 63.2674 83.292 64.2034 83.292C65.1874 83.292 65.6794 82.956 65.6794 82.32C65.6794 81.636 64.5754 81.552 63.7474 81.336C62.7754 81.084 61.8154 80.796 61.8154 79.608C61.8154 78.36 62.9674 77.856 64.0354 77.856C65.3074 77.856 66.4114 78.36 66.5434 79.824L65.5354 79.98C65.5114 79.152 64.9714 78.708 64.0234 78.708C63.4354 78.708 62.8234 78.984 62.8234 79.536C62.8234 80.088 63.5434 80.244 64.2634 80.4C65.4634 80.652 66.6994 80.856 66.6994 82.26C66.6994 83.724 65.4394 84.144 64.2274 84.144ZM69.8005 84.06C68.6845 84.06 68.1925 83.628 68.1925 82.656V78.9H67.3285V78H68.1925V76.332H69.2605V78H70.4845V78.9H69.2605V82.62C69.2605 83.016 69.4405 83.088 69.8845 83.088C70.0165 83.088 70.2325 83.064 70.4365 83.028L70.4605 84C70.2685 84.036 70.0165 84.06 69.8005 84.06ZM76.3261 79.044C76.6861 79.62 76.8781 80.472 76.8301 81.324H72.2821C72.3061 82.644 72.8581 83.28 73.9861 83.28C75.0061 83.28 75.5581 82.848 75.7021 81.936L76.7461 82.02C76.4821 83.424 75.5221 84.144 73.9981 84.144C73.0741 84.144 72.3541 83.868 71.8381 83.268C71.3341 82.704 71.1061 81.924 71.1061 80.988C71.1061 80.1 71.3581 79.32 71.8621 78.756C72.3901 78.156 73.1221 77.856 73.9861 77.856C74.9341 77.856 75.8341 78.264 76.3261 79.044ZM73.9981 78.732C73.3261 78.732 72.8221 78.984 72.5821 79.38C72.3661 79.74 72.2941 80.148 72.2941 80.448H75.7261C75.7141 80.124 75.5941 79.668 75.4021 79.38C75.0901 78.924 74.6461 78.732 73.9981 78.732ZM82.7678 78.528C83.2238 79.02 83.2358 79.8 83.2358 80.436V84H82.1198V80.496C82.1198 79.944 82.1318 79.452 81.7598 79.104C81.4238 78.768 81.0278 78.756 80.6918 78.756C80.1638 78.756 79.1318 78.972 79.1318 80.688V84H78.0518V78H79.1318V78.912C79.4318 78.24 80.0198 77.856 80.9798 77.856C81.7718 77.856 82.3358 78.072 82.7678 78.528ZM89.6269 79.044C89.9869 79.62 90.1789 80.472 90.1309 81.324H85.5829C85.6069 82.644 86.1589 83.28 87.2869 83.28C88.3069 83.28 88.8589 82.848 89.0029 81.936L90.0469 82.02C89.7829 83.424 88.8229 84.144 87.2989 84.144C86.3749 84.144 85.6549 83.868 85.1389 83.268C84.6349 82.704 84.4069 81.924 84.4069 80.988C84.4069 80.1 84.6589 79.32 85.1629 78.756C85.6909 78.156 86.4229 77.856 87.2869 77.856C88.2349 77.856 89.1349 78.264 89.6269 79.044ZM87.2989 78.732C86.6269 78.732 86.1229 78.984 85.8829 79.38C85.6669 79.74 85.5949 80.148 85.5949 80.448H89.0269C89.0149 80.124 88.8949 79.668 88.7029 79.38C88.3909 78.924 87.9469 78.732 87.2989 78.732ZM94.2925 77.868C94.3885 77.856 94.6165 77.856 94.7005 77.856L94.6765 78.876C94.6045 78.864 94.5085 78.864 94.4005 78.864C93.2605 78.864 92.4325 79.224 92.4325 81.156V84H91.3525V78H92.4325V79.056C92.6005 78.48 93.3085 77.94 94.2925 77.868ZM97.6493 84.144C96.3053 84.144 95.0933 83.52 95.1053 82.032L96.0893 81.936C96.0773 82.776 96.6893 83.292 97.6253 83.292C98.6093 83.292 99.1013 82.956 99.1013 82.32C99.1013 81.636 97.9973 81.552 97.1693 81.336C96.1973 81.084 95.2373 80.796 95.2373 79.608C95.2373 78.36 96.3893 77.856 97.4573 77.856C98.7293 77.856 99.8333 78.36 99.9653 79.824L98.9573 79.98C98.9333 79.152 98.3933 78.708 97.4453 78.708C96.8573 78.708 96.2453 78.984 96.2453 79.536C96.2453 80.088 96.9653 80.244 97.6853 80.4C98.8853 80.652 100.121 80.856 100.121 82.26C100.121 83.724 98.8613 84.144 97.6493 84.144Z" fill="#888888"/>
</svg>
