<svg width="101" height="94" viewBox="0 0 101 94" fill="none" xmlns="http://www.w3.org/2000/svg">
<rect x="20.5" width="60" height="60" rx="30" fill="#121212"/>
<rect x="21" y="0.5" width="59" height="59" rx="29.5" stroke="#888888" stroke-opacity="0.25"/>
<path d="M38.8748 30.128C40.0268 30.56 40.6828 31.568 40.6828 32.784C40.6828 35.008 39.0828 36.192 36.6828 36.192C34.1068 36.192 32.7628 34.688 32.6988 32.576L35.0188 32.224C35.0028 33.664 35.6588 34.336 36.6828 34.336C37.6748 34.336 38.3148 33.824 38.3148 32.784C38.3148 31.584 37.4188 31.248 36.7468 31.248H35.6428V29.296H36.5548C37.1148 29.296 37.9308 29.088 37.9308 27.968C37.9308 27.2 37.5308 26.672 36.6828 26.672C35.5308 26.672 35.1788 27.44 35.2108 28.496L32.8428 28.16C32.9868 26.048 34.4908 24.848 36.6828 24.848C38.7468 24.848 40.2828 25.968 40.2828 27.904C40.2828 28.912 39.7548 29.696 38.8748 30.128ZM44.4496 36H42.0336V33.472H44.4496V36ZM50.4348 28.624C52.0668 28.624 53.8748 29.76 53.8748 32.384C53.8748 34.528 52.5148 36.192 49.7468 36.192C47.4588 36.192 45.7788 34.992 45.7148 32.656L48.0508 32.272C48.0508 33.536 48.6748 34.32 49.7468 34.32C50.9468 34.32 51.5068 33.552 51.5068 32.368C51.5068 31.104 50.7228 30.576 49.7628 30.576C49.0908 30.576 48.4828 30.832 48.1468 31.264L46.0028 30.832L46.8668 24.8H53.3148V26.768H48.8188L48.4508 29.328C48.9148 28.88 49.5548 28.624 50.4348 28.624ZM57.7034 36H55.4634V24.8H59.3354L60.7434 30.112C61.1114 31.488 61.3994 32.704 61.5754 33.664H61.6074C61.7994 32.704 62.1514 31.216 62.4394 30.144L63.8474 24.8H67.6714V36H65.4314V29.568C65.4314 29.136 65.4634 27.52 65.4954 26.512H65.4474C65.1114 27.84 64.7114 29.328 64.5514 29.888L62.8874 36H60.2314L58.5674 29.824C58.4234 29.28 57.9914 27.632 57.6874 26.512H57.6394C57.6554 27.52 57.7034 29.2 57.7034 29.632V36Z" fill="white"/>
<rect y="66" width="101" height="28" rx="14" fill="#121212"/>
<rect x="0.5" y="66.5" width="100" height="27" rx="13.5" stroke="#888888" stroke-opacity="0.25"/>
<path d="M16.316 84H15.224V76.548H12.428V75.6H19.112V76.548H16.316V84ZM21.3773 84.144C19.5053 84.144 18.3773 82.956 18.3773 81C18.3773 79.176 19.5173 77.856 21.3773 77.856C23.2133 77.856 24.3653 79.188 24.3653 81C24.3653 82.884 23.1773 84.144 21.3773 84.144ZM21.3773 83.292C21.9893 83.292 22.4213 83.112 22.7093 82.788C23.0573 82.392 23.2013 81.78 23.2013 81C23.2013 80.22 23.0573 79.596 22.6973 79.2C22.4093 78.888 21.9893 78.708 21.3773 78.708C20.7893 78.708 20.3573 78.864 20.0693 79.164C19.6853 79.56 19.5413 80.196 19.5413 81C19.5413 81.804 19.6853 82.44 20.0693 82.836C20.3573 83.136 20.7773 83.292 21.3773 83.292ZM27.4313 84.06C26.3153 84.06 25.8233 83.628 25.8233 82.656V78.9H24.9593V78H25.8233V76.332H26.8913V78H28.1153V78.9H26.8913V82.62C26.8913 83.016 27.0713 83.088 27.5153 83.088C27.6473 83.088 27.8633 83.064 28.0673 83.028L28.0913 84C27.8993 84.036 27.6473 84.06 27.4313 84.06ZM34.615 83.112L34.639 84C34.411 84.036 34.207 84.048 33.967 84.048C33.307 84.048 32.947 83.736 32.887 83.112C32.551 83.796 31.891 84.144 30.871 84.144C29.863 84.144 28.855 83.592 28.855 82.416C28.855 81.12 29.947 80.76 30.895 80.58L32.875 80.196C32.875 79.656 32.851 79.356 32.671 79.104C32.503 78.864 32.107 78.708 31.579 78.708C30.535 78.708 30.115 79.092 30.115 80.004L29.059 79.86C29.083 79.14 29.335 78.612 29.803 78.3C30.235 78.012 30.871 77.856 31.639 77.856C33.151 77.856 33.919 78.528 33.919 79.836V82.704C33.919 83.016 33.919 83.16 34.267 83.16C34.363 83.16 34.459 83.148 34.615 83.112ZM32.875 81.732V81L31.063 81.396C30.427 81.54 29.959 81.72 29.959 82.404C29.959 82.968 30.451 83.28 31.039 83.28C32.347 83.28 32.875 82.596 32.875 81.732ZM36.7275 84H35.6475V75.6H36.7275V84ZM46.6192 84H41.1952V75.6H42.2752V83.052H46.6192V84ZM48.6103 76.872H47.5303V75.6H48.6103V76.872ZM48.6103 84H47.5303V78H48.6103V84ZM52.3504 84.144C51.0064 84.144 49.7944 83.52 49.8064 82.032L50.7904 81.936C50.7784 82.776 51.3904 83.292 52.3264 83.292C53.3104 83.292 53.8024 82.956 53.8024 82.32C53.8024 81.636 52.6984 81.552 51.8704 81.336C50.8984 81.084 49.9384 80.796 49.9384 79.608C49.9384 78.36 51.0904 77.856 52.1584 77.856C53.4304 77.856 54.5344 78.36 54.6664 79.824L53.6584 79.98C53.6344 79.152 53.0944 78.708 52.1464 78.708C51.5584 78.708 50.9464 78.984 50.9464 79.536C50.9464 80.088 51.6664 80.244 52.3864 80.4C53.5864 80.652 54.8224 80.856 54.8224 82.26C54.8224 83.724 53.5624 84.144 52.3504 84.144ZM57.9235 84.06C56.8075 84.06 56.3155 83.628 56.3155 82.656V78.9H55.4515V78H56.3155V76.332H57.3835V78H58.6075V78.9H57.3835V82.62C57.3835 83.016 57.5635 83.088 58.0075 83.088C58.1395 83.088 58.3555 83.064 58.5595 83.028L58.5835 84C58.3915 84.036 58.1395 84.06 57.9235 84.06ZM64.4492 79.044C64.8092 79.62 65.0012 80.472 64.9532 81.324H60.4052C60.4292 82.644 60.9812 83.28 62.1092 83.28C63.1292 83.28 63.6812 82.848 63.8252 81.936L64.8692 82.02C64.6052 83.424 63.6452 84.144 62.1212 84.144C61.1972 84.144 60.4772 83.868 59.9612 83.268C59.4572 82.704 59.2292 81.924 59.2292 80.988C59.2292 80.1 59.4812 79.32 59.9852 78.756C60.5132 78.156 61.2452 77.856 62.1092 77.856C63.0572 77.856 63.9572 78.264 64.4492 79.044ZM62.1212 78.732C61.4492 78.732 60.9452 78.984 60.7052 79.38C60.4892 79.74 60.4172 80.148 60.4172 80.448H63.8492C63.8372 80.124 63.7172 79.668 63.5252 79.38C63.2132 78.924 62.7692 78.732 62.1212 78.732ZM70.8908 78.528C71.3468 79.02 71.3588 79.8 71.3588 80.436V84H70.2428V80.496C70.2428 79.944 70.2548 79.452 69.8828 79.104C69.5468 78.768 69.1508 78.756 68.8148 78.756C68.2868 78.756 67.2548 78.972 67.2548 80.688V84H66.1748V78H67.2548V78.912C67.5548 78.24 68.1428 77.856 69.1028 77.856C69.8948 77.856 70.4588 78.072 70.8908 78.528ZM77.7499 79.044C78.1099 79.62 78.3019 80.472 78.2539 81.324H73.7059C73.7299 82.644 74.2819 83.28 75.4099 83.28C76.4299 83.28 76.9819 82.848 77.1259 81.936L78.1699 82.02C77.9059 83.424 76.9459 84.144 75.4219 84.144C74.4979 84.144 73.7779 83.868 73.2619 83.268C72.7579 82.704 72.5299 81.924 72.5299 80.988C72.5299 80.1 72.7819 79.32 73.2859 78.756C73.8139 78.156 74.5459 77.856 75.4099 77.856C76.3579 77.856 77.2579 78.264 77.7499 79.044ZM75.4219 78.732C74.7499 78.732 74.2459 78.984 74.0059 79.38C73.7899 79.74 73.7179 80.148 73.7179 80.448H77.1499C77.1379 80.124 77.0179 79.668 76.8259 79.38C76.5139 78.924 76.0699 78.732 75.4219 78.732ZM82.4156 77.868C82.5116 77.856 82.7396 77.856 82.8236 77.856L82.7996 78.876C82.7276 78.864 82.6316 78.864 82.5236 78.864C81.3836 78.864 80.5556 79.224 80.5556 81.156V84H79.4756V78H80.5556V79.056C80.7236 78.48 81.4316 77.94 82.4156 77.868ZM85.7723 84.144C84.4283 84.144 83.2163 83.52 83.2283 82.032L84.2123 81.936C84.2003 82.776 84.8123 83.292 85.7483 83.292C86.7323 83.292 87.2243 82.956 87.2243 82.32C87.2243 81.636 86.1203 81.552 85.2923 81.336C84.3203 81.084 83.3603 80.796 83.3603 79.608C83.3603 78.36 84.5123 77.856 85.5803 77.856C86.8523 77.856 87.9563 78.36 88.0883 79.824L87.0803 79.98C87.0563 79.152 86.5163 78.708 85.5683 78.708C84.9803 78.708 84.3683 78.984 84.3683 79.536C84.3683 80.088 85.0883 80.244 85.8083 80.4C87.0083 80.652 88.2443 80.856 88.2443 82.26C88.2443 83.724 86.9843 84.144 85.7723 84.144Z" fill="#888888"/>
</svg>
