<svg width="93" height="94" viewBox="0 0 93 94" fill="none" xmlns="http://www.w3.org/2000/svg">
<rect x="16.5" width="60" height="60" rx="30" fill="#121212"/>
<rect x="17" y="0.5" width="59" height="59" rx="29.5" stroke="#888888" stroke-opacity="0.25"/>
<path d="M34.0058 34.08H39.0298V36H31.1418C31.2378 33.296 32.4538 31.92 34.5018 30.64C35.8458 29.792 36.6298 29.312 36.6298 28.096C36.6298 27.328 36.2778 26.736 35.3658 26.736C34.1018 26.736 33.8938 27.76 33.9258 28.784L31.5098 28.432C31.4778 26.528 32.6138 24.848 35.4298 24.848C37.5898 24.848 39.0138 26.016 39.0138 28.144C39.0138 30.064 38.0218 30.96 36.1018 32.144C34.9658 32.848 34.2458 33.264 34.0058 34.08ZM46.3513 30.128C47.5033 30.56 48.1593 31.568 48.1593 32.784C48.1593 35.008 46.5593 36.192 44.1593 36.192C41.5833 36.192 40.2393 34.688 40.1753 32.576L42.4953 32.224C42.4793 33.664 43.1353 34.336 44.1593 34.336C45.1513 34.336 45.7913 33.824 45.7913 32.784C45.7913 31.584 44.8953 31.248 44.2233 31.248H43.1193V29.296H44.0313C44.5913 29.296 45.4073 29.088 45.4073 27.968C45.4073 27.2 45.0073 26.672 44.1593 26.672C43.0073 26.672 42.6553 27.44 42.6873 28.496L40.3193 28.16C40.4633 26.048 41.9673 24.848 44.1593 24.848C46.2233 24.848 47.7593 25.968 47.7593 27.904C47.7593 28.912 47.2313 29.696 46.3513 30.128ZM51.8142 31.136C50.1822 31.136 49.2382 29.952 49.2382 28C49.2382 26.096 50.2142 24.832 51.8142 24.832C53.3982 24.832 54.3902 26.112 54.3902 28C54.3902 29.856 53.4142 31.136 51.8142 31.136ZM53.3502 36H51.4622L57.6702 25.04H59.5582L53.3502 36ZM51.8142 29.776C52.1182 29.776 52.3262 29.648 52.4382 29.408C52.6142 29.104 52.6462 28.608 52.6462 28C52.6462 26.896 52.5502 26.208 51.8142 26.208C51.5262 26.208 51.3342 26.32 51.2062 26.544C51.0142 26.848 50.9662 27.344 50.9662 28C50.9662 29.072 51.1102 29.776 51.8142 29.776ZM59.1742 36.192C57.5422 36.192 56.5982 35.008 56.5982 33.056C56.5982 31.152 57.5742 29.888 59.1742 29.888C60.7582 29.888 61.7502 31.168 61.7502 33.056C61.7502 34.912 60.7742 36.192 59.1742 36.192ZM59.1742 34.832C59.4782 34.832 59.6862 34.704 59.7982 34.464C59.9742 34.16 60.0062 33.664 60.0062 33.056C60.0062 31.952 59.9102 31.264 59.1742 31.264C58.8862 31.264 58.6942 31.376 58.5662 31.6C58.3742 31.904 58.3262 32.4 58.3262 33.056C58.3262 34.128 58.4702 34.832 59.1742 34.832Z" fill="white"/>
<rect y="66" width="93" height="28" rx="14" fill="#121212"/>
<rect x="0.5" y="66.5" width="92" height="27" rx="13.5" stroke="#888888" stroke-opacity="0.25"/>
<path d="M18.3518 79.704C19.2998 80.052 19.7318 80.64 19.7318 81.684C19.7318 83.868 17.9318 84 16.3478 84H13.3358V75.6H16.2638C17.7158 75.6 19.4078 75.768 19.4078 77.904C19.4078 78.72 18.9878 79.356 18.3518 79.704ZM16.1798 76.536H14.4158V79.248H16.1678C17.1998 79.248 18.3518 79.236 18.3518 77.904C18.3518 76.548 17.1998 76.536 16.1798 76.536ZM14.4158 83.076H16.3478C17.5358 83.076 18.6758 83.076 18.6758 81.684C18.6758 80.184 17.3198 80.184 16.4078 80.184H14.4158V83.076ZM23.682 84.144C21.81 84.144 20.682 82.956 20.682 81C20.682 79.176 21.822 77.856 23.682 77.856C25.518 77.856 26.67 79.188 26.67 81C26.67 82.884 25.482 84.144 23.682 84.144ZM23.682 83.292C24.294 83.292 24.726 83.112 25.014 82.788C25.362 82.392 25.506 81.78 25.506 81C25.506 80.22 25.362 79.596 25.002 79.2C24.714 78.888 24.294 78.708 23.682 78.708C23.094 78.708 22.662 78.864 22.374 79.164C21.99 79.56 21.846 80.196 21.846 81C21.846 81.804 21.99 82.44 22.374 82.836C22.662 83.136 23.082 83.292 23.682 83.292ZM31.9415 81.372V78H33.0215V84H31.9415V83.1C31.6175 83.784 30.9455 84.144 30.0935 84.144C29.3135 84.144 28.7495 83.928 28.3175 83.472C27.8495 82.98 27.8375 82.224 27.8375 81.588V78H28.9535V81.528C28.9535 82.08 28.9415 82.548 29.3015 82.896C29.6495 83.232 30.0455 83.244 30.3935 83.244C30.9335 83.244 31.9415 83.112 31.9415 81.372ZM39.3166 78.528C39.7726 79.02 39.7846 79.8 39.7846 80.436V84H38.6686V80.496C38.6686 79.944 38.6806 79.452 38.3086 79.104C37.9726 78.768 37.5766 78.756 37.2406 78.756C36.7126 78.756 35.6806 78.972 35.6806 80.688V84H34.6006V78H35.6806V78.912C35.9806 78.24 36.5686 77.856 37.5286 77.856C38.3206 77.856 38.8846 78.072 39.3166 78.528ZM43.9197 84.144C42.0837 84.144 40.9437 82.968 40.9437 81C40.9437 79.152 42.0837 77.856 43.9197 77.856C45.4437 77.856 46.3077 78.768 46.5477 79.908L45.5397 80.1C45.3597 79.404 44.9997 78.72 43.9197 78.72C43.2357 78.72 42.8037 78.924 42.5277 79.284C42.2277 79.692 42.1317 80.292 42.1317 81C42.1317 82.356 42.4677 83.28 43.9197 83.28C44.8437 83.28 45.3237 82.92 45.5517 82.056L46.5717 82.164C46.3557 83.376 45.3117 84.144 43.9197 84.144ZM52.5507 79.044C52.9107 79.62 53.1027 80.472 53.0547 81.324H48.5067C48.5307 82.644 49.0827 83.28 50.2107 83.28C51.2307 83.28 51.7827 82.848 51.9267 81.936L52.9707 82.02C52.7067 83.424 51.7467 84.144 50.2227 84.144C49.2987 84.144 48.5787 83.868 48.0627 83.268C47.5587 82.704 47.3307 81.924 47.3307 80.988C47.3307 80.1 47.5827 79.32 48.0867 78.756C48.6147 78.156 49.3467 77.856 50.2107 77.856C51.1587 77.856 52.0587 78.264 52.5507 79.044ZM50.2227 78.732C49.5507 78.732 49.0467 78.984 48.8067 79.38C48.5907 79.74 48.5187 80.148 48.5187 80.448H51.9507C51.9387 80.124 51.8187 79.668 51.6267 79.38C51.3147 78.924 50.8707 78.732 50.2227 78.732ZM63.116 81.9C63.116 82.872 63.188 83.448 63.596 83.964L63.584 84H62.396C62.12 83.58 62.036 83.184 62.036 82.02C62.036 80.904 61.592 80.52 60.116 80.52H58.244V84H57.164V75.6H60.008C61.496 75.6 63.32 75.792 63.32 78.072C63.32 79.104 62.756 79.872 62.024 80.124C62.816 80.424 63.116 81.036 63.116 81.9ZM58.244 79.596H59.996C61.028 79.596 62.252 79.512 62.252 78.12C62.252 76.536 61.028 76.536 60.008 76.536H58.244V79.596ZM70.2947 83.112L70.3187 84C70.0907 84.036 69.8867 84.048 69.6467 84.048C68.9867 84.048 68.6267 83.736 68.5667 83.112C68.2307 83.796 67.5707 84.144 66.5507 84.144C65.5427 84.144 64.5347 83.592 64.5347 82.416C64.5347 81.12 65.6267 80.76 66.5747 80.58L68.5547 80.196C68.5547 79.656 68.5307 79.356 68.3507 79.104C68.1827 78.864 67.7867 78.708 67.2587 78.708C66.2147 78.708 65.7947 79.092 65.7947 80.004L64.7387 79.86C64.7627 79.14 65.0147 78.612 65.4827 78.3C65.9147 78.012 66.5507 77.856 67.3187 77.856C68.8307 77.856 69.5987 78.528 69.5987 79.836V82.704C69.5987 83.016 69.5987 83.16 69.9467 83.16C70.0427 83.16 70.1387 83.148 70.2947 83.112ZM68.5547 81.732V81L66.7427 81.396C66.1067 81.54 65.6387 81.72 65.6387 82.404C65.6387 82.968 66.1307 83.28 66.7187 83.28C68.0267 83.28 68.5547 82.596 68.5547 81.732ZM73.2008 84.06C72.0848 84.06 71.5928 83.628 71.5928 82.656V78.9H70.7288V78H71.5928V76.332H72.6608V78H73.8848V78.9H72.6608V82.62C72.6608 83.016 72.8408 83.088 73.2848 83.088C73.4168 83.088 73.6328 83.064 73.8368 83.028L73.8608 84C73.6688 84.036 73.4168 84.06 73.2008 84.06ZM79.7265 79.044C80.0865 79.62 80.2785 80.472 80.2305 81.324H75.6825C75.7065 82.644 76.2585 83.28 77.3865 83.28C78.4065 83.28 78.9585 82.848 79.1025 81.936L80.1465 82.02C79.8825 83.424 78.9225 84.144 77.3985 84.144C76.4745 84.144 75.7545 83.868 75.2385 83.268C74.7345 82.704 74.5065 81.924 74.5065 80.988C74.5065 80.1 74.7585 79.32 75.2625 78.756C75.7905 78.156 76.5225 77.856 77.3865 77.856C78.3345 77.856 79.2345 78.264 79.7265 79.044ZM77.3985 78.732C76.7265 78.732 76.2225 78.984 75.9825 79.38C75.7665 79.74 75.6945 80.148 75.6945 80.448H79.1265C79.1145 80.124 78.9945 79.668 78.8025 79.38C78.4905 78.924 78.0465 78.732 77.3985 78.732Z" fill="#888888"/>
</svg>
