<svg width="93" height="94" viewBox="0 0 93 94" fill="none" xmlns="http://www.w3.org/2000/svg">
<rect x="16.5" width="60" height="60" rx="30" fill="#121212"/>
<rect x="17" y="0.5" width="59" height="59" rx="29.5" stroke="#888888" stroke-opacity="0.25"/>
<path d="M31.5356 36H29.1196V24.8H33.2476C35.3596 24.8 37.9516 25.12 37.9516 28.336C37.9516 31.552 35.4076 31.92 33.2476 31.92H31.5356V36ZM31.5356 26.688V30.032H33.1836C34.4476 30.032 35.5196 29.952 35.5196 28.336C35.5196 26.72 34.4476 26.688 33.1996 26.688H31.5356ZM45.9981 30.448V34.56C45.9981 35.168 46.1421 35.6 46.3181 35.936V36H44.0941C44.0141 35.712 43.9661 35.312 43.9501 34.928C43.5661 35.616 42.7341 36.192 41.4541 36.192C39.8861 36.192 38.6221 35.376 38.6221 33.728C38.6221 32.016 40.0461 31.52 41.6461 31.232L43.8221 30.832C43.8221 30.464 43.8381 30.08 43.6301 29.792C43.4221 29.504 43.1181 29.392 42.4781 29.392C41.5981 29.392 41.1021 29.712 41.1021 30.832L38.9101 30.672C38.9101 29.632 39.2621 28.896 39.9181 28.448C40.5421 28.016 41.4381 27.808 42.6381 27.808C44.7181 27.808 45.9981 28.704 45.9981 30.448ZM43.8221 32.896V32.304L42.0141 32.704C41.3421 32.848 40.9261 33.104 40.9261 33.712C40.9261 34.336 41.3901 34.608 41.9981 34.608C43.0541 34.608 43.8221 34.112 43.8221 32.896ZM52.2194 27.824C52.3474 27.808 52.6514 27.808 52.7954 27.808L52.7474 29.824C52.6194 29.808 52.4754 29.792 52.3314 29.792C50.8274 29.792 49.9954 30.496 49.9954 32.432V36H47.7554V28H49.9634V29.488C50.2354 28.592 50.9234 27.92 52.2194 27.824ZM56.0579 26.944H53.8179V24.64H56.0579V26.944ZM56.0579 36H53.8179V28H56.0579V36ZM60.9691 36.192C59.0651 36.192 57.4811 35.424 57.3211 33.584L59.4491 33.312C59.4811 34.272 60.1211 34.704 61.0171 34.704C61.9291 34.704 62.3931 34.368 62.3931 33.776C62.3931 33.248 61.7851 33.056 60.5211 32.752C58.9851 32.384 57.5771 31.904 57.5771 30.256C57.5771 28.496 59.1291 27.808 60.8571 27.808C62.6171 27.808 64.1211 28.4 64.3291 30.224L62.2651 30.576C62.2171 29.68 61.6891 29.28 60.8891 29.28C60.2331 29.28 59.6891 29.52 59.6891 30.08C59.6891 30.624 60.2651 30.816 61.3371 31.056C62.7611 31.376 64.5371 31.76 64.5371 33.664C64.5371 35.584 62.8411 36.192 60.9691 36.192Z" fill="white"/>
<rect y="66" width="93" height="28" rx="14" fill="#121212"/>
<rect x="0.5" y="66.5" width="92" height="27" rx="13.5" stroke="#888888" stroke-opacity="0.25"/>
<path d="M16.441 84H15.349V76.548H12.553V75.6H19.237V76.548H16.441V84ZM21.5023 84.144C19.6303 84.144 18.5023 82.956 18.5023 81C18.5023 79.176 19.6423 77.856 21.5023 77.856C23.3383 77.856 24.4903 79.188 24.4903 81C24.4903 82.884 23.3023 84.144 21.5023 84.144ZM21.5023 83.292C22.1143 83.292 22.5463 83.112 22.8343 82.788C23.1823 82.392 23.3263 81.78 23.3263 81C23.3263 80.22 23.1823 79.596 22.8223 79.2C22.5343 78.888 22.1143 78.708 21.5023 78.708C20.9143 78.708 20.4823 78.864 20.1943 79.164C19.8103 79.56 19.6663 80.196 19.6663 81C19.6663 81.804 19.8103 82.44 20.1943 82.836C20.4823 83.136 20.9023 83.292 21.5023 83.292ZM28.6938 77.856C30.2898 77.856 31.4538 79.044 31.4538 81C31.4538 82.896 30.3498 84.144 28.7298 84.144C27.8898 84.144 27.2538 83.856 26.7978 83.22V86.4H25.7178V78H26.7978V78.876C27.2418 78.192 27.8898 77.856 28.6938 77.856ZM29.7138 82.872C30.1098 82.488 30.2658 81.852 30.2658 81C30.2658 79.596 29.9058 78.708 28.5018 78.708C27.9378 78.708 27.5058 78.888 27.2178 79.26C26.9178 79.644 26.7618 80.22 26.7618 80.988C26.7618 82.104 27.0138 83.28 28.4778 83.28C29.0298 83.28 29.4378 83.136 29.7138 82.872ZM41.002 84H35.578V75.6H36.658V83.052H41.002V84ZM44.4359 84.144C42.5639 84.144 41.4359 82.956 41.4359 81C41.4359 79.176 42.5759 77.856 44.4359 77.856C46.2719 77.856 47.4239 79.188 47.4239 81C47.4239 82.884 46.2359 84.144 44.4359 84.144ZM44.4359 83.292C45.0479 83.292 45.4799 83.112 45.7679 82.788C46.1159 82.392 46.2599 81.78 46.2599 81C46.2599 80.22 46.1159 79.596 45.7559 79.2C45.4679 78.888 45.0479 78.708 44.4359 78.708C43.8479 78.708 43.4159 78.864 43.1279 79.164C42.7439 79.56 42.5999 80.196 42.5999 81C42.5999 81.804 42.7439 82.44 43.1279 82.836C43.4159 83.136 43.8359 83.292 44.4359 83.292ZM51.2674 84.144C49.4314 84.144 48.2914 82.968 48.2914 81C48.2914 79.152 49.4314 77.856 51.2674 77.856C52.7914 77.856 53.6554 78.768 53.8954 79.908L52.8874 80.1C52.7074 79.404 52.3474 78.72 51.2674 78.72C50.5834 78.72 50.1514 78.924 49.8754 79.284C49.5754 79.692 49.4794 80.292 49.4794 81C49.4794 82.356 49.8154 83.28 51.2674 83.28C52.1914 83.28 52.6714 82.92 52.8994 82.056L53.9194 82.164C53.7034 83.376 52.6594 84.144 51.2674 84.144ZM60.4744 83.112L60.4984 84C60.2704 84.036 60.0664 84.048 59.8264 84.048C59.1664 84.048 58.8064 83.736 58.7464 83.112C58.4104 83.796 57.7504 84.144 56.7304 84.144C55.7224 84.144 54.7144 83.592 54.7144 82.416C54.7144 81.12 55.8064 80.76 56.7544 80.58L58.7344 80.196C58.7344 79.656 58.7104 79.356 58.5304 79.104C58.3624 78.864 57.9664 78.708 57.4384 78.708C56.3944 78.708 55.9744 79.092 55.9744 80.004L54.9184 79.86C54.9424 79.14 55.1944 78.612 55.6624 78.3C56.0944 78.012 56.7304 77.856 57.4984 77.856C59.0104 77.856 59.7784 78.528 59.7784 79.836V82.704C59.7784 83.016 59.7784 83.16 60.1264 83.16C60.2224 83.16 60.3184 83.148 60.4744 83.112ZM58.7344 81.732V81L56.9224 81.396C56.2864 81.54 55.8184 81.72 55.8184 82.404C55.8184 82.968 56.3104 83.28 56.8984 83.28C58.2064 83.28 58.7344 82.596 58.7344 81.732ZM63.3805 84.06C62.2645 84.06 61.7725 83.628 61.7725 82.656V78.9H60.9085V78H61.7725V76.332H62.8405V78H64.0645V78.9H62.8405V82.62C62.8405 83.016 63.0205 83.088 63.4645 83.088C63.5965 83.088 63.8125 83.064 64.0165 83.028L64.0405 84C63.8485 84.036 63.5965 84.06 63.3805 84.06ZM66.1962 76.872H65.1162V75.6H66.1962V76.872ZM66.1962 84H65.1162V78H66.1962V84ZM70.4164 84.144C68.5444 84.144 67.4164 82.956 67.4164 81C67.4164 79.176 68.5564 77.856 70.4164 77.856C72.2524 77.856 73.4044 79.188 73.4044 81C73.4044 82.884 72.2164 84.144 70.4164 84.144ZM70.4164 83.292C71.0284 83.292 71.4604 83.112 71.7484 82.788C72.0964 82.392 72.2404 81.78 72.2404 81C72.2404 80.22 72.0964 79.596 71.7364 79.2C71.4484 78.888 71.0284 78.708 70.4164 78.708C69.8284 78.708 69.3964 78.864 69.1084 79.164C68.7244 79.56 68.5804 80.196 68.5804 81C68.5804 81.804 68.7244 82.44 69.1084 82.836C69.3964 83.136 69.8164 83.292 70.4164 83.292ZM79.3478 78.528C79.8038 79.02 79.8158 79.8 79.8158 80.436V84H78.6998V80.496C78.6998 79.944 78.7118 79.452 78.3398 79.104C78.0038 78.768 77.6078 78.756 77.2718 78.756C76.7438 78.756 75.7118 78.972 75.7118 80.688V84H74.6318V78H75.7118V78.912C76.0118 78.24 76.5998 77.856 77.5598 77.856C78.3518 77.856 78.9158 78.072 79.3478 78.528Z" fill="#888888"/>
</svg>
