<svg width="89" height="94" viewBox="0 0 89 94" fill="none" xmlns="http://www.w3.org/2000/svg">
<rect x="14.5" width="60" height="60" rx="30" fill="#121212"/>
<rect x="15" y="0.5" width="59" height="59" rx="29.5" stroke="#888888" stroke-opacity="0.25"/>
<path d="M31.3432 36H23.4712V24.8H31.3432V26.736H25.8872V29.376H30.7512V31.312H25.8872V34.064H31.3432V36ZM37.4021 27.808C39.4021 27.808 40.8901 29.392 40.8901 32C40.8901 34.528 39.4501 36.192 37.4501 36.192C36.5221 36.192 35.6421 35.808 35.0501 35.056V39.2H32.8101V28H35.0501V29.04C35.5781 28.224 36.4741 27.808 37.4021 27.808ZM37.8821 34.192C38.2981 33.776 38.4581 33.04 38.4581 31.968C38.4581 30.144 37.9941 29.408 36.7461 29.408C36.1701 29.408 35.7701 29.6 35.4821 29.968C35.1461 30.4 35.0021 31.088 35.0021 31.968C35.0021 33.664 35.4501 34.592 36.6981 34.592C37.2261 34.592 37.6101 34.464 37.8821 34.192ZM44.4429 25.04H46.3949V36H44.1549V28.384C43.6269 28.864 42.8269 29.056 42.0109 29.056C41.8509 29.056 41.6749 29.04 41.5149 29.024V27.04C43.2429 27.04 44.1709 26.448 44.4429 25.04ZM52.3882 36.192C49.5722 36.192 48.1162 34.256 48.1162 30.512C48.1162 27.184 49.4762 24.848 52.3882 24.848C55.3002 24.848 56.6762 27.2 56.6762 30.512C56.6762 33.872 55.3002 36.192 52.3882 36.192ZM52.3882 34.352C52.9802 34.352 53.3962 34.16 53.6842 33.76C54.1322 33.152 54.2602 32.064 54.2602 30.512C54.2602 27.968 53.9242 26.72 52.3882 26.72C51.7802 26.72 51.3642 26.912 51.0762 27.312C50.6442 27.904 50.5322 28.976 50.5322 30.512C50.5322 33.152 50.8842 34.352 52.3882 34.352ZM64.1047 30.048C65.5447 30.416 66.0567 31.424 66.0567 32.896C66.0567 35.056 64.3127 36.192 61.9767 36.192C59.4807 36.192 57.8807 34.944 57.8807 32.912C57.8807 31.408 58.4727 30.464 59.8487 30.048C58.8887 29.632 58.3127 28.912 58.3127 27.744C58.3127 26.208 59.4807 24.848 61.9927 24.848C64.4887 24.848 65.6247 26.208 65.6247 27.744C65.6247 28.896 65.0167 29.648 64.1047 30.048ZM61.9767 26.592C60.9687 26.592 60.5847 27.136 60.5847 27.936C60.5847 28.704 61.0167 29.312 61.9767 29.312C62.9207 29.312 63.3527 28.704 63.3527 27.936C63.3527 27.12 62.9367 26.592 61.9767 26.592ZM61.9767 34.448C63.1287 34.448 63.7207 33.808 63.7207 32.72C63.7207 31.728 63.1287 31.056 61.9767 31.056C60.8727 31.056 60.2167 31.68 60.2167 32.72C60.2167 33.808 60.8247 34.448 61.9767 34.448Z" fill="white"/>
<rect y="66" width="89" height="28" rx="14" fill="#121212"/>
<rect x="0.5" y="66.5" width="88" height="27" rx="13.5" stroke="#888888" stroke-opacity="0.25"/>
<path d="M16.0113 84H14.9193V76.548H12.1233V75.6H18.8073V76.548H16.0113V84ZM21.0726 84.144C19.2006 84.144 18.0726 82.956 18.0726 81C18.0726 79.176 19.2126 77.856 21.0726 77.856C22.9086 77.856 24.0606 79.188 24.0606 81C24.0606 82.884 22.8726 84.144 21.0726 84.144ZM21.0726 83.292C21.6846 83.292 22.1166 83.112 22.4046 82.788C22.7526 82.392 22.8966 81.78 22.8966 81C22.8966 80.22 22.7526 79.596 22.3926 79.2C22.1046 78.888 21.6846 78.708 21.0726 78.708C20.4846 78.708 20.0526 78.864 19.7646 79.164C19.3806 79.56 19.2366 80.196 19.2366 81C19.2366 81.804 19.3806 82.44 19.7646 82.836C20.0526 83.136 20.4726 83.292 21.0726 83.292ZM28.2641 77.856C29.8601 77.856 31.0241 79.044 31.0241 81C31.0241 82.896 29.9201 84.144 28.3001 84.144C27.4601 84.144 26.8241 83.856 26.3681 83.22V86.4H25.2881V78H26.3681V78.876C26.8121 78.192 27.4601 77.856 28.2641 77.856ZM29.2841 82.872C29.6801 82.488 29.8361 81.852 29.8361 81C29.8361 79.596 29.4761 78.708 28.0721 78.708C27.5081 78.708 27.0761 78.888 26.7881 79.26C26.4881 79.644 26.3321 80.22 26.3321 80.988C26.3321 82.104 26.5841 83.28 28.0481 83.28C28.6001 83.28 29.0081 83.136 29.2841 82.872ZM40.5723 84H35.1483V75.6H40.5723V76.572H36.2283V79.272H40.1283V80.244H36.2283V83.028H40.5723V84ZM44.8344 77.856C46.4304 77.856 47.5944 79.044 47.5944 81C47.5944 82.896 46.4904 84.144 44.8704 84.144C44.0304 84.144 43.3944 83.856 42.9384 83.22V86.4H41.8584V78H42.9384V78.876C43.3824 78.192 44.0304 77.856 44.8344 77.856ZM45.8544 82.872C46.2504 82.488 46.4064 81.852 46.4064 81C46.4064 79.596 46.0464 78.708 44.6424 78.708C44.0784 78.708 43.6464 78.888 43.3584 79.26C43.0584 79.644 42.9024 80.22 42.9024 80.988C42.9024 82.104 43.1544 83.28 44.6184 83.28C45.1704 83.28 45.5784 83.136 45.8544 82.872ZM49.9111 76.872H48.8311V75.6H49.9111V76.872ZM49.9111 84H48.8311V78H49.9111V84ZM53.6512 84.144C52.3072 84.144 51.0952 83.52 51.1072 82.032L52.0912 81.936C52.0792 82.776 52.6912 83.292 53.6272 83.292C54.6112 83.292 55.1032 82.956 55.1032 82.32C55.1032 81.636 53.9992 81.552 53.1712 81.336C52.1992 81.084 51.2392 80.796 51.2392 79.608C51.2392 78.36 52.3912 77.856 53.4592 77.856C54.7312 77.856 55.8352 78.36 55.9672 79.824L54.9592 79.98C54.9352 79.152 54.3952 78.708 53.4472 78.708C52.8592 78.708 52.2472 78.984 52.2472 79.536C52.2472 80.088 52.9672 80.244 53.6872 80.4C54.8872 80.652 56.1232 80.856 56.1232 82.26C56.1232 83.724 54.8632 84.144 53.6512 84.144ZM59.9789 84.144C58.1069 84.144 56.9789 82.956 56.9789 81C56.9789 79.176 58.1189 77.856 59.9789 77.856C61.8149 77.856 62.9669 79.188 62.9669 81C62.9669 82.884 61.7789 84.144 59.9789 84.144ZM59.9789 83.292C60.5909 83.292 61.0229 83.112 61.3109 82.788C61.6589 82.392 61.8029 81.78 61.8029 81C61.8029 80.22 61.6589 79.596 61.2989 79.2C61.0109 78.888 60.5909 78.708 59.9789 78.708C59.3909 78.708 58.9589 78.864 58.6709 79.164C58.2869 79.56 58.1429 80.196 58.1429 81C58.1429 81.804 58.2869 82.44 58.6709 82.836C58.9589 83.136 59.3789 83.292 59.9789 83.292ZM68.5023 78.78V75.6H69.5823V84H68.5023V83.124C68.0583 83.808 67.4103 84.144 66.6063 84.144C65.0103 84.144 63.8463 82.956 63.8463 81C63.8463 79.104 64.9503 77.856 66.5703 77.856C67.4103 77.856 68.0463 78.144 68.5023 78.78ZM67.9743 82.86C68.3463 82.488 68.5383 81.864 68.5383 81.012C68.5383 79.896 68.2863 78.72 66.8223 78.72C66.2103 78.72 65.7783 78.9 65.5023 79.224C65.1663 79.62 65.0343 80.22 65.0343 81C65.0343 82.404 65.3943 83.292 66.7983 83.292C67.3023 83.292 67.6863 83.148 67.9743 82.86ZM76.039 79.044C76.399 79.62 76.591 80.472 76.543 81.324H71.995C72.019 82.644 72.571 83.28 73.699 83.28C74.719 83.28 75.271 82.848 75.415 81.936L76.459 82.02C76.195 83.424 75.235 84.144 73.711 84.144C72.787 84.144 72.067 83.868 71.551 83.268C71.047 82.704 70.819 81.924 70.819 80.988C70.819 80.1 71.071 79.32 71.575 78.756C72.103 78.156 72.835 77.856 73.699 77.856C74.647 77.856 75.547 78.264 76.039 79.044ZM73.711 78.732C73.039 78.732 72.535 78.984 72.295 79.38C72.079 79.74 72.007 80.148 72.007 80.448H75.439C75.427 80.124 75.307 79.668 75.115 79.38C74.803 78.924 74.359 78.732 73.711 78.732Z" fill="#888888"/>
</svg>
