<svg width="108" height="94" viewBox="0 0 108 94" fill="none" xmlns="http://www.w3.org/2000/svg">
<rect x="24" width="60" height="60" rx="30" fill="#121212"/>
<rect x="24.5" y="0.5" width="59" height="59" rx="29.5" stroke="#888888" stroke-opacity="0.25"/>
<path d="M40.7554 36.192C37.9394 36.192 36.4834 34.256 36.4834 30.512C36.4834 27.184 37.8434 24.848 40.7554 24.848C43.6674 24.848 45.0434 27.2 45.0434 30.512C45.0434 33.872 43.6674 36.192 40.7554 36.192ZM40.7554 34.352C41.3474 34.352 41.7634 34.16 42.0514 33.76C42.4994 33.152 42.6274 32.064 42.6274 30.512C42.6274 27.968 42.2914 26.72 40.7554 26.72C40.1474 26.72 39.7314 26.912 39.4434 27.312C39.0114 27.904 38.8994 28.976 38.8994 30.512C38.8994 33.152 39.2514 34.352 40.7554 34.352ZM48.5434 36H46.1274V33.472H48.5434V36ZM56.1125 30.048C57.5525 30.416 58.0645 31.424 58.0645 32.896C58.0645 35.056 56.3205 36.192 53.9845 36.192C51.4885 36.192 49.8885 34.944 49.8885 32.912C49.8885 31.408 50.4805 30.464 51.8565 30.048C50.8965 29.632 50.3205 28.912 50.3205 27.744C50.3205 26.208 51.4885 24.848 54.0005 24.848C56.4965 24.848 57.6325 26.208 57.6325 27.744C57.6325 28.896 57.0245 29.648 56.1125 30.048ZM53.9845 26.592C52.9765 26.592 52.5925 27.136 52.5925 27.936C52.5925 28.704 53.0245 29.312 53.9845 29.312C54.9285 29.312 55.3605 28.704 55.3605 27.936C55.3605 27.12 54.9445 26.592 53.9845 26.592ZM53.9845 34.448C55.1365 34.448 55.7285 33.808 55.7285 32.72C55.7285 31.728 55.1365 31.056 53.9845 31.056C52.8805 31.056 52.2245 31.68 52.2245 32.72C52.2245 33.808 52.8325 34.448 53.9845 34.448ZM61.7126 31.136C60.0806 31.136 59.1366 29.952 59.1366 28C59.1366 26.096 60.1126 24.832 61.7126 24.832C63.2966 24.832 64.2886 26.112 64.2886 28C64.2886 29.856 63.3126 31.136 61.7126 31.136ZM63.2486 36H61.3606L67.5686 25.04H69.4566L63.2486 36ZM61.7126 29.776C62.0166 29.776 62.2246 29.648 62.3366 29.408C62.5126 29.104 62.5446 28.608 62.5446 28C62.5446 26.896 62.4486 26.208 61.7126 26.208C61.4246 26.208 61.2326 26.32 61.1046 26.544C60.9126 26.848 60.8646 27.344 60.8646 28C60.8646 29.072 61.0086 29.776 61.7126 29.776ZM69.0726 36.192C67.4406 36.192 66.4966 35.008 66.4966 33.056C66.4966 31.152 67.4726 29.888 69.0726 29.888C70.6566 29.888 71.6486 31.168 71.6486 33.056C71.6486 34.912 70.6726 36.192 69.0726 36.192ZM69.0726 34.832C69.3766 34.832 69.5846 34.704 69.6966 34.464C69.8726 34.16 69.9046 33.664 69.9046 33.056C69.9046 31.952 69.8086 31.264 69.0726 31.264C68.7846 31.264 68.5926 31.376 68.4646 31.6C68.2726 31.904 68.2246 32.4 68.2246 33.056C68.2246 34.128 68.3686 34.832 69.0726 34.832Z" fill="white"/>
<rect y="66" width="108" height="28" rx="14" fill="#121212"/>
<rect x="0.5" y="66.5" width="107" height="27" rx="13.5" stroke="#888888" stroke-opacity="0.25"/>
<path d="M14.1109 84H13.0429V75.6H14.6149L16.3909 80.352C16.7869 81.408 17.0749 82.236 17.2549 82.788H17.2669C17.4469 82.236 17.7949 81.228 18.1189 80.352L19.8949 75.6H21.4669V84H20.3989V78.924C20.3989 78.672 20.4229 77.688 20.4589 77.004H20.4469C20.1349 77.904 19.9189 78.516 19.7629 78.924L17.8069 84H16.7029L14.7469 78.924C14.5909 78.516 14.3269 77.76 14.0629 77.004H14.0509C14.0869 77.688 14.1109 78.672 14.1109 78.924V84ZM25.8148 84.144C23.9428 84.144 22.8148 82.956 22.8148 81C22.8148 79.176 23.9548 77.856 25.8148 77.856C27.6508 77.856 28.8028 79.188 28.8028 81C28.8028 82.884 27.6148 84.144 25.8148 84.144ZM25.8148 83.292C26.4268 83.292 26.8588 83.112 27.1468 82.788C27.4948 82.392 27.6388 81.78 27.6388 81C27.6388 80.22 27.4948 79.596 27.1348 79.2C26.8468 78.888 26.4268 78.708 25.8148 78.708C25.2268 78.708 24.7948 78.864 24.5068 79.164C24.1228 79.56 23.9788 80.196 23.9788 81C23.9788 81.804 24.1228 82.44 24.5068 82.836C24.7948 83.136 25.2148 83.292 25.8148 83.292ZM34.7463 78.528C35.2023 79.02 35.2143 79.8 35.2143 80.436V84H34.0983V80.496C34.0983 79.944 34.1103 79.452 33.7383 79.104C33.4023 78.768 33.0063 78.756 32.6703 78.756C32.1423 78.756 31.1103 78.972 31.1103 80.688V84H30.0303V78H31.1103V78.912C31.4103 78.24 31.9983 77.856 32.9583 77.856C33.7503 77.856 34.3143 78.072 34.7463 78.528ZM38.6188 84.06C37.5028 84.06 37.0108 83.628 37.0108 82.656V78.9H36.1468V78H37.0108V76.332H38.0788V78H39.3028V78.9H38.0788V82.62C38.0788 83.016 38.2588 83.088 38.7028 83.088C38.8348 83.088 39.0508 83.064 39.2548 83.028L39.2788 84C39.0868 84.036 38.8348 84.06 38.6188 84.06ZM45.0705 78.528C45.5265 79.02 45.5385 79.776 45.5385 80.412V84H44.4225V80.472C44.4225 79.92 44.4345 79.452 44.0625 79.104C43.7265 78.768 43.3305 78.756 42.9945 78.756C42.4545 78.756 41.4345 78.888 41.4345 80.628V84H40.3545V75.6H41.4345V78.9C41.7705 78.18 42.4425 77.856 43.2825 77.856C44.0745 77.856 44.6385 78.072 45.0705 78.528ZM48.1376 84H47.0576V75.6H48.1376V84ZM52.3698 81.24L53.5218 78H54.6498L52.2018 84.552C51.7098 85.872 51.2778 86.46 50.4498 86.46C50.1618 86.46 49.8378 86.424 49.5378 86.34L49.5618 85.332C49.7778 85.404 50.0298 85.464 50.3058 85.464C50.7498 85.464 50.9538 84.972 51.3498 83.952L49.0098 78H50.1618L51.3018 81.24C51.4458 81.648 51.6378 82.236 51.8298 82.836C52.0698 82.104 52.2018 81.72 52.3698 81.24ZM61.8067 80.568V79.548H65.3827V84H64.4947L64.3987 82.848C63.8227 83.7 62.8867 84.144 61.7107 84.144C59.1667 84.144 57.7267 82.596 57.7267 79.8C57.7267 77.256 59.1307 75.456 61.7107 75.456C63.4267 75.456 64.8307 76.332 65.2987 78.084L64.1227 78.312C63.8467 77.316 63.0787 76.392 61.7347 76.392C60.7747 76.392 60.0067 76.704 59.5507 77.34C59.1427 77.916 58.9387 78.72 58.9387 79.8C58.9387 80.892 59.1427 81.708 59.5507 82.296C60.0067 82.944 60.7747 83.208 61.8307 83.208C63.4267 83.208 64.2787 82.308 64.3027 80.568H61.8067ZM69.7554 77.868C69.8514 77.856 70.0794 77.856 70.1634 77.856L70.1394 78.876C70.0674 78.864 69.9714 78.864 69.8634 78.864C68.7234 78.864 67.8954 79.224 67.8954 81.156V84H66.8154V78H67.8954V79.056C68.0634 78.48 68.7714 77.94 69.7554 77.868ZM73.4515 84.144C71.5795 84.144 70.4515 82.956 70.4515 81C70.4515 79.176 71.5915 77.856 73.4515 77.856C75.2875 77.856 76.4395 79.188 76.4395 81C76.4395 82.884 75.2515 84.144 73.4515 84.144ZM73.4515 83.292C74.0635 83.292 74.4955 83.112 74.7835 82.788C75.1315 82.392 75.2755 81.78 75.2755 81C75.2755 80.22 75.1315 79.596 74.7715 79.2C74.4835 78.888 74.0635 78.708 73.4515 78.708C72.8635 78.708 72.4315 78.864 72.1435 79.164C71.7595 79.56 71.6155 80.196 71.6155 81C71.6155 81.804 71.7595 82.44 72.1435 82.836C72.4315 83.136 72.8515 83.292 73.4515 83.292ZM80.0687 84H78.8927L76.8887 78H78.0527L78.9887 81.204C79.0247 81.324 79.2767 82.236 79.4687 82.968C79.6007 82.38 79.8047 81.492 79.8767 81.204L80.6807 78H81.6887L82.4807 81.204C82.5767 81.6 82.7447 82.356 82.8767 82.968C83.0567 82.272 83.2127 81.684 83.3567 81.204L84.3167 78H85.4807L83.4767 84H82.3127L81.5087 80.904C81.4487 80.676 81.2927 79.932 81.1727 79.332C81.0647 79.896 80.9447 80.508 80.8487 80.904L80.0687 84ZM88.3063 84.06C87.1903 84.06 86.6983 83.628 86.6983 82.656V78.9H85.8343V78H86.6983V76.332H87.7663V78H88.9903V78.9H87.7663V82.62C87.7663 83.016 87.9463 83.088 88.3903 83.088C88.5223 83.088 88.7383 83.064 88.9423 83.028L88.9663 84C88.7743 84.036 88.5223 84.06 88.3063 84.06ZM94.758 78.528C95.214 79.02 95.226 79.776 95.226 80.412V84H94.11V80.472C94.11 79.92 94.122 79.452 93.75 79.104C93.414 78.768 93.018 78.756 92.682 78.756C92.142 78.756 91.122 78.888 91.122 80.628V84H90.042V75.6H91.122V78.9C91.458 78.18 92.13 77.856 92.97 77.856C93.762 77.856 94.326 78.072 94.758 78.528Z" fill="#888888"/>
</svg>
