<svg xmlns="http://www.w3.org/2000/svg" width="1010" height="200" fill="none"><path fill="#ffffff" d="M22.44 176.215a111.28 111.28 0 0 1-14.461-28.3C4.007 136.293 2 124.13 2 111.73 1.978 50.119 52.055 0 113.614 0c61.559 0 111.635 50.119 111.635 111.73 0 12.379-2.007 24.563-5.979 36.185-3.432 10.067-8.31 19.573-14.461 28.3l-19.167-13.566a88.464 88.464 0 0 0 11.418-22.338 88.28 88.28 0 0 0 4.727-28.581c0-48.671-39.565-88.248-88.173-88.248-48.609 0-88.173 39.599-88.173 88.248a88.38 88.38 0 0 0 4.727 28.581 88.804 88.804 0 0 0 11.418 22.338L22.42 176.215h.022Z"/><path fill="#ffffff" d="M125.365 45.36h-23.463v154.633h23.463V45.359Z"/><path fill="#ffffff" d="M52.684 124.945v-23.483c27.11 0 49.169-25.167 49.169-56.103h23.463c0 43.898-32.571 79.586-72.632 79.586Z"/><path fill="#ffffff" d="M174.488 124.945c-40.04 0-72.633-35.71-72.633-79.586h23.463c0 30.936 22.059 56.103 49.17 56.103v23.483Z"/><path fill="#ffffff" d="M41.55 186.122V162.64c33.263 0 60.33-30.763 60.33-68.546h23.462c0 50.745-37.6 92.028-83.791 92.028Z"/><path fill="#ffffff" d="M185.694 186.122c-46.213 0-83.792-41.283-83.792-92.028h23.463c0 37.805 27.067 68.546 60.329 68.546v23.482ZM283.738 176.232V45.75h51.22c9.196 0 17.16 1.771 23.938 5.314 6.756 3.543 11.958 8.577 15.541 15.1 3.604 6.525 5.396 14.194 5.396 23.03 0 8.317-1.835 15.726-5.504 22.186-3.67 6.459-9.001 11.492-16.016 15.1-7.015 3.608-15.433 5.401-25.232 5.401h-24.952V111.38h20.311c7.814 0 13.793-1.901 17.872-5.682 4.101-3.78 6.152-9.29 6.152-16.504 0-6.827-1.921-12.012-5.763-15.555-3.843-3.542-9.196-5.314-16.016-5.314h-20.117v107.928h-26.83v-.021ZM397.314 69.406c-4.23 0-7.792-1.36-10.706-4.104-2.914-2.722-4.381-6.092-4.381-10.067 0-3.975 1.424-7.453 4.273-10.067 2.849-2.614 6.454-3.91 10.793-3.91 4.338 0 7.878 1.296 10.619 3.91 2.72 2.614 4.101 5.962 4.101 10.067s-1.424 7.323-4.273 10.067c-2.85 2.743-6.325 4.104-10.426 4.104Zm-13.037 106.805v-93.95h25.88v93.95h-25.88ZM418.504 176.23V82.279h25.319v20.328l.194 1.124v72.499h-25.513Zm62.574-53.121c0-7.453-1.339-12.962-3.994-16.505-2.676-3.543-7.058-5.314-13.123-5.314-6.065 0-11.246 2.181-14.721 6.524-3.475 4.342-5.223 10.326-5.223 17.887l-2.418-22.921c1.986-7.086 5.764-12.746 11.354-16.958 5.59-4.234 12.605-6.33 21.045-6.33 6.713 0 12.497 1.512 17.419 4.558 4.899 3.046 8.698 7.389 11.353 13.049 2.677 5.66 3.993 12.4 3.993 20.22v58.911h-25.707v-53.121h.022ZM566.162 179.039c-10.554 0-19.836-2.053-27.844-6.157-8.008-4.105-14.224-9.938-18.627-17.52-4.403-7.583-6.605-16.462-6.605-26.658 0-9.57 1.964-18.082 5.871-25.535 3.907-7.453 9.497-13.264 16.771-17.434 7.274-4.169 15.93-6.243 25.988-6.243 8.807 0 16.491 1.685 23.009 5.034 6.519 3.348 11.483 8.295 14.894 14.82 3.41 6.523 5.115 14.387 5.115 23.59v12.292h-72.999l-.194-15.468h54.566l-4.101 3.737v-2.981c0-4.342-.821-8.079-2.418-11.19-1.619-3.111-3.95-5.466-6.993-7.086-3.044-1.62-6.605-2.42-10.706-2.42-4.965 0-9.131 1.059-12.476 3.176-3.346 2.117-5.828 5.098-7.447 8.944-1.619 3.845-2.482 8.447-2.612 13.782l-.561 3.543c.13 9.074 3 16.159 8.656 21.258 5.655 5.098 13.749 7.647 24.304 7.647 5.331 0 10.576-.799 15.735-2.419 5.159-1.621 9.648-3.781 13.512-6.525v19.94c-3.842 2.852-8.785 5.228-14.807 7.086-6.022 1.858-12.692 2.787-20.031 2.787ZM659.373 179.21c-10.188 0-19.146-2.181-26.916-6.524-7.771-4.342-13.75-10.283-17.98-17.8-4.231-7.518-6.325-16.116-6.325-25.816s2.116-18.146 6.325-25.729c4.23-7.583 10.274-13.48 18.152-17.715 7.879-4.212 16.987-6.33 27.283-6.33 6.324 0 11.98.692 16.944 2.053 4.965 1.361 9.368 3.111 13.231 5.228v24.044c-3.842-2.981-7.921-5.185-12.195-6.61-4.274-1.426-9.087-2.139-14.44-2.139-5.957 0-11.116 1.145-15.455 3.456-4.338 2.312-7.705 5.509-10.058 9.592-2.353 4.105-3.54 8.771-3.54 13.977 0 5.207 1.187 10.283 3.54 14.453 2.353 4.169 5.806 7.453 10.339 9.872 4.533 2.42 10.015 3.629 16.491 3.629 4.964 0 9.734-.799 14.332-2.419 4.597-1.62 8.504-3.737 11.742-6.33v22.748c-4.468 2.744-9.346 4.818-14.613 6.243-5.288 1.426-10.9 2.139-16.857 2.139v-.022ZM726.047 179.039c-6.086 0-11.526-1.297-16.296-3.911s-8.547-6.221-11.267-10.801c-2.741-4.601-4.101-9.743-4.101-15.468 0-6.221 1.424-11.579 4.274-16.116 2.849-4.536 6.82-8.036 11.914-10.542 5.094-2.484 10.922-3.737 17.505-3.737 6.584 0 12.347 1.361 16.944 4.104 4.598 2.744 7.943 6.33 10.059 10.802l-2.785 5.033v-14.171c0-7.453-2.072-13.178-6.238-17.153-4.166-3.975-10.037-5.962-17.591-5.962-5.72 0-11.008.993-15.93 2.981-4.899 1.987-9.281 4.774-13.123 8.382V89.926c4.727-3.218 9.972-5.768 15.735-7.647 5.763-1.88 12.023-2.787 18.714-2.787 9.195 0 17.073 1.707 23.657 5.12 6.583 3.413 11.569 8.274 15.001 14.539 3.41 6.286 5.116 13.761 5.116 22.467v54.612h-25.319v-21.819l2.612 4.105c-1.857 6.329-5.332 11.341-10.426 15.014-5.094 3.672-11.245 5.509-18.433 5.509h-.022Zm9.498-17.52c3.475 0 6.518-.627 9.13-1.858 2.612-1.232 4.597-2.982 5.957-5.228a13.727 13.727 0 0 0 2.051-7.259c0-3.975-1.554-7.28-4.662-9.872-3.109-2.614-7.21-3.91-12.282-3.91-5.332 0-9.497 1.274-12.476 3.823-2.979 2.549-4.468 5.941-4.468 10.154 0 4.212 1.489 7.798 4.468 10.347 2.979 2.55 7.08 3.824 12.282 3.824v-.021ZM819.478 179.039c-6.821 0-13.253-.929-19.275-2.787-6.022-1.858-11.699-4.666-17.052-8.382v-21.257c4.835 3.845 10.296 6.891 16.383 9.138 6.087 2.225 11.785 3.348 17.138 3.348 4.835 0 8.526-.864 11.073-2.614 2.547-1.728 3.82-4.342 3.82-7.82 0-2.355-.777-4.342-2.331-5.963-1.554-1.62-4.122-2.916-7.727-3.91l-14.721-4.104c-7.943-2.117-13.9-5.336-17.872-9.7-3.971-4.342-5.957-9.873-5.957-16.591 0-8.706 3.454-15.684 10.339-20.977 6.885-5.27 16.102-7.928 27.65-7.928 6.583 0 12.497.8 17.786 2.42 5.266 1.62 10.015 3.802 14.245 6.524v20.695c-4.23-3.11-8.936-5.508-14.159-7.172a51.193 51.193 0 0 0-15.822-2.506c-4.597 0-8.072.692-10.425 2.053-2.353 1.361-3.54 3.413-3.54 6.156 0 2.226.799 4.105 2.418 5.596 1.618 1.49 4.165 2.678 7.641 3.542l14.526 3.738c8.31 1.987 14.462 5.314 18.433 9.98 3.972 4.667 5.958 10.478 5.958 17.434 0 6.092-1.576 11.493-4.749 16.224-3.173 4.731-7.663 8.382-13.512 10.996-5.828 2.614-12.605 3.91-20.311 3.91l.043-.043ZM878.465 176.2v-72.888h-21.973V82.249h21.973V57.838l25.708-6.33v30.74h24.196v21.064h-24.196V176.2h-25.708Z"/></svg>
