<svg width="114" height="94" viewBox="0 0 114 94" fill="none" xmlns="http://www.w3.org/2000/svg">
<rect x="27" width="60" height="60" rx="30" fill="#121212"/>
<rect x="27.5" y="0.5" width="59" height="59" rx="29.5" stroke="#888888" stroke-opacity="0.25"/>
<path d="M53.7355 32.736C53.7355 35.152 51.7995 36.016 49.7195 36.16V37.088H48.2315V36.16C46.0075 35.936 44.2155 34.736 44.1355 32.352L46.5355 32.096C46.5515 33.36 47.2075 34.096 48.2315 34.336V31.2C46.0555 30.736 44.4235 29.952 44.4235 27.888C44.4235 25.808 46.2635 24.8 48.2315 24.64V23.712H49.7195V24.656C51.6875 24.864 53.1115 25.872 53.3835 28.128L51.0315 28.496C50.9675 27.376 50.5035 26.72 49.7195 26.464V29.312C52.0075 29.76 53.7355 30.432 53.7355 32.736ZM46.7435 27.76C46.7435 28.4 47.2715 28.752 48.2315 29.008V26.368C47.3035 26.496 46.7435 26.976 46.7435 27.76ZM49.7195 31.504V34.384C50.6955 34.256 51.3995 33.776 51.3995 32.8C51.3995 31.984 50.7595 31.728 49.7195 31.504ZM57.4508 25.04H59.4028V36H57.1628V28.384C56.6348 28.864 55.8348 29.056 55.0188 29.056C54.8588 29.056 54.6828 29.04 54.5228 29.024V27.04C56.2508 27.04 57.1788 26.448 57.4508 25.04ZM65.396 36.192C62.58 36.192 61.124 34.256 61.124 30.512C61.124 27.184 62.484 24.848 65.396 24.848C68.308 24.848 69.684 27.2 69.684 30.512C69.684 33.872 68.308 36.192 65.396 36.192ZM65.396 34.352C65.988 34.352 66.404 34.16 66.692 33.76C67.14 33.152 67.268 32.064 67.268 30.512C67.268 27.968 66.932 26.72 65.396 26.72C64.788 26.72 64.372 26.912 64.084 27.312C63.652 27.904 63.54 28.976 63.54 30.512C63.54 33.152 63.892 34.352 65.396 34.352Z" fill="white"/>
<rect y="66" width="114" height="28" rx="14" fill="#121212"/>
<rect x="0.5" y="66.5" width="113" height="27" rx="13.5" stroke="#888888" stroke-opacity="0.25"/>
<path d="M16.3883 84H15.2963V76.548H12.5003V75.6H19.1843V76.548H16.3883V84ZM21.1552 76.872H20.0752V75.6H21.1552V76.872ZM21.1552 84H20.0752V78H21.1552V84ZM25.7114 77.856C27.3074 77.856 28.4714 79.044 28.4714 81C28.4714 82.896 27.3674 84.144 25.7474 84.144C24.9074 84.144 24.2714 83.856 23.8154 83.22V86.4H22.7354V78H23.8154V78.876C24.2594 78.192 24.9074 77.856 25.7114 77.856ZM26.7314 82.872C27.1274 82.488 27.2834 81.852 27.2834 81C27.2834 79.596 26.9234 78.708 25.5194 78.708C24.9554 78.708 24.5234 78.888 24.2354 79.26C23.9354 79.644 23.7794 80.22 23.7794 80.988C23.7794 82.104 24.0314 83.28 25.4954 83.28C26.0474 83.28 26.4554 83.136 26.7314 82.872ZM34.0195 84.144C32.4715 84.144 31.5715 83.22 31.5715 81.648V80.94H32.6635V81.48C32.6635 82.416 32.8435 83.208 34.0435 83.208C35.0995 83.208 35.2915 82.488 35.2915 81.636V75.6H36.3835V81.804C36.3835 82.86 35.8915 84.144 34.0195 84.144ZM43.4763 83.112L43.5003 84C43.2723 84.036 43.0683 84.048 42.8283 84.048C42.1683 84.048 41.8083 83.736 41.7483 83.112C41.4123 83.796 40.7523 84.144 39.7323 84.144C38.7243 84.144 37.7163 83.592 37.7163 82.416C37.7163 81.12 38.8083 80.76 39.7563 80.58L41.7363 80.196C41.7363 79.656 41.7123 79.356 41.5323 79.104C41.3643 78.864 40.9683 78.708 40.4403 78.708C39.3963 78.708 38.9763 79.092 38.9763 80.004L37.9203 79.86C37.9443 79.14 38.1963 78.612 38.6643 78.3C39.0963 78.012 39.7323 77.856 40.5003 77.856C42.0123 77.856 42.7803 78.528 42.7803 79.836V82.704C42.7803 83.016 42.7803 83.16 43.1283 83.16C43.2243 83.16 43.3203 83.148 43.4763 83.112ZM41.7363 81.732V81L39.9243 81.396C39.2883 81.54 38.8203 81.72 38.8203 82.404C38.8203 82.968 39.3123 83.28 39.9003 83.28C41.2083 83.28 41.7363 82.596 41.7363 81.732ZM47.4488 77.868C47.5448 77.856 47.7728 77.856 47.8568 77.856L47.8328 78.876C47.7608 78.864 47.6648 78.864 47.5568 78.864C46.4168 78.864 45.5888 79.224 45.5888 81.156V84H44.5088V78H45.5888V79.056C45.7568 78.48 46.4648 77.94 47.4488 77.868ZM52.5702 84H51.5022V78.9H50.6382V78H51.5022V76.944C51.5022 75.972 51.9942 75.54 53.1102 75.54C53.3622 75.54 53.6382 75.576 53.7702 75.6L53.7462 76.56C53.5542 76.524 53.3022 76.5 53.1702 76.5C52.7622 76.5 52.5702 76.572 52.5702 76.968V78H53.7942V78.9H52.5702V84ZM57.6558 77.868C57.7518 77.856 57.9798 77.856 58.0638 77.856L58.0398 78.876C57.9678 78.864 57.8718 78.864 57.7638 78.864C56.6238 78.864 55.7958 79.224 55.7958 81.156V84H54.7158V78H55.7958V79.056C55.9638 78.48 56.6718 77.94 57.6558 77.868ZM61.3519 84.144C59.4799 84.144 58.3519 82.956 58.3519 81C58.3519 79.176 59.4919 77.856 61.3519 77.856C63.1879 77.856 64.3399 79.188 64.3399 81C64.3399 82.884 63.1519 84.144 61.3519 84.144ZM61.3519 83.292C61.9639 83.292 62.3959 83.112 62.6839 82.788C63.0319 82.392 63.1759 81.78 63.1759 81C63.1759 80.22 63.0319 79.596 62.6719 79.2C62.3839 78.888 61.9639 78.708 61.3519 78.708C60.7639 78.708 60.3319 78.864 60.0439 79.164C59.6599 79.56 59.5159 80.196 59.5159 81C59.5159 81.804 59.6599 82.44 60.0439 82.836C60.3319 83.136 60.7519 83.292 61.3519 83.292ZM72.3834 77.856C73.7274 77.856 74.4594 78.624 74.4594 80.112V84H73.3554V80.472C73.3554 79.908 73.3554 79.416 72.9954 79.08C72.6594 78.756 72.2154 78.744 71.9874 78.744C71.6274 78.744 71.3274 78.864 71.0994 79.068C70.8114 79.332 70.5474 79.728 70.5474 80.688V84H69.4434V80.472C69.4434 79.908 69.4434 79.416 69.0834 79.08C68.7474 78.756 68.3034 78.744 68.0754 78.744C67.7034 78.744 67.4034 78.876 67.1874 79.068C66.8994 79.332 66.6354 79.728 66.6354 80.688V84H65.5674V78H66.6354V78.9C66.7074 78.72 66.8274 78.516 67.0794 78.312C67.3554 78.084 67.7874 77.856 68.4834 77.856C69.4314 77.856 70.1154 78.324 70.4034 79.128C70.5234 78.804 70.7034 78.552 70.9794 78.312C71.2674 78.072 71.6514 77.856 72.3834 77.856ZM82.065 84.144C79.929 84.144 78.789 83.112 78.789 81.228V75.6H79.881V81.228C79.881 82.56 80.901 83.184 82.065 83.184C83.229 83.184 84.261 82.56 84.261 81.228V75.6H85.353V81.228C85.353 83.112 84.201 84.144 82.065 84.144ZM90.1436 84.144C88.2956 84.144 86.6756 83.22 86.6756 81.264L87.8276 81.144C87.8276 82.488 88.8116 83.232 90.1076 83.232C91.3436 83.232 92.3996 82.86 92.3996 81.636C92.3996 80.472 90.9116 80.496 89.6516 80.196C88.3436 79.884 86.9036 79.428 86.9036 77.82C86.9036 76.104 88.5116 75.456 89.8796 75.456C91.6196 75.456 93.0476 76.14 93.2276 78.132L92.0996 78.336C92.0756 77.076 91.2356 76.356 89.8556 76.356C89.0396 76.356 88.0196 76.788 88.0196 77.772C88.0196 78.72 89.2916 79.02 90.4316 79.2C92.0996 79.464 93.5276 79.764 93.5276 81.552C93.5276 83.592 91.7636 84.144 90.1436 84.144ZM101.554 84H100.414L99.4785 81.492H95.9145L94.9905 84H93.8385L97.1265 75.6H98.2785L101.554 84ZM97.2105 78L96.2745 80.532H99.1185L98.1705 78C98.0025 77.556 97.8105 77.004 97.6905 76.644H97.6785C97.5345 77.088 97.4025 77.472 97.2105 78Z" fill="#888888"/>
</svg>
