<svg width="106" height="94" viewBox="0 0 106 94" fill="none" xmlns="http://www.w3.org/2000/svg">
<rect x="23" width="60" height="60" rx="30" fill="#121212"/>
<rect x="23.5" y="0.5" width="59" height="59" rx="29.5" stroke="#888888" stroke-opacity="0.25"/>
<path d="M46.9774 33.504L48.1774 35.12C47.3614 35.952 46.4334 36.192 45.4894 36.192C44.0014 36.192 43.3134 35.408 42.2094 35.408C41.5054 35.408 40.8494 35.728 40.3694 36.096L39.1374 34.32C40.2734 33.472 40.9934 32.848 40.9934 31.872C40.9934 31.744 40.9774 31.6 40.9454 31.456H39.4254V29.712H40.2894C40.0494 29.2 39.8734 28.688 39.8734 27.968C39.8734 26.016 41.4094 24.608 43.9054 24.608C46.2574 24.608 47.8094 25.888 47.9054 28.192L45.5694 28.64C45.6174 27.312 45.0254 26.464 43.8894 26.464C42.7214 26.464 42.3054 27.28 42.3054 28.08C42.3054 28.656 42.4654 29.168 42.6414 29.712H45.0094V31.456H43.1534C43.1694 31.568 43.1694 31.68 43.1694 31.808C43.1694 32.704 42.5614 33.424 41.8414 33.936L41.8734 33.968C42.3054 33.712 42.7214 33.6 43.1854 33.6C44.1774 33.6 44.6094 34.208 45.5054 34.208C46.1294 34.208 46.5614 33.872 46.9774 33.504ZM53.7298 28.784C55.3298 28.784 57.0898 29.888 57.0898 32.464C57.0898 34.56 55.7618 36.192 53.0578 36.192C50.8178 36.192 49.1698 35.008 49.1058 32.72L51.3938 32.352C51.3938 33.6 52.0018 34.352 53.0578 34.352C54.2258 34.352 54.7698 33.6 54.7698 32.448C54.7698 31.216 54.0018 30.688 53.0738 30.688C52.4178 30.688 51.8258 30.944 51.4898 31.36L49.3938 30.944L50.2418 25.04H56.5458V26.96H52.1618L51.7938 29.472C52.2578 29.04 52.8818 28.784 53.7298 28.784ZM62.4741 36.192C59.6581 36.192 58.2021 34.256 58.2021 30.512C58.2021 27.184 59.5621 24.848 62.4741 24.848C65.3861 24.848 66.7621 27.2 66.7621 30.512C66.7621 33.872 65.3861 36.192 62.4741 36.192ZM62.4741 34.352C63.0661 34.352 63.4821 34.16 63.7701 33.76C64.2181 33.152 64.3461 32.064 64.3461 30.512C64.3461 27.968 64.0101 26.72 62.4741 26.72C61.8661 26.72 61.4501 26.912 61.1621 27.312C60.7301 27.904 60.6181 28.976 60.6181 30.512C60.6181 33.152 60.9701 34.352 62.4741 34.352Z" fill="white"/>
<rect y="66" width="106" height="28" rx="14" fill="#121212"/>
<rect x="0.5" y="66.5" width="105" height="27" rx="13.5" stroke="#888888" stroke-opacity="0.25"/>
<path d="M16.2906 84H15.1986V76.548H12.4026V75.6H19.0866V76.548H16.2906V84ZM21.0575 76.872H19.9775V75.6H21.0575V76.872ZM21.0575 84H19.9775V78H21.0575V84ZM25.6137 77.856C27.2097 77.856 28.3737 79.044 28.3737 81C28.3737 82.896 27.2697 84.144 25.6497 84.144C24.8097 84.144 24.1737 83.856 23.7177 83.22V86.4H22.6377V78H23.7177V78.876C24.1617 78.192 24.8097 77.856 25.6137 77.856ZM26.6337 82.872C27.0297 82.488 27.1857 81.852 27.1857 81C27.1857 79.596 26.8257 78.708 25.4217 78.708C24.8577 78.708 24.4257 78.888 24.1377 79.26C23.8377 79.644 23.6817 80.22 23.6817 80.988C23.6817 82.104 23.9337 83.28 25.3977 83.28C25.9497 83.28 26.3577 83.136 26.6337 82.872ZM33.9218 84.144C32.3738 84.144 31.4738 83.22 31.4738 81.648V80.94H32.5658V81.48C32.5658 82.416 32.7458 83.208 33.9458 83.208C35.0018 83.208 35.1938 82.488 35.1938 81.636V75.6H36.2858V81.804C36.2858 82.86 35.7938 84.144 33.9218 84.144ZM43.3787 83.112L43.4027 84C43.1747 84.036 42.9707 84.048 42.7307 84.048C42.0707 84.048 41.7107 83.736 41.6507 83.112C41.3147 83.796 40.6547 84.144 39.6347 84.144C38.6267 84.144 37.6187 83.592 37.6187 82.416C37.6187 81.12 38.7107 80.76 39.6587 80.58L41.6387 80.196C41.6387 79.656 41.6147 79.356 41.4347 79.104C41.2667 78.864 40.8707 78.708 40.3427 78.708C39.2987 78.708 38.8787 79.092 38.8787 80.004L37.8227 79.86C37.8467 79.14 38.0987 78.612 38.5667 78.3C38.9987 78.012 39.6347 77.856 40.4027 77.856C41.9147 77.856 42.6827 78.528 42.6827 79.836V82.704C42.6827 83.016 42.6827 83.16 43.0307 83.16C43.1267 83.16 43.2227 83.148 43.3787 83.112ZM41.6387 81.732V81L39.8267 81.396C39.1907 81.54 38.7227 81.72 38.7227 82.404C38.7227 82.968 39.2147 83.28 39.8027 83.28C41.1107 83.28 41.6387 82.596 41.6387 81.732ZM47.3511 77.868C47.4471 77.856 47.6751 77.856 47.7591 77.856L47.7351 78.876C47.6631 78.864 47.5671 78.864 47.4591 78.864C46.3191 78.864 45.4911 79.224 45.4911 81.156V84H44.4111V78H45.4911V79.056C45.6591 78.48 46.3671 77.94 47.3511 77.868ZM52.4725 84H51.4045V78.9H50.5405V78H51.4045V76.944C51.4045 75.972 51.8965 75.54 53.0125 75.54C53.2645 75.54 53.5405 75.576 53.6725 75.6L53.6485 76.56C53.4565 76.524 53.2045 76.5 53.0725 76.5C52.6645 76.5 52.4725 76.572 52.4725 76.968V78H53.6965V78.9H52.4725V84ZM57.5582 77.868C57.6542 77.856 57.8822 77.856 57.9662 77.856L57.9422 78.876C57.8702 78.864 57.7742 78.864 57.6662 78.864C56.5262 78.864 55.6982 79.224 55.6982 81.156V84H54.6182V78H55.6982V79.056C55.8662 78.48 56.5742 77.94 57.5582 77.868ZM61.2543 84.144C59.3823 84.144 58.2543 82.956 58.2543 81C58.2543 79.176 59.3943 77.856 61.2543 77.856C63.0903 77.856 64.2423 79.188 64.2423 81C64.2423 82.884 63.0543 84.144 61.2543 84.144ZM61.2543 83.292C61.8663 83.292 62.2983 83.112 62.5863 82.788C62.9343 82.392 63.0783 81.78 63.0783 81C63.0783 80.22 62.9343 79.596 62.5743 79.2C62.2863 78.888 61.8663 78.708 61.2543 78.708C60.6663 78.708 60.2343 78.864 59.9463 79.164C59.5623 79.56 59.4183 80.196 59.4183 81C59.4183 81.804 59.5623 82.44 59.9463 82.836C60.2343 83.136 60.6543 83.292 61.2543 83.292ZM72.2857 77.856C73.6297 77.856 74.3617 78.624 74.3617 80.112V84H73.2577V80.472C73.2577 79.908 73.2577 79.416 72.8977 79.08C72.5617 78.756 72.1177 78.744 71.8897 78.744C71.5297 78.744 71.2297 78.864 71.0017 79.068C70.7137 79.332 70.4497 79.728 70.4497 80.688V84H69.3457V80.472C69.3457 79.908 69.3457 79.416 68.9857 79.08C68.6497 78.756 68.2057 78.744 67.9777 78.744C67.6057 78.744 67.3057 78.876 67.0897 79.068C66.8017 79.332 66.5377 79.728 66.5377 80.688V84H65.4697V78H66.5377V78.9C66.6097 78.72 66.7297 78.516 66.9817 78.312C67.2577 78.084 67.6897 77.856 68.3857 77.856C69.3337 77.856 70.0177 78.324 70.3057 79.128C70.4257 78.804 70.6057 78.552 70.8817 78.312C71.1697 78.072 71.5537 77.856 72.2857 77.856ZM81.9673 84.144C79.8313 84.144 78.6913 83.112 78.6913 81.228V75.6H79.7833V81.228C79.7833 82.56 80.8033 83.184 81.9673 83.184C83.1313 83.184 84.1633 82.56 84.1633 81.228V75.6H85.2553V81.228C85.2553 83.112 84.1033 84.144 81.9673 84.144ZM93.7899 84H92.4339L89.4579 79.872L88.2579 81.084V84H87.1659V75.6H88.2579V79.644L92.2539 75.6H93.7059L90.2379 79.08L93.7899 84Z" fill="#888888"/>
</svg>
