<svg width="126" height="94" viewBox="0 0 126 94" fill="none" xmlns="http://www.w3.org/2000/svg">
<rect x="33" width="60" height="60" rx="30" fill="#121212"/>
<rect x="33.5" y="0.5" width="59" height="59" rx="29.5" stroke="#888888" stroke-opacity="0.25"/>
<path d="M63.1183 32.736C63.1183 35.152 61.1823 36.016 59.1023 36.16V37.088H57.6143V36.16C55.3903 35.936 53.5983 34.736 53.5183 32.352L55.9183 32.096C55.9343 33.36 56.5903 34.096 57.6143 34.336V31.2C55.4383 30.736 53.8063 29.952 53.8063 27.888C53.8063 25.808 55.6463 24.8 57.6143 24.64V23.712H59.1023V24.656C61.0703 24.864 62.4943 25.872 62.7663 28.128L60.4143 28.496C60.3503 27.376 59.8863 26.72 59.1023 26.464V29.312C61.3903 29.76 63.1183 30.432 63.1183 32.736ZM56.1263 27.76C56.1263 28.4 56.6543 28.752 57.6143 29.008V26.368C56.6863 26.496 56.1263 26.976 56.1263 27.76ZM59.1023 31.504V34.384C60.0783 34.256 60.7823 33.776 60.7823 32.8C60.7823 31.984 60.1423 31.728 59.1023 31.504ZM70.4016 30.048C71.8416 30.416 72.3536 31.424 72.3536 32.896C72.3536 35.056 70.6096 36.192 68.2736 36.192C65.7776 36.192 64.1776 34.944 64.1776 32.912C64.1776 31.408 64.7696 30.464 66.1456 30.048C65.1856 29.632 64.6096 28.912 64.6096 27.744C64.6096 26.208 65.7776 24.848 68.2896 24.848C70.7856 24.848 71.9216 26.208 71.9216 27.744C71.9216 28.896 71.3136 29.648 70.4016 30.048ZM68.2736 26.592C67.2656 26.592 66.8816 27.136 66.8816 27.936C66.8816 28.704 67.3136 29.312 68.2736 29.312C69.2176 29.312 69.6496 28.704 69.6496 27.936C69.6496 27.12 69.2336 26.592 68.2736 26.592ZM68.2736 34.448C69.4256 34.448 70.0176 33.808 70.0176 32.72C70.0176 31.728 69.4256 31.056 68.2736 31.056C67.1696 31.056 66.5136 31.68 66.5136 32.72C66.5136 33.808 67.1216 34.448 68.2736 34.448Z" fill="white"/>
<rect y="66" width="126" height="28" rx="14" fill="#121212"/>
<rect x="0.5" y="66.5" width="125" height="27" rx="13.5" stroke="#888888" stroke-opacity="0.25"/>
<path d="M19.071 81.9C19.071 82.872 19.143 83.448 19.551 83.964L19.539 84H18.351C18.075 83.58 17.991 83.184 17.991 82.02C17.991 80.904 17.547 80.52 16.071 80.52H14.199V84H13.119V75.6H15.963C17.451 75.6 19.275 75.792 19.275 78.072C19.275 79.104 18.711 79.872 17.979 80.124C18.771 80.424 19.071 81.036 19.071 81.9ZM14.199 79.596H15.951C16.983 79.596 18.207 79.512 18.207 78.12C18.207 76.536 16.983 76.536 15.963 76.536H14.199V79.596ZM25.6269 79.044C25.9869 79.62 26.1789 80.472 26.1309 81.324H21.5829C21.6069 82.644 22.1589 83.28 23.2869 83.28C24.3069 83.28 24.8589 82.848 25.0029 81.936L26.0469 82.02C25.7829 83.424 24.8229 84.144 23.2989 84.144C22.3749 84.144 21.6549 83.868 21.1389 83.268C20.6349 82.704 20.4069 81.924 20.4069 80.988C20.4069 80.1 20.6589 79.32 21.1629 78.756C21.6909 78.156 22.4229 77.856 23.2869 77.856C24.2349 77.856 25.1349 78.264 25.6269 79.044ZM23.2989 78.732C22.6269 78.732 22.1229 78.984 21.8829 79.38C21.6669 79.74 21.5949 80.148 21.5949 80.448H25.0269C25.0149 80.124 24.8949 79.668 24.7029 79.38C24.3909 78.924 23.9469 78.732 23.2989 78.732ZM29.9685 84.144C28.1325 84.144 26.9925 82.968 26.9925 81C26.9925 79.152 28.1325 77.856 29.9685 77.856C31.4925 77.856 32.3565 78.768 32.5965 79.908L31.5885 80.1C31.4085 79.404 31.0485 78.72 29.9685 78.72C29.2845 78.72 28.8525 78.924 28.5765 79.284C28.2765 79.692 28.1805 80.292 28.1805 81C28.1805 82.356 28.5165 83.28 29.9685 83.28C30.8925 83.28 31.3725 82.92 31.6005 82.056L32.6205 82.164C32.4045 83.376 31.3605 84.144 29.9685 84.144ZM37.7715 81.372V78H38.8515V84H37.7715V83.1C37.4475 83.784 36.7755 84.144 35.9235 84.144C35.1435 84.144 34.5795 83.928 34.1475 83.472C33.6795 82.98 33.6675 82.224 33.6675 81.588V78H34.7835V81.528C34.7835 82.08 34.7715 82.548 35.1315 82.896C35.4795 83.232 35.8755 83.244 36.2235 83.244C36.7635 83.244 37.7715 83.112 37.7715 81.372ZM43.3707 77.868C43.4667 77.856 43.6947 77.856 43.7787 77.856L43.7547 78.876C43.6827 78.864 43.5867 78.864 43.4787 78.864C42.3387 78.864 41.5107 79.224 41.5107 81.156V84H40.4307V78H41.5107V79.056C41.6787 78.48 42.3867 77.94 43.3707 77.868ZM47.6011 77.868C47.6971 77.856 47.9251 77.856 48.0091 77.856L47.9851 78.876C47.9131 78.864 47.8171 78.864 47.7091 78.864C46.5691 78.864 45.7411 79.224 45.7411 81.156V84H44.6611V78H45.7411V79.056C45.9091 78.48 46.6171 77.94 47.6011 77.868ZM49.9716 76.872H48.8916V75.6H49.9716V76.872ZM49.9716 84H48.8916V78H49.9716V84ZM56.2678 78.528C56.7238 79.02 56.7358 79.8 56.7358 80.436V84H55.6198V80.496C55.6198 79.944 55.6318 79.452 55.2598 79.104C54.9238 78.768 54.5278 78.756 54.1918 78.756C53.6638 78.756 52.6318 78.972 52.6318 80.688V84H51.5518V78H52.6318V78.912C52.9318 78.24 53.5198 77.856 54.4798 77.856C55.2718 77.856 55.8358 78.072 56.2678 78.528ZM62.5509 78.84V78H63.6309V83.868C63.6309 85.476 62.5149 86.46 60.7509 86.46C59.5629 86.46 58.2549 85.944 58.1949 84.432L59.2269 84.36C59.2749 85.356 59.9109 85.62 60.8709 85.62C61.8429 85.62 62.5509 85.032 62.5509 83.94V82.92C62.1069 83.616 61.4829 83.952 60.6549 83.952C58.9989 83.952 57.9069 82.716 57.9069 80.844C57.9069 79.068 59.0109 77.856 60.6189 77.856C61.5189 77.856 62.1309 78.204 62.5509 78.84ZM62.0589 82.596C62.4549 82.164 62.5989 81.492 62.5989 80.844C62.5989 79.428 61.9749 78.72 60.8469 78.72C60.2349 78.72 59.8149 78.888 59.5389 79.212C59.2029 79.572 59.0829 80.136 59.0829 80.844C59.0829 82.248 59.4429 83.088 60.8229 83.088C61.3869 83.088 61.7829 82.896 62.0589 82.596ZM69.1834 84H68.1034V75.6H70.9354C72.4354 75.6 74.2474 75.864 74.2474 78.144C74.2474 80.352 72.4354 80.592 70.9234 80.592H69.1834V84ZM69.1834 76.536V79.668H70.9234C71.9554 79.668 73.1914 79.596 73.1914 78.144C73.1914 76.56 71.9554 76.536 70.9354 76.536H69.1834ZM80.6599 83.112L80.6839 84C80.4559 84.036 80.2519 84.048 80.0119 84.048C79.3519 84.048 78.9919 83.736 78.9319 83.112C78.5959 83.796 77.9359 84.144 76.9159 84.144C75.9079 84.144 74.8999 83.592 74.8999 82.416C74.8999 81.12 75.9919 80.76 76.9399 80.58L78.9199 80.196C78.9199 79.656 78.8959 79.356 78.7159 79.104C78.5479 78.864 78.1519 78.708 77.6239 78.708C76.5799 78.708 76.1599 79.092 76.1599 80.004L75.1039 79.86C75.1279 79.14 75.3799 78.612 75.8479 78.3C76.2799 78.012 76.9159 77.856 77.6839 77.856C79.1959 77.856 79.9639 78.528 79.9639 79.836V82.704C79.9639 83.016 79.9639 83.16 80.3119 83.16C80.4079 83.16 80.5039 83.148 80.6599 83.112ZM78.9199 81.732V81L77.1079 81.396C76.4719 81.54 76.0039 81.72 76.0039 82.404C76.0039 82.968 76.4959 83.28 77.0839 83.28C78.3919 83.28 78.9199 82.596 78.9199 81.732ZM84.1803 81.24L85.3323 78H86.4603L84.0123 84.552C83.5203 85.872 83.0883 86.46 82.2603 86.46C81.9723 86.46 81.6483 86.424 81.3483 86.34L81.3723 85.332C81.5883 85.404 81.8403 85.464 82.1163 85.464C82.5603 85.464 82.7643 84.972 83.1603 83.952L80.8203 78H81.9723L83.1123 81.24C83.2563 81.648 83.4483 82.236 83.6403 82.836C83.8803 82.104 84.0123 81.72 84.1803 81.24ZM94.1451 77.856C95.4891 77.856 96.2211 78.624 96.2211 80.112V84H95.1171V80.472C95.1171 79.908 95.1171 79.416 94.7571 79.08C94.4211 78.756 93.9771 78.744 93.7491 78.744C93.3891 78.744 93.0891 78.864 92.8611 79.068C92.5731 79.332 92.3091 79.728 92.3091 80.688V84H91.2051V80.472C91.2051 79.908 91.2051 79.416 90.8451 79.08C90.5091 78.756 90.0651 78.744 89.8371 78.744C89.4651 78.744 89.1651 78.876 88.9491 79.068C88.6611 79.332 88.3971 79.728 88.3971 80.688V84H87.3291V78H88.3971V78.9C88.4691 78.72 88.5891 78.516 88.8411 78.312C89.1171 78.084 89.5491 77.856 90.2451 77.856C91.1931 77.856 91.8771 78.324 92.1651 79.128C92.2851 78.804 92.4651 78.552 92.7411 78.312C93.0291 78.072 93.4131 77.856 94.1451 77.856ZM102.619 79.044C102.979 79.62 103.171 80.472 103.123 81.324H98.5751C98.5991 82.644 99.1511 83.28 100.279 83.28C101.299 83.28 101.851 82.848 101.995 81.936L103.039 82.02C102.775 83.424 101.815 84.144 100.291 84.144C99.3671 84.144 98.6471 83.868 98.1311 83.268C97.6271 82.704 97.3991 81.924 97.3991 80.988C97.3991 80.1 97.6511 79.32 98.1551 78.756C98.6831 78.156 99.4151 77.856 100.279 77.856C101.227 77.856 102.127 78.264 102.619 79.044ZM100.291 78.732C99.6191 78.732 99.1151 78.984 98.8751 79.38C98.6591 79.74 98.5871 80.148 98.5871 80.448H102.019C102.007 80.124 101.887 79.668 101.695 79.38C101.383 78.924 100.939 78.732 100.291 78.732ZM109.061 78.528C109.517 79.02 109.529 79.8 109.529 80.436V84H108.413V80.496C108.413 79.944 108.425 79.452 108.053 79.104C107.717 78.768 107.321 78.756 106.985 78.756C106.457 78.756 105.425 78.972 105.425 80.688V84H104.345V78H105.425V78.912C105.725 78.24 106.313 77.856 107.273 77.856C108.065 77.856 108.629 78.072 109.061 78.528ZM112.933 84.06C111.817 84.06 111.325 83.628 111.325 82.656V78.9H110.461V78H111.325V76.332H112.393V78H113.617V78.9H112.393V82.62C112.393 83.016 112.573 83.088 113.017 83.088C113.149 83.088 113.365 83.064 113.569 83.028L113.593 84C113.401 84.036 113.149 84.06 112.933 84.06Z" fill="#888888"/>
</svg>
