<svg width="92" height="94" viewBox="0 0 92 94" fill="none" xmlns="http://www.w3.org/2000/svg">
<rect x="16" width="60" height="60" rx="30" fill="#121212"/>
<rect x="16.5" y="0.5" width="59" height="59" rx="29.5" stroke="#888888" stroke-opacity="0.25"/>
<path d="M34.3726 24.8H36.9646L33.9726 30.352H35.7166V31.824H33.4286V32.72H35.7006V34.192H33.4286V36H31.0126V34.192H28.7246V32.72H31.0126V31.824H28.7406V30.352H30.4686L27.4766 24.8H30.0846L31.2686 27.28C31.5886 27.952 31.8766 28.672 32.2126 29.44C32.5646 28.656 32.8686 27.92 33.2046 27.232L34.3726 24.8ZM37.5849 26.944V25.04H45.0889V26.912C42.7209 29.104 41.5049 32.4 41.3289 36H38.9449C39.1529 32.688 40.3209 29.376 42.7049 26.944H37.5849ZM50.1304 36.192C47.3144 36.192 45.8584 34.256 45.8584 30.512C45.8584 27.184 47.2184 24.848 50.1304 24.848C53.0424 24.848 54.4184 27.2 54.4184 30.512C54.4184 33.872 53.0424 36.192 50.1304 36.192ZM50.1304 34.352C50.7224 34.352 51.1384 34.16 51.4264 33.76C51.8744 33.152 52.0024 32.064 52.0024 30.512C52.0024 27.968 51.6664 26.72 50.1304 26.72C49.5224 26.72 49.1064 26.912 48.8184 27.312C48.3864 27.904 48.2744 28.976 48.2744 30.512C48.2744 33.152 48.6264 34.352 50.1304 34.352ZM59.9429 36.192C57.1269 36.192 55.6709 34.256 55.6709 30.512C55.6709 27.184 57.0309 24.848 59.9429 24.848C62.8549 24.848 64.2309 27.2 64.2309 30.512C64.2309 33.872 62.8549 36.192 59.9429 36.192ZM59.9429 34.352C60.5349 34.352 60.9509 34.16 61.2389 33.76C61.6869 33.152 61.8149 32.064 61.8149 30.512C61.8149 27.968 61.4789 26.72 59.9429 26.72C59.3349 26.72 58.9189 26.912 58.6309 27.312C58.1989 27.904 58.0869 28.976 58.0869 30.512C58.0869 33.152 58.4389 34.352 59.9429 34.352Z" fill="white"/>
<rect y="66" width="92" height="28" rx="14" fill="#121212"/>
<rect x="0.5" y="66.5" width="91" height="27" rx="13.5" stroke="#888888" stroke-opacity="0.25"/>
<path d="M16.2608 84.144C14.4128 84.144 12.7928 83.22 12.7928 81.264L13.9448 81.144C13.9448 82.488 14.9288 83.232 16.2248 83.232C17.4608 83.232 18.5168 82.86 18.5168 81.636C18.5168 80.472 17.0288 80.496 15.7688 80.196C14.4608 79.884 13.0208 79.428 13.0208 77.82C13.0208 76.104 14.6288 75.456 15.9968 75.456C17.7368 75.456 19.1648 76.14 19.3448 78.132L18.2168 78.336C18.1928 77.076 17.3528 76.356 15.9728 76.356C15.1568 76.356 14.1368 76.788 14.1368 77.772C14.1368 78.72 15.4088 79.02 16.5488 79.2C18.2168 79.464 19.6448 79.764 19.6448 81.552C19.6448 83.592 17.8808 84.144 16.2608 84.144ZM24.8848 81.372V78H25.9648V84H24.8848V83.1C24.5608 83.784 23.8888 84.144 23.0368 84.144C22.2568 84.144 21.6928 83.928 21.2608 83.472C20.7928 82.98 20.7808 82.224 20.7808 81.588V78H21.8968V81.528C21.8968 82.08 21.8848 82.548 22.2448 82.896C22.5928 83.232 22.9888 83.244 23.3368 83.244C23.8768 83.244 24.8848 83.112 24.8848 81.372ZM30.556 77.844C32.176 77.844 33.28 79.104 33.28 81C33.28 82.956 32.116 84.144 30.52 84.144C29.716 84.144 29.068 83.808 28.624 83.124V84H27.544V75.6H28.624V78.78C29.08 78.144 29.716 77.844 30.556 77.844ZM31.636 82.824C31.984 82.416 32.092 81.792 32.092 81C32.092 79.56 31.648 78.696 30.304 78.696C29.668 78.696 29.26 78.924 29.008 79.272C28.672 79.716 28.588 80.376 28.588 81.012C28.588 82.524 29.176 83.316 30.328 83.316C30.94 83.316 31.36 83.136 31.636 82.824ZM36.6766 84.144C35.3326 84.144 34.1206 83.52 34.1326 82.032L35.1166 81.936C35.1046 82.776 35.7166 83.292 36.6526 83.292C37.6366 83.292 38.1286 82.956 38.1286 82.32C38.1286 81.636 37.0246 81.552 36.1966 81.336C35.2246 81.084 34.2646 80.796 34.2646 79.608C34.2646 78.36 35.4166 77.856 36.4846 77.856C37.7566 77.856 38.8606 78.36 38.9926 79.824L37.9846 79.98C37.9606 79.152 37.4206 78.708 36.4726 78.708C35.8846 78.708 35.2726 78.984 35.2726 79.536C35.2726 80.088 35.9926 80.244 36.7126 80.4C37.9126 80.652 39.1486 80.856 39.1486 82.26C39.1486 83.724 37.8886 84.144 36.6766 84.144ZM42.9803 84.144C41.1443 84.144 40.0043 82.968 40.0043 81C40.0043 79.152 41.1443 77.856 42.9803 77.856C44.5043 77.856 45.3683 78.768 45.6083 79.908L44.6003 80.1C44.4203 79.404 44.0603 78.72 42.9803 78.72C42.2963 78.72 41.8643 78.924 41.5883 79.284C41.2883 79.692 41.1923 80.292 41.1923 81C41.1923 82.356 41.5283 83.28 42.9803 83.28C43.9043 83.28 44.3843 82.92 44.6123 82.056L45.6323 82.164C45.4163 83.376 44.3723 84.144 42.9803 84.144ZM49.6793 77.868C49.7753 77.856 50.0033 77.856 50.0873 77.856L50.0633 78.876C49.9913 78.864 49.8953 78.864 49.7873 78.864C48.6473 78.864 47.8193 79.224 47.8193 81.156V84H46.7393V78H47.8193V79.056C47.9873 78.48 48.6953 77.94 49.6793 77.868ZM52.0497 76.872H50.9697V75.6H52.0497V76.872ZM52.0497 84H50.9697V78H52.0497V84ZM56.6059 77.856C58.2019 77.856 59.3659 79.044 59.3659 81C59.3659 82.896 58.2619 84.144 56.6419 84.144C55.8019 84.144 55.1659 83.856 54.7099 83.22V86.4H53.6299V78H54.7099V78.876C55.1539 78.192 55.8019 77.856 56.6059 77.856ZM57.6259 82.872C58.0219 82.488 58.1779 81.852 58.1779 81C58.1779 79.596 57.8179 78.708 56.4139 78.708C55.8499 78.708 55.4179 78.888 55.1299 79.26C54.8299 79.644 54.6739 80.22 54.6739 80.988C54.6739 82.104 54.9259 83.28 56.3899 83.28C56.9419 83.28 57.3499 83.136 57.6259 82.872ZM62.4528 84.06C61.3368 84.06 60.8448 83.628 60.8448 82.656V78.9H59.9808V78H60.8448V76.332H61.9128V78H63.1368V78.9H61.9128V82.62C61.9128 83.016 62.0928 83.088 62.5368 83.088C62.6688 83.088 62.8848 83.064 63.0888 83.028L63.1128 84C62.9208 84.036 62.6688 84.06 62.4528 84.06ZM65.2685 76.872H64.1885V75.6H65.2685V76.872ZM65.2685 84H64.1885V78H65.2685V84ZM69.4886 84.144C67.6166 84.144 66.4886 82.956 66.4886 81C66.4886 79.176 67.6286 77.856 69.4886 77.856C71.3246 77.856 72.4766 79.188 72.4766 81C72.4766 82.884 71.2886 84.144 69.4886 84.144ZM69.4886 83.292C70.1006 83.292 70.5326 83.112 70.8206 82.788C71.1686 82.392 71.3126 81.78 71.3126 81C71.3126 80.22 71.1686 79.596 70.8086 79.2C70.5206 78.888 70.1006 78.708 69.4886 78.708C68.9006 78.708 68.4686 78.864 68.1806 79.164C67.7966 79.56 67.6526 80.196 67.6526 81C67.6526 81.804 67.7966 82.44 68.1806 82.836C68.4686 83.136 68.8886 83.292 69.4886 83.292ZM78.4201 78.528C78.8761 79.02 78.8881 79.8 78.8881 80.436V84H77.7721V80.496C77.7721 79.944 77.7841 79.452 77.4121 79.104C77.0761 78.768 76.6801 78.756 76.3441 78.756C75.8161 78.756 74.7841 78.972 74.7841 80.688V84H73.7041V78H74.7841V78.912C75.0841 78.24 75.6721 77.856 76.6321 77.856C77.4241 77.856 77.9881 78.072 78.4201 78.528Z" fill="#888888"/>
</svg>
