<svg width="133" height="94" viewBox="0 0 133 94" fill="none" xmlns="http://www.w3.org/2000/svg">
<rect x="36.5" width="60" height="60" rx="30" fill="#121212"/>
<rect x="37" y="0.5" width="59" height="59" rx="29.5" stroke="#888888" stroke-opacity="0.25"/>
<path fill-rule="evenodd" clip-rule="evenodd" d="M78.5 30.6496C78.5 29.1115 77.6735 27.8975 76.093 27.8975C74.5067 27.8975 73.5462 29.1113 73.5462 30.6373C73.5462 32.446 74.6796 33.3592 76.3062 33.3592C77.0996 33.3592 77.6996 33.1971 78.1529 32.9687V31.767C77.6996 31.9713 77.1796 32.0973 76.5196 32.0973C75.8729 32.0973 75.2996 31.8929 75.2262 31.1841H78.4858C78.4858 31.1057 78.4991 30.7936 78.4991 30.6494L78.5 30.6496ZM75.2094 30.0791C75.2094 29.4001 75.6693 29.1178 76.0895 29.1178C76.4961 29.1178 76.9297 29.4001 76.9297 30.0791H75.2094ZM70.9763 27.898C70.3229 27.898 69.9033 28.1743 69.6695 28.3666L69.5825 27.9942H68.1131V35L69.7797 34.6817L69.7864 32.9812C70.0265 33.1375 70.3797 33.3597 70.9667 33.3597C72.16 33.3597 73.2467 32.4972 73.2467 30.5898C73.24 28.8473 72.14 27.8977 70.9731 27.8977L70.9763 27.898ZM70.5761 32.038C70.1828 32.038 69.9497 31.9117 69.7893 31.7557L69.7826 29.5263C69.9561 29.352 70.1959 29.232 70.5761 29.232C71.1828 29.232 71.6027 29.8449 71.6027 30.6319C71.6027 31.4369 71.1894 32.038 70.5761 32.038ZM65.8201 27.5436L67.4934 27.2195V26L65.8201 26.3183V27.5436ZM65.8201 28.0002H67.4934V33.2575H65.8201V28.0002ZM64.0265 28.4445L63.9197 28.0002H62.4796V33.258H64.1462V29.6946C64.5395 29.232 65.2062 29.3162 65.4129 29.3823V28.0005C65.1995 27.9283 64.42 27.7958 64.0265 28.4445ZM60.6932 26.6934L59.0666 27.0062L59.0599 31.819C59.0599 32.7081 59.8 33.3631 60.7866 33.3631C61.3332 33.3631 61.7331 33.2729 61.9533 33.1645V31.9447C61.7398 32.0231 60.6865 32.2991 60.6865 31.4099V29.2801H61.9533V28.0002H60.686L60.6932 26.6934ZM56.1866 29.5234C56.1866 29.289 56.4001 29.1993 56.7533 29.1993C57.3299 29.2104 57.8957 29.3419 58.4063 29.5835V28.1745C57.853 27.9759 57.3063 27.8983 56.7533 27.8983C55.3999 27.8983 54.5 28.5352 54.5 29.5987C54.5 31.257 57.0334 30.9925 57.0334 31.7079C57.0334 31.9841 56.7666 32.0743 56.3934 32.0743C55.8401 32.0743 55.1334 31.8699 54.5734 31.5934V33.0231C55.1934 33.2635 55.8204 33.3628 56.3934 33.3628C57.7802 33.3628 58.7337 32.7439 58.7337 31.6684C58.727 29.8781 56.1866 30.1964 56.1866 29.5234Z" fill="#F8F4EB"/>
<rect y="66" width="133" height="28" rx="14" fill="#121212"/>
<rect x="0.5" y="66.5" width="132" height="27" rx="13.5" stroke="#888888" stroke-opacity="0.25"/>
<path d="M14.201 84H13.121V75.6H15.953C17.453 75.6 19.265 75.864 19.265 78.144C19.265 80.352 17.453 80.592 15.941 80.592H14.201V84ZM14.201 76.536V79.668H15.941C16.973 79.668 18.209 79.596 18.209 78.144C18.209 76.56 16.973 76.536 15.953 76.536H14.201ZM25.6775 83.112L25.7015 84C25.4735 84.036 25.2695 84.048 25.0295 84.048C24.3695 84.048 24.0095 83.736 23.9495 83.112C23.6135 83.796 22.9535 84.144 21.9335 84.144C20.9255 84.144 19.9175 83.592 19.9175 82.416C19.9175 81.12 21.0095 80.76 21.9575 80.58L23.9375 80.196C23.9375 79.656 23.9135 79.356 23.7335 79.104C23.5655 78.864 23.1695 78.708 22.6415 78.708C21.5975 78.708 21.1775 79.092 21.1775 80.004L20.1215 79.86C20.1455 79.14 20.3975 78.612 20.8655 78.3C21.2975 78.012 21.9335 77.856 22.7015 77.856C24.2135 77.856 24.9815 78.528 24.9815 79.836V82.704C24.9815 83.016 24.9815 83.16 25.3295 83.16C25.4255 83.16 25.5215 83.148 25.6775 83.112ZM23.9375 81.732V81L22.1255 81.396C21.4895 81.54 21.0215 81.72 21.0215 82.404C21.0215 82.968 21.5135 83.28 22.1015 83.28C23.4095 83.28 23.9375 82.596 23.9375 81.732ZM29.1979 81.24L30.3499 78H31.4779L29.0299 84.552C28.5379 85.872 28.1059 86.46 27.2779 86.46C26.9899 86.46 26.6659 86.424 26.3659 86.34L26.3899 85.332C26.6059 85.404 26.8579 85.464 27.1339 85.464C27.5779 85.464 27.7819 84.972 28.1779 83.952L25.8379 78H26.9899L28.1299 81.24C28.2739 81.648 28.4659 82.236 28.6579 82.836C28.8979 82.104 29.0299 81.72 29.1979 81.24ZM39.1627 77.856C40.5067 77.856 41.2387 78.624 41.2387 80.112V84H40.1347V80.472C40.1347 79.908 40.1347 79.416 39.7747 79.08C39.4387 78.756 38.9947 78.744 38.7667 78.744C38.4067 78.744 38.1067 78.864 37.8787 79.068C37.5907 79.332 37.3267 79.728 37.3267 80.688V84H36.2227V80.472C36.2227 79.908 36.2227 79.416 35.8627 79.08C35.5267 78.756 35.0827 78.744 34.8547 78.744C34.4827 78.744 34.1827 78.876 33.9667 79.068C33.6787 79.332 33.4147 79.728 33.4147 80.688V84H32.3467V78H33.4147V78.9C33.4867 78.72 33.6067 78.516 33.8587 78.312C34.1347 78.084 34.5667 77.856 35.2627 77.856C36.2107 77.856 36.8947 78.324 37.1827 79.128C37.3027 78.804 37.4827 78.552 37.7587 78.312C38.0467 78.072 38.4307 77.856 39.1627 77.856ZM47.6367 79.044C47.9967 79.62 48.1887 80.472 48.1407 81.324H43.5927C43.6167 82.644 44.1687 83.28 45.2967 83.28C46.3167 83.28 46.8687 82.848 47.0127 81.936L48.0567 82.02C47.7927 83.424 46.8327 84.144 45.3087 84.144C44.3847 84.144 43.6647 83.868 43.1487 83.268C42.6447 82.704 42.4167 81.924 42.4167 80.988C42.4167 80.1 42.6687 79.32 43.1727 78.756C43.7007 78.156 44.4327 77.856 45.2967 77.856C46.2447 77.856 47.1447 78.264 47.6367 79.044ZM45.3087 78.732C44.6367 78.732 44.1327 78.984 43.8927 79.38C43.6767 79.74 43.6047 80.148 43.6047 80.448H47.0367C47.0247 80.124 46.9047 79.668 46.7127 79.38C46.4007 78.924 45.9567 78.732 45.3087 78.732ZM54.0783 78.528C54.5343 79.02 54.5463 79.8 54.5463 80.436V84H53.4303V80.496C53.4303 79.944 53.4423 79.452 53.0703 79.104C52.7343 78.768 52.3383 78.756 52.0023 78.756C51.4743 78.756 50.4423 78.972 50.4423 80.688V84H49.3623V78H50.4423V78.912C50.7423 78.24 51.3303 77.856 52.2903 77.856C53.0823 77.856 53.6463 78.072 54.0783 78.528ZM57.9508 84.06C56.8348 84.06 56.3428 83.628 56.3428 82.656V78.9H55.4788V78H56.3428V76.332H57.4108V78H58.6348V78.9H57.4108V82.62C57.4108 83.016 57.5908 83.088 58.0348 83.088C58.1668 83.088 58.3828 83.064 58.5868 83.028L58.6108 84C58.4188 84.036 58.1668 84.06 57.9508 84.06ZM63.6541 84H62.5741V75.6H65.4061C66.9061 75.6 68.7181 75.864 68.7181 78.144C68.7181 80.352 66.9061 80.592 65.3941 80.592H63.6541V84ZM63.6541 76.536V79.668H65.3941C66.4261 79.668 67.6621 79.596 67.6621 78.144C67.6621 76.56 66.4261 76.536 65.4061 76.536H63.6541ZM72.7633 77.868C72.8593 77.856 73.0873 77.856 73.1713 77.856L73.1473 78.876C73.0753 78.864 72.9793 78.864 72.8713 78.864C71.7313 78.864 70.9033 79.224 70.9033 81.156V84H69.8232V78H70.9033V79.056C71.0713 78.48 71.7793 77.94 72.7633 77.868ZM76.4593 84.144C74.5873 84.144 73.4593 82.956 73.4593 81C73.4593 79.176 74.5993 77.856 76.4593 77.856C78.2953 77.856 79.4473 79.188 79.4473 81C79.4473 82.884 78.2593 84.144 76.4593 84.144ZM76.4593 83.292C77.0713 83.292 77.5033 83.112 77.7913 82.788C78.1393 82.392 78.2833 81.78 78.2833 81C78.2833 80.22 78.1393 79.596 77.7793 79.2C77.4913 78.888 77.0713 78.708 76.4593 78.708C75.8713 78.708 75.4393 78.864 75.1513 79.164C74.7673 79.56 74.6233 80.196 74.6233 81C74.6233 81.804 74.7673 82.44 75.1513 82.836C75.4393 83.136 75.8593 83.292 76.4593 83.292ZM83.2908 84.144C81.4548 84.144 80.3148 82.968 80.3148 81C80.3148 79.152 81.4548 77.856 83.2908 77.856C84.8148 77.856 85.6788 78.768 85.9188 79.908L84.9108 80.1C84.7308 79.404 84.3708 78.72 83.2908 78.72C82.6068 78.72 82.1748 78.924 81.8988 79.284C81.5988 79.692 81.5028 80.292 81.5028 81C81.5028 82.356 81.8388 83.28 83.2908 83.28C84.2148 83.28 84.6948 82.92 84.9228 82.056L85.9428 82.164C85.7268 83.376 84.6828 84.144 83.2908 84.144ZM91.9218 79.044C92.2818 79.62 92.4738 80.472 92.4258 81.324H87.8778C87.9018 82.644 88.4538 83.28 89.5818 83.28C90.6018 83.28 91.1538 82.848 91.2978 81.936L92.3418 82.02C92.0778 83.424 91.1178 84.144 89.5938 84.144C88.6698 84.144 87.9498 83.868 87.4338 83.268C86.9298 82.704 86.7018 81.924 86.7018 80.988C86.7018 80.1 86.9538 79.32 87.4578 78.756C87.9858 78.156 88.7178 77.856 89.5818 77.856C90.5298 77.856 91.4298 78.264 91.9218 79.044ZM89.5938 78.732C88.9218 78.732 88.4178 78.984 88.1778 79.38C87.9618 79.74 87.8898 80.148 87.8898 80.448H91.3218C91.3098 80.124 91.1898 79.668 90.9978 79.38C90.6858 78.924 90.2418 78.732 89.5938 78.732ZM95.8075 84.144C94.4635 84.144 93.2515 83.52 93.2635 82.032L94.2475 81.936C94.2355 82.776 94.8475 83.292 95.7835 83.292C96.7675 83.292 97.2595 82.956 97.2595 82.32C97.2595 81.636 96.1555 81.552 95.3275 81.336C94.3555 81.084 93.3955 80.796 93.3955 79.608C93.3955 78.36 94.5475 77.856 95.6155 77.856C96.8875 77.856 97.9915 78.36 98.1235 79.824L97.1155 79.98C97.0915 79.152 96.5515 78.708 95.6035 78.708C95.0155 78.708 94.4035 78.984 94.4035 79.536C94.4035 80.088 95.1235 80.244 95.8435 80.4C97.0435 80.652 98.2795 80.856 98.2795 82.26C98.2795 83.724 97.0195 84.144 95.8075 84.144ZM101.655 84.144C100.311 84.144 99.0991 83.52 99.1111 82.032L100.095 81.936C100.083 82.776 100.695 83.292 101.631 83.292C102.615 83.292 103.107 82.956 103.107 82.32C103.107 81.636 102.003 81.552 101.175 81.336C100.203 81.084 99.2431 80.796 99.2431 79.608C99.2431 78.36 100.395 77.856 101.463 77.856C102.735 77.856 103.839 78.36 103.971 79.824L102.963 79.98C102.939 79.152 102.399 78.708 101.451 78.708C100.863 78.708 100.251 78.984 100.251 79.536C100.251 80.088 100.971 80.244 101.691 80.4C102.891 80.652 104.127 80.856 104.127 82.26C104.127 83.724 102.867 84.144 101.655 84.144ZM106.423 76.872H105.343V75.6H106.423V76.872ZM106.423 84H105.343V78H106.423V84ZM112.719 78.528C113.175 79.02 113.187 79.8 113.187 80.436V84H112.071V80.496C112.071 79.944 112.083 79.452 111.711 79.104C111.375 78.768 110.979 78.756 110.643 78.756C110.115 78.756 109.083 78.972 109.083 80.688V84H108.003V78H109.083V78.912C109.383 78.24 109.971 77.856 110.931 77.856C111.723 77.856 112.287 78.072 112.719 78.528ZM119.002 78.84V78H120.082V83.868C120.082 85.476 118.966 86.46 117.202 86.46C116.014 86.46 114.706 85.944 114.646 84.432L115.678 84.36C115.726 85.356 116.362 85.62 117.322 85.62C118.294 85.62 119.002 85.032 119.002 83.94V82.92C118.558 83.616 117.934 83.952 117.106 83.952C115.45 83.952 114.358 82.716 114.358 80.844C114.358 79.068 115.462 77.856 117.07 77.856C117.97 77.856 118.582 78.204 119.002 78.84ZM118.51 82.596C118.906 82.164 119.05 81.492 119.05 80.844C119.05 79.428 118.426 78.72 117.298 78.72C116.686 78.72 116.266 78.888 115.99 79.212C115.654 79.572 115.534 80.136 115.534 80.844C115.534 82.248 115.894 83.088 117.274 83.088C117.838 83.088 118.234 82.896 118.51 82.596Z" fill="#888888"/>
</svg>
