<svg width="103" height="94" viewBox="0 0 103 94" fill="none" xmlns="http://www.w3.org/2000/svg">
<rect x="21.5" width="60" height="60" rx="30" fill="#121212"/>
<rect x="22" y="0.5" width="59" height="59" rx="29.5" stroke="#888888" stroke-opacity="0.25"/>
<path fill-rule="evenodd" clip-rule="evenodd" d="M57.8744 23C58.0632 23 58.2249 23.0538 58.3328 23.1615C58.4406 23.2423 58.4676 23.4038 58.4676 23.5654C58.4676 23.7269 58.4137 23.8615 58.3058 23.9692C58.198 24.0769 58.0632 24.1308 57.8744 24.1308C57.6857 24.1308 57.5509 24.0769 57.443 23.9692C57.3352 23.8885 57.2812 23.7269 57.2812 23.5654C57.2812 23.4038 57.3352 23.2692 57.443 23.1615C57.5509 23.0538 57.6857 23 57.8744 23ZM46.0932 29.8374H46.6594C46.7942 29.8374 46.8481 29.7835 46.8481 29.6489V26.2836C46.8481 25.8259 46.7403 25.4759 46.4976 25.2336C46.2549 24.9913 45.9314 24.8567 45.473 24.8567C44.8529 24.8567 44.2058 25.072 43.5857 25.5297C43.37 25.072 42.9656 24.8567 42.3724 24.8567C41.7792 24.8567 41.186 25.072 40.5929 25.4759L40.539 25.1797C40.539 25.099 40.512 25.072 40.4581 25.0451C40.4311 25.0182 40.3772 25.0182 40.3233 25.0182H39.8919C39.757 25.0182 39.7031 25.072 39.7031 25.2067V29.6759C39.7031 29.8105 39.757 29.8643 39.8919 29.8643H40.4581C40.5929 29.8643 40.6468 29.8105 40.6468 29.6759V26.0413C41.1052 25.772 41.5635 25.6105 42.0488 25.6105C42.3185 25.6105 42.5072 25.6913 42.615 25.8528C42.7229 26.0143 42.8038 26.2297 42.8038 26.5528V29.6489C42.8038 29.7835 42.8577 29.8374 42.9925 29.8374H43.5587C43.6935 29.8374 43.7475 29.7835 43.7475 29.6489V26.3374V26.1759V26.0413C44.2328 25.7451 44.6911 25.6105 45.1495 25.6105C45.4191 25.6105 45.6079 25.6913 45.7157 25.8528C45.8235 26.0143 45.9044 26.2297 45.9044 26.5528V29.6489C45.9044 29.7835 45.9584 29.8374 46.0932 29.8374ZM54.7576 29.2451C55.0542 29.2451 55.2968 29.1643 55.4586 29.0566C55.6204 28.9489 55.7013 28.7605 55.7013 28.5451C55.7013 28.3836 55.6743 28.2759 55.5665 28.1682C55.4586 28.0605 55.2968 27.9797 55.0272 27.872L54.2183 27.5759C53.5173 27.3066 53.1668 26.849 53.1668 26.2297C53.1668 25.8259 53.3286 25.4759 53.6521 25.2336C53.9757 24.9913 54.4071 24.8567 54.9194 24.8567C55.3238 24.8567 55.7282 24.9374 56.1327 25.072C56.2136 25.099 56.2675 25.1259 56.2944 25.1797C56.3214 25.2336 56.3484 25.2874 56.3484 25.3682V25.6374C56.3484 25.7451 56.2944 25.799 56.2136 25.799C56.1969 25.799 56.1596 25.7887 56.1081 25.7745C56.0763 25.7657 56.039 25.7554 55.9979 25.7451C55.6743 25.6374 55.3238 25.5836 54.9733 25.5836C54.3532 25.5836 54.0566 25.799 54.0566 26.2028C54.0566 26.3913 54.1105 26.499 54.2183 26.6066C54.2992 26.7143 54.5149 26.822 54.8115 26.9297L55.5665 27.2259C55.9439 27.3605 56.2136 27.5489 56.3753 27.7374C56.5371 27.9528 56.618 28.1951 56.618 28.5182C56.618 28.9759 56.4562 29.3259 56.1057 29.5951C55.7552 29.8643 55.3238 29.9989 54.7576 29.9989C54.2183 29.9989 53.733 29.9182 53.3016 29.7297C53.2207 29.7028 53.1668 29.6489 53.1399 29.622C53.1129 29.5682 53.0859 29.5143 53.0859 29.4335V29.1643C53.0859 29.0566 53.1129 29.0028 53.1938 29.0028C53.2333 29.0028 53.2872 29.0172 53.3556 29.0355L53.3556 29.0355L53.3556 29.0355C53.3806 29.0422 53.4076 29.0494 53.4364 29.0566C53.8678 29.1912 54.2992 29.2451 54.7576 29.2451ZM51.2171 28.7604V25.1797C51.2171 25.072 51.271 24.9912 51.4328 24.9912H51.999C52.1338 24.9912 52.1877 25.0451 52.1877 25.1797V29.622C52.1877 29.7566 52.1338 29.8104 51.999 29.8104H51.5946C51.5137 29.8104 51.4597 29.8104 51.4328 29.7835C51.3789 29.7566 51.3519 29.7297 51.3519 29.6489L51.298 29.3258C50.7048 29.7566 50.0847 29.972 49.4645 29.972C49.0062 29.972 48.6557 29.8373 48.413 29.595C48.1703 29.3527 48.0625 28.9758 48.0625 28.5181V25.1797C48.0625 25.0451 48.1164 24.9912 48.2512 24.9912H48.8174C48.9523 24.9912 49.0062 25.0451 49.0062 25.1797V28.222C49.0062 28.572 49.0601 28.8143 49.1949 28.9758C49.3297 29.1373 49.5454 29.2181 49.842 29.2181C50.3004 29.2181 50.7587 29.0566 51.2171 28.7604ZM51.7316 35.2765C54.6435 35.2765 57.852 34.6573 60.7909 33.4188C61.2493 33.2304 61.6268 33.715 61.1684 34.038C58.5531 35.9765 54.7514 36.9996 51.462 36.9996C46.8784 36.9996 42.7262 35.3034 39.5986 32.4765C39.4099 32.2881 39.5177 32.0727 39.7065 32.0727C39.7604 32.0727 39.8143 32.0996 39.8682 32.1265C43.2385 34.0919 47.4177 35.2765 51.7316 35.2765ZM60.7075 26.0705C60.9501 25.8013 61.3276 25.6667 61.8669 25.6667C62.1365 25.6667 62.4061 25.6936 62.6488 25.7744C62.7297 25.8013 62.7566 25.8013 62.8105 25.8013C62.8914 25.8013 62.9454 25.7474 62.9454 25.6128V25.3436C62.9454 25.2628 62.9184 25.1821 62.8914 25.1551C62.8645 25.1282 62.8105 25.0744 62.7566 25.0475C62.4061 24.9667 62.0556 24.8859 61.7321 24.8859C60.9771 24.8859 60.4109 25.1013 59.9795 25.559C59.5751 25.9898 59.3594 26.6359 59.3594 27.4436C59.3594 28.2513 59.5481 28.8705 59.9525 29.3013C60.357 29.732 60.9232 29.9474 61.6781 29.9474C62.0826 29.9474 62.46 29.8936 62.7566 29.7589C62.8375 29.732 62.8914 29.7051 62.9184 29.6513C62.9454 29.6243 62.9454 29.5436 62.9454 29.4628V29.1936C62.9454 29.059 62.8914 29.0051 62.8105 29.0051C62.7836 29.0051 62.7297 29.0051 62.6757 29.032C62.3791 29.1128 62.0826 29.1666 61.8129 29.1666C61.3007 29.1666 60.9232 29.032 60.6805 28.7628C60.4379 28.4936 60.33 28.0628 60.33 27.4974V27.3628C60.357 26.7705 60.4648 26.3397 60.7075 26.0705ZM63.4017 31.9374C63.6982 32.3144 63.3208 34.7643 61.9187 35.9489C61.6761 36.1105 61.4873 36.0297 61.5682 35.7874C61.8918 35.0066 62.5928 33.2297 62.2693 32.799C61.9187 32.3682 60.0314 32.5836 59.1956 32.6913C58.9529 32.7182 58.899 32.5028 59.1416 32.3413C59.9235 31.8028 60.9481 31.6144 61.8109 31.6144C62.6198 31.6144 63.2669 31.7759 63.4017 31.9374ZM58.169 24.9912H57.6028C57.468 24.9912 57.4141 25.0451 57.4141 25.1797V29.6489C57.4141 29.7835 57.468 29.8373 57.6028 29.8373H58.169C58.3038 29.8373 58.3577 29.7835 58.3577 29.6489V25.1797C58.3577 25.072 58.3038 24.9912 58.169 24.9912Z" fill="#F8F4EB"/>
<rect y="66" width="103" height="28" rx="14" fill="#121212"/>
<rect x="0.5" y="66.5" width="102" height="27" rx="13.5" stroke="#888888" stroke-opacity="0.25"/>
<path d="M20.0759 84H18.9359L17.9999 81.492H14.4359L13.5119 84H12.3599L15.6479 75.6H16.7999L20.0759 84ZM15.7319 78L14.7959 80.532H17.6399L16.6919 78C16.5239 77.556 16.3319 77.004 16.2119 76.644H16.1999C16.0559 77.088 15.9239 77.472 15.7319 78ZM27.7252 77.856C29.0692 77.856 29.8012 78.624 29.8012 80.112V84H28.6972V80.472C28.6972 79.908 28.6972 79.416 28.3372 79.08C28.0012 78.756 27.5572 78.744 27.3292 78.744C26.9692 78.744 26.6692 78.864 26.4412 79.068C26.1532 79.332 25.8892 79.728 25.8892 80.688V84H24.7852V80.472C24.7852 79.908 24.7852 79.416 24.4252 79.08C24.0892 78.756 23.6452 78.744 23.4172 78.744C23.0452 78.744 22.7452 78.876 22.5292 79.068C22.2412 79.332 21.9772 79.728 21.9772 80.688V84H20.9092V78H21.9772V78.9C22.0492 78.72 22.1692 78.516 22.4212 78.312C22.6972 78.084 23.1292 77.856 23.8252 77.856C24.7732 77.856 25.4572 78.324 25.7452 79.128C25.8652 78.804 26.0452 78.552 26.3212 78.312C26.6092 78.072 26.9932 77.856 27.7252 77.856ZM36.7752 83.112L36.7992 84C36.5712 84.036 36.3672 84.048 36.1272 84.048C35.4672 84.048 35.1072 83.736 35.0472 83.112C34.7112 83.796 34.0512 84.144 33.0312 84.144C32.0232 84.144 31.0152 83.592 31.0152 82.416C31.0152 81.12 32.1072 80.76 33.0552 80.58L35.0352 80.196C35.0352 79.656 35.0112 79.356 34.8312 79.104C34.6632 78.864 34.2672 78.708 33.7392 78.708C32.6952 78.708 32.2752 79.092 32.2752 80.004L31.2192 79.86C31.2432 79.14 31.4952 78.612 31.9632 78.3C32.3952 78.012 33.0312 77.856 33.7992 77.856C35.3112 77.856 36.0792 78.528 36.0792 79.836V82.704C36.0792 83.016 36.0792 83.16 36.4272 83.16C36.5232 83.16 36.6192 83.148 36.7752 83.112ZM35.0352 81.732V81L33.2232 81.396C32.5872 81.54 32.1192 81.72 32.1192 82.404C32.1192 82.968 32.6112 83.28 33.1992 83.28C34.5072 83.28 35.0352 82.596 35.0352 81.732ZM42.2956 84H37.3396V83.16L40.1956 79.68C40.3636 79.476 40.6396 79.164 40.8676 78.912V78.9C40.5196 78.912 40.0876 78.924 39.8596 78.924H37.5316V78H42.1036V78.744L39.3196 82.176C39.2356 82.284 38.9236 82.656 38.5636 83.064V83.076H42.2956V84ZM45.9086 84.144C44.0366 84.144 42.9086 82.956 42.9086 81C42.9086 79.176 44.0486 77.856 45.9086 77.856C47.7446 77.856 48.8966 79.188 48.8966 81C48.8966 82.884 47.7086 84.144 45.9086 84.144ZM45.9086 83.292C46.5206 83.292 46.9526 83.112 47.2406 82.788C47.5886 82.392 47.7326 81.78 47.7326 81C47.7326 80.22 47.5886 79.596 47.2286 79.2C46.9406 78.888 46.5206 78.708 45.9086 78.708C45.3206 78.708 44.8886 78.864 44.6006 79.164C44.2166 79.56 44.0726 80.196 44.0726 81C44.0726 81.804 44.2166 82.44 44.6006 82.836C44.8886 83.136 45.3086 83.292 45.9086 83.292ZM54.84 78.528C55.296 79.02 55.308 79.8 55.308 80.436V84H54.192V80.496C54.192 79.944 54.204 79.452 53.832 79.104C53.496 78.768 53.1 78.756 52.764 78.756C52.236 78.756 51.204 78.972 51.204 80.688V84H50.124V78H51.204V78.912C51.504 78.24 52.092 77.856 53.052 77.856C53.844 77.856 54.408 78.072 54.84 78.528ZM60.7828 84H59.7148V75.6H61.2868L63.0628 80.352C63.4588 81.408 63.7468 82.236 63.9268 82.788H63.9388C64.1188 82.236 64.4668 81.228 64.7908 80.352L66.5668 75.6H68.1388V84H67.0708V78.924C67.0708 78.672 67.0948 77.688 67.1308 77.004H67.1188C66.8068 77.904 66.5908 78.516 66.4348 78.924L64.4788 84H63.3748L61.4188 78.924C61.2628 78.516 60.9988 77.76 60.7348 77.004H60.7228C60.7588 77.688 60.7828 78.672 60.7828 78.924V84ZM73.9141 81.372V78H74.9941V84H73.9141V83.1C73.5901 83.784 72.9181 84.144 72.0661 84.144C71.2861 84.144 70.7221 83.928 70.2901 83.472C69.8221 82.98 69.8101 82.224 69.8101 81.588V78H70.9261V81.528C70.9261 82.08 70.9141 82.548 71.2741 82.896C71.6221 83.232 72.0181 83.244 72.3661 83.244C72.9061 83.244 73.9141 83.112 73.9141 81.372ZM78.7333 84.144C77.3893 84.144 76.1772 83.52 76.1893 82.032L77.1733 81.936C77.1613 82.776 77.7733 83.292 78.7093 83.292C79.6933 83.292 80.1853 82.956 80.1853 82.32C80.1853 81.636 79.0813 81.552 78.2533 81.336C77.2812 81.084 76.3213 80.796 76.3213 79.608C76.3213 78.36 77.4733 77.856 78.5413 77.856C79.8133 77.856 80.9173 78.36 81.0493 79.824L80.0413 79.98C80.0173 79.152 79.4773 78.708 78.5293 78.708C77.9413 78.708 77.3293 78.984 77.3293 79.536C77.3293 80.088 78.0493 80.244 78.7693 80.4C79.9693 80.652 81.2053 80.856 81.2053 82.26C81.2053 83.724 79.9453 84.144 78.7333 84.144ZM83.5009 76.872H82.4209V75.6H83.5009V76.872ZM83.5009 84H82.4209V78H83.5009V84ZM87.6971 84.144C85.8611 84.144 84.7211 82.968 84.7211 81C84.7211 79.152 85.8611 77.856 87.6971 77.856C89.2211 77.856 90.0851 78.768 90.3251 79.908L89.3171 80.1C89.1371 79.404 88.7771 78.72 87.6971 78.72C87.0131 78.72 86.5811 78.924 86.3051 79.284C86.0051 79.692 85.9091 80.292 85.9091 81C85.9091 82.356 86.2451 83.28 87.6971 83.28C88.6211 83.28 89.1011 82.92 89.3291 82.056L90.3491 82.164C90.1331 83.376 89.0891 84.144 87.6971 84.144Z" fill="#888888"/>
</svg>
