<svg width="107" height="94" viewBox="0 0 107 94" fill="none" xmlns="http://www.w3.org/2000/svg">
<rect x="23.5" width="60" height="60" rx="30" fill="#121212"/>
<rect x="24" y="0.5" width="59" height="59" rx="29.5" stroke="#888888" stroke-opacity="0.25"/>
<path d="M53.3832 18C47.4455 18.0207 42.5837 22.8414 42.5009 28.7793C42.4389 33.5897 45.5111 37.7069 49.804 39.2173C49.9075 39.2586 50.0109 39.1655 50.0006 39.0621C49.9833 38.9379 49.9649 38.8138 49.9465 38.6897C49.9098 38.4414 49.873 38.1931 49.8454 37.9448C49.8247 37.8104 49.742 37.7069 49.6282 37.6448C46.2352 36.1655 43.8664 32.7621 43.9078 28.8207C43.9595 23.6483 48.18 19.4379 53.3418 19.3966C58.6277 19.3552 62.9413 23.6379 62.9413 28.9138C62.9413 32.8138 60.5828 36.1655 57.2209 37.6448C57.0968 37.6966 57.014 37.8104 57.0037 37.9448L56.8485 39.0621C56.8278 39.1759 56.9416 39.2586 57.0451 39.2173C61.2966 37.7276 64.3482 33.6724 64.3482 28.9138C64.3275 22.8931 59.4139 17.9897 53.3832 18Z" fill="#F8F4EB"/>
<path d="M53.4141 30.569C54.821 30.569 55.9588 29.4311 55.9588 28.0242C55.9588 26.6277 54.821 25.4794 53.4141 25.4794C52.0073 25.4794 50.8694 26.6173 50.8694 28.0242C50.8694 29.4311 52.0073 30.569 53.4141 30.569Z" fill="#F8F4EB"/>
<path d="M55.659 32.4103C55.9072 32.6586 56.0314 32.9276 56.0728 33.3C56.1555 34.0241 56.1141 34.6448 56.021 35.6483C55.9383 36.6 55.7831 37.8621 55.5866 39.1552C55.4418 40.0759 55.328 40.5724 55.2245 40.9241C55.059 41.4931 54.4177 42 53.4143 42C52.4109 42 51.7799 41.5034 51.604 40.9241C51.5006 40.5724 51.3868 40.0759 51.242 39.1552C51.0454 37.8724 50.8902 36.6 50.8075 35.6483L50.8066 35.6371C50.7244 34.6402 50.6733 34.0214 50.7558 33.3C50.7971 32.9276 50.9316 32.669 51.1695 32.4103C51.635 31.9138 52.4522 31.6034 53.4143 31.6034C54.3763 31.6034 55.1935 31.9241 55.659 32.4103Z" fill="#F8F4EB"/>
<path d="M46.1112 28.8311C46.1629 24.9621 49.2662 21.7656 53.135 21.6207C57.2934 21.4552 60.7381 24.7966 60.7277 28.9138C60.7277 31.4173 59.4554 33.6414 57.5313 34.9552C57.4279 35.0276 57.2934 34.9449 57.3037 34.8311C57.3244 34.3862 57.3348 33.9931 57.3141 33.5897C57.3141 33.4552 57.3658 33.3311 57.4589 33.238C58.6071 32.1518 59.3312 30.6207 59.3312 28.9242C59.3312 25.5931 56.559 22.8828 53.1867 23.0173C50.0834 23.1414 47.5904 25.6656 47.5077 28.769C47.4663 30.5276 48.1904 32.1207 49.38 33.238C49.4834 33.3311 49.5351 33.4552 49.5248 33.5897C49.5041 34.0035 49.5041 34.3966 49.5351 34.8414C49.5351 34.9552 49.4007 35.0276 49.3076 34.9656C47.3525 33.6311 46.0801 31.3759 46.1112 28.8311Z" fill="#F8F4EB"/>
<rect y="66" width="107" height="28" rx="14" fill="#121212"/>
<rect x="0.5" y="66.5" width="106" height="27" rx="13.5" stroke="#888888" stroke-opacity="0.25"/>
<path d="M19.7673 84H18.6273L17.6913 81.492H14.1273L13.2033 84H12.0513L15.3393 75.6H16.4913L19.7673 84ZM15.4233 78L14.4873 80.532H17.3313L16.3833 78C16.2153 77.556 16.0233 77.004 15.9033 76.644H15.8913C15.7473 77.088 15.6153 77.472 15.4233 78ZM23.5766 77.856C25.1726 77.856 26.3366 79.044 26.3366 81C26.3366 82.896 25.2326 84.144 23.6126 84.144C22.7726 84.144 22.1366 83.856 21.6806 83.22V86.4H20.6006V78H21.6806V78.876C22.1246 78.192 22.7726 77.856 23.5766 77.856ZM24.5966 82.872C24.9926 82.488 25.1486 81.852 25.1486 81C25.1486 79.596 24.7886 78.708 23.3846 78.708C22.8206 78.708 22.3886 78.888 22.1006 79.26C21.8006 79.644 21.6446 80.22 21.6446 80.988C21.6446 82.104 21.8966 83.28 23.3606 83.28C23.9126 83.28 24.3206 83.136 24.5966 82.872ZM30.5493 77.856C32.1453 77.856 33.3093 79.044 33.3093 81C33.3093 82.896 32.2053 84.144 30.5853 84.144C29.7453 84.144 29.1093 83.856 28.6533 83.22V86.4H27.5732V78H28.6533V78.876C29.0973 78.192 29.7453 77.856 30.5493 77.856ZM31.5693 82.872C31.9653 82.488 32.1213 81.852 32.1213 81C32.1213 79.596 31.7613 78.708 30.3573 78.708C29.7933 78.708 29.3613 78.888 29.0733 79.26C28.7733 79.644 28.6173 80.22 28.6173 80.988C28.6173 82.104 28.8693 83.28 30.3333 83.28C30.8853 83.28 31.2933 83.136 31.5693 82.872ZM35.6259 84H34.5459V75.6H35.6259V84ZM42.0781 79.044C42.4381 79.62 42.6301 80.472 42.5821 81.324H38.0341C38.0581 82.644 38.6101 83.28 39.7381 83.28C40.7581 83.28 41.3101 82.848 41.4541 81.936L42.4981 82.02C42.2341 83.424 41.2741 84.144 39.7501 84.144C38.8261 84.144 38.1061 83.868 37.5901 83.268C37.0861 82.704 36.8581 81.924 36.8581 80.988C36.8581 80.1 37.1101 79.32 37.6141 78.756C38.1421 78.156 38.8741 77.856 39.7381 77.856C40.6861 77.856 41.5861 78.264 42.0781 79.044ZM39.7501 78.732C39.0781 78.732 38.5741 78.984 38.3341 79.38C38.1181 79.74 38.0461 80.148 38.0461 80.448H41.4781C41.4661 80.124 41.3461 79.668 41.1541 79.38C40.8421 78.924 40.3981 78.732 39.7501 78.732ZM47.7713 84H46.6913V75.6H49.5233C51.0233 75.6 52.8353 75.864 52.8353 78.144C52.8353 80.352 51.0233 80.592 49.5113 80.592H47.7713V84ZM47.7713 76.536V79.668H49.5113C50.5433 79.668 51.7793 79.596 51.7793 78.144C51.7793 76.56 50.5433 76.536 49.5233 76.536H47.7713ZM56.4047 84.144C54.5327 84.144 53.4047 82.956 53.4047 81C53.4047 79.176 54.5447 77.856 56.4047 77.856C58.2407 77.856 59.3927 79.188 59.3927 81C59.3927 82.884 58.2047 84.144 56.4047 84.144ZM56.4047 83.292C57.0167 83.292 57.4487 83.112 57.7367 82.788C58.0847 82.392 58.2287 81.78 58.2287 81C58.2287 80.22 58.0847 79.596 57.7247 79.2C57.4367 78.888 57.0167 78.708 56.4047 78.708C55.8167 78.708 55.3847 78.864 55.0967 79.164C54.7127 79.56 54.5687 80.196 54.5687 81C54.5687 81.804 54.7127 82.44 55.0967 82.836C55.3847 83.136 55.8047 83.292 56.4047 83.292ZM64.9281 78.78V75.6H66.0081V84H64.9281V83.124C64.4841 83.808 63.8361 84.144 63.0321 84.144C61.4361 84.144 60.2721 82.956 60.2721 81C60.2721 79.104 61.3761 77.856 62.9961 77.856C63.8361 77.856 64.4721 78.144 64.9281 78.78ZM64.4001 82.86C64.7721 82.488 64.9641 81.864 64.9641 81.012C64.9641 79.896 64.7121 78.72 63.2481 78.72C62.6361 78.72 62.2041 78.9 61.9281 79.224C61.5921 79.62 61.4601 80.22 61.4601 81C61.4601 82.404 61.8201 83.292 63.2241 83.292C63.7281 83.292 64.1121 83.148 64.4001 82.86ZM70.2088 84.144C68.3728 84.144 67.2328 82.968 67.2328 81C67.2328 79.152 68.3728 77.856 70.2088 77.856C71.7328 77.856 72.5968 78.768 72.8368 79.908L71.8288 80.1C71.6488 79.404 71.2888 78.72 70.2088 78.72C69.5248 78.72 69.0928 78.924 68.8168 79.284C68.5168 79.692 68.4208 80.292 68.4208 81C68.4208 82.356 68.7568 83.28 70.2088 83.28C71.1328 83.28 71.6128 82.92 71.8408 82.056L72.8608 82.164C72.6448 83.376 71.6008 84.144 70.2088 84.144ZM79.4158 83.112L79.4398 84C79.2118 84.036 79.0078 84.048 78.7678 84.048C78.1078 84.048 77.7478 83.736 77.6878 83.112C77.3518 83.796 76.6918 84.144 75.6718 84.144C74.6638 84.144 73.6558 83.592 73.6558 82.416C73.6558 81.12 74.7478 80.76 75.6958 80.58L77.6758 80.196C77.6758 79.656 77.6518 79.356 77.4718 79.104C77.3038 78.864 76.9078 78.708 76.3798 78.708C75.3358 78.708 74.9158 79.092 74.9158 80.004L73.8598 79.86C73.8838 79.14 74.1358 78.612 74.6038 78.3C75.0358 78.012 75.6718 77.856 76.4398 77.856C77.9518 77.856 78.7198 78.528 78.7198 79.836V82.704C78.7198 83.016 78.7198 83.16 79.0678 83.16C79.1638 83.16 79.2598 83.148 79.4158 83.112ZM77.6758 81.732V81L75.8638 81.396C75.2278 81.54 74.7598 81.72 74.7598 82.404C74.7598 82.968 75.2518 83.28 75.8398 83.28C77.1478 83.28 77.6758 82.596 77.6758 81.732ZM82.6083 84.144C81.2643 84.144 80.0522 83.52 80.0643 82.032L81.0483 81.936C81.0363 82.776 81.6483 83.292 82.5843 83.292C83.5683 83.292 84.0603 82.956 84.0603 82.32C84.0603 81.636 82.9563 81.552 82.1283 81.336C81.1562 81.084 80.1963 80.796 80.1963 79.608C80.1963 78.36 81.3483 77.856 82.4163 77.856C83.6883 77.856 84.7923 78.36 84.9243 79.824L83.9163 79.98C83.8923 79.152 83.3523 78.708 82.4043 78.708C81.8163 78.708 81.2043 78.984 81.2043 79.536C81.2043 80.088 81.9243 80.244 82.6443 80.4C83.8443 80.652 85.0803 80.856 85.0803 82.26C85.0803 83.724 83.8203 84.144 82.6083 84.144ZM88.1813 84.06C87.0653 84.06 86.5733 83.628 86.5733 82.656V78.9H85.7093V78H86.5733V76.332H87.6413V78H88.8653V78.9H87.6413V82.62C87.6413 83.016 87.8213 83.088 88.2653 83.088C88.3973 83.088 88.6133 83.064 88.8173 83.028L88.8413 84C88.6493 84.036 88.3973 84.06 88.1813 84.06ZM92.077 84.144C90.733 84.144 89.521 83.52 89.533 82.032L90.517 81.936C90.505 82.776 91.117 83.292 92.053 83.292C93.037 83.292 93.529 82.956 93.529 82.32C93.529 81.636 92.425 81.552 91.597 81.336C90.625 81.084 89.665 80.796 89.665 79.608C89.665 78.36 90.817 77.856 91.885 77.856C93.157 77.856 94.261 78.36 94.393 79.824L93.385 79.98C93.361 79.152 92.821 78.708 91.873 78.708C91.285 78.708 90.673 78.984 90.673 79.536C90.673 80.088 91.393 80.244 92.113 80.4C93.313 80.652 94.549 80.856 94.549 82.26C94.549 83.724 93.289 84.144 92.077 84.144Z" fill="#888888"/>
</svg>
