<svg width="62" height="94" viewBox="0 0 62 94" fill="none" xmlns="http://www.w3.org/2000/svg">
<rect x="1" width="60" height="60" rx="30" fill="#121212"/>
<rect x="1.5" y="0.5" width="59" height="59" rx="29.5" stroke="#888888" stroke-opacity="0.25"/>
<path d="M30.9999 18C24.3727 18 19 23.3727 19 30.0001C19 36.6278 24.3727 42 30.9999 42C37.6279 42 43 36.6278 43 30.0001C43 23.3731 37.6279 18.0006 30.9998 18.0006L30.9999 18ZM36.503 35.3075C36.2881 35.6601 35.8267 35.7718 35.4742 35.5555C32.6567 33.8344 29.1099 33.4447 24.9328 34.399C24.5303 34.4907 24.1291 34.2385 24.0374 33.8359C23.9452 33.4332 24.1964 33.032 24.6 32.9403C29.1711 31.8959 33.092 32.3456 36.2551 34.2787C36.6076 34.495 36.7194 34.955 36.503 35.3075ZM37.9718 32.0401C37.701 32.4803 37.1249 32.6193 36.685 32.3484C33.4594 30.3658 28.5426 29.7916 24.7273 30.9497C24.2325 31.0992 23.71 30.8203 23.5598 30.3264C23.4108 29.8316 23.6897 29.3099 24.1837 29.1595C28.5417 27.8371 33.9595 28.4777 37.6637 30.754C38.1036 31.0248 38.2426 31.6007 37.9718 32.0401ZM38.0979 28.6376C34.2304 26.3404 27.8495 26.1292 24.1569 27.2499C23.5639 27.4297 22.9369 27.095 22.7572 26.502C22.5775 25.9088 22.9119 25.2821 23.5053 25.1019C27.7441 23.815 34.7906 24.0637 39.2434 26.7071C39.7779 27.0236 39.9527 27.7125 39.636 28.2451C39.3208 28.7785 38.6301 28.9543 38.0985 28.6376H38.0979Z" fill="#F8F4EB"/>
<rect y="66" width="62" height="28" rx="14" fill="#121212"/>
<rect x="0.5" y="66.5" width="61" height="27" rx="13.5" stroke="#888888" stroke-opacity="0.25"/>
<path d="M16.3135 84.144C14.4655 84.144 12.8455 83.22 12.8455 81.264L13.9975 81.144C13.9975 82.488 14.9815 83.232 16.2775 83.232C17.5135 83.232 18.5695 82.86 18.5695 81.636C18.5695 80.472 17.0815 80.496 15.8215 80.196C14.5135 79.884 13.0735 79.428 13.0735 77.82C13.0735 76.104 14.6815 75.456 16.0495 75.456C17.7895 75.456 19.2175 76.14 19.3975 78.132L18.2695 78.336C18.2455 77.076 17.4055 76.356 16.0255 76.356C15.2095 76.356 14.1895 76.788 14.1895 77.772C14.1895 78.72 15.4615 79.02 16.6015 79.2C18.2695 79.464 19.6975 79.764 19.6975 81.552C19.6975 83.592 17.9335 84.144 16.3135 84.144ZM23.8696 77.856C25.4656 77.856 26.6296 79.044 26.6296 81C26.6296 82.896 25.5256 84.144 23.9056 84.144C23.0656 84.144 22.4296 83.856 21.9736 83.22V86.4H20.8936V78H21.9736V78.876C22.4176 78.192 23.0656 77.856 23.8696 77.856ZM24.8896 82.872C25.2856 82.488 25.4416 81.852 25.4416 81C25.4416 79.596 25.0816 78.708 23.6776 78.708C23.1136 78.708 22.6816 78.888 22.3936 79.26C22.0936 79.644 21.9376 80.22 21.9376 80.988C21.9376 82.104 22.1896 83.28 23.6536 83.28C24.2056 83.28 24.6136 83.136 24.8896 82.872ZM30.5062 84.144C28.6342 84.144 27.5062 82.956 27.5062 81C27.5062 79.176 28.6462 77.856 30.5062 77.856C32.3422 77.856 33.4942 79.188 33.4942 81C33.4942 82.884 32.3062 84.144 30.5062 84.144ZM30.5062 83.292C31.1182 83.292 31.5502 83.112 31.8382 82.788C32.1862 82.392 32.3302 81.78 32.3302 81C32.3302 80.22 32.1862 79.596 31.8262 79.2C31.5382 78.888 31.1182 78.708 30.5062 78.708C29.9182 78.708 29.4862 78.864 29.1982 79.164C28.8142 79.56 28.6702 80.196 28.6702 81C28.6702 81.804 28.8142 82.44 29.1982 82.836C29.4862 83.136 29.9062 83.292 30.5062 83.292ZM36.5602 84.06C35.4442 84.06 34.9522 83.628 34.9522 82.656V78.9H34.0882V78H34.9522V76.332H36.0202V78H37.2442V78.9H36.0202V82.62C36.0202 83.016 36.2002 83.088 36.6442 83.088C36.7762 83.088 36.9922 83.064 37.1962 83.028L37.2202 84C37.0282 84.036 36.7762 84.06 36.5602 84.06ZM39.3759 76.872H38.2959V75.6H39.3759V76.872ZM39.3759 84H38.2959V78H39.3759V84ZM42.4081 84H41.3401V78.9H40.4761V78H41.3401V76.944C41.3401 75.972 41.8321 75.54 42.9481 75.54C43.2001 75.54 43.4761 75.576 43.6081 75.6L43.5841 76.56C43.3921 76.524 43.1401 76.5 43.0081 76.5C42.6001 76.5 42.4081 76.572 42.4081 76.968V78H43.6321V78.9H42.4081V84ZM47.2057 81.24L48.3577 78H49.4857L47.0377 84.552C46.5457 85.872 46.1137 86.46 45.2857 86.46C44.9977 86.46 44.6737 86.424 44.3737 86.34L44.3977 85.332C44.6137 85.404 44.8657 85.464 45.1417 85.464C45.5857 85.464 45.7897 84.972 46.1857 83.952L43.8457 78H44.9977L46.1377 81.24C46.2817 81.648 46.4737 82.236 46.6657 82.836C46.9057 82.104 47.0377 81.72 47.2057 81.24Z" fill="#888888"/>
</svg>
