<svg width="90" height="94" viewBox="0 0 90 94" fill="none" xmlns="http://www.w3.org/2000/svg">
<rect x="15" width="60" height="60" rx="30" fill="#121212"/>
<rect x="15.5" y="0.5" width="59" height="59" rx="29.5" stroke="#888888" stroke-opacity="0.25"/>
<path d="M39.5369 21C35.9258 21 33 23.9677 33 27.6305C33 29.9545 34.4507 31.6298 35.9664 33.1802L41.893 38.864C42.2036 39.1618 42.7145 38.9383 42.7145 38.5048V34.0767C42.7145 32.7955 43.7371 31.7565 44.9998 31.7544C46.2623 31.7565 47.2855 32.7955 47.2855 34.0767V38.5048C47.2855 38.9383 47.7964 39.1618 48.107 38.864L54.0331 33.1802C55.5489 31.6298 57 29.9544 57 27.6305C57 23.9679 54.0747 21.0002 50.4635 21H50.4631C48.1971 21.0002 46.1726 22.2178 45.0002 23.9963C43.8278 22.2178 41.8033 21 39.5369 21ZM37.9743 23.0235C38.1198 23.0284 38.2599 23.1045 38.3429 23.239C38.4759 23.4534 38.4119 23.7374 38.1999 23.8723C37.1848 24.5178 36.39 26.0306 36.39 27.3162V27.3386C36.39 28.9222 37.2772 30.5225 39.0267 32.0948C39.2145 32.2635 39.2316 32.5539 39.066 32.7437C38.9764 32.8463 38.8515 32.8979 38.7267 32.8979C38.6198 32.8979 38.5127 32.8604 38.4263 32.7831C36.4747 31.028 35.4847 29.1965 35.4847 27.3386V27.3162C35.4847 25.7197 36.4455 23.9041 37.7185 23.0935C37.798 23.0431 37.8872 23.0204 37.9743 23.0235ZM52.0257 23.0235C52.113 23.0204 52.202 23.0431 52.2815 23.0935C53.5548 23.9041 54.5153 25.7197 54.5153 27.3162V27.3386C54.5153 29.1965 53.5256 31.028 51.5737 32.7831C51.4875 32.8604 51.3802 32.8979 51.2733 32.8979C51.1488 32.8979 51.0236 32.8463 50.934 32.7437C50.768 32.5539 50.7853 32.2635 50.9728 32.0948C52.7224 30.5225 53.6095 28.9222 53.6095 27.3386V27.3162C53.6095 26.0306 52.8146 24.5173 51.7997 23.8719C51.5877 23.7369 51.5241 23.4534 51.6571 23.239C51.7401 23.1045 51.8804 23.0284 52.0257 23.0235ZM41.2746 24.1981C41.4506 24.1831 41.626 24.2738 41.7135 24.442C41.8299 24.6667 41.7453 24.9442 41.5236 25.0625C40.6161 25.5468 40.0512 26.492 40.0489 27.5303C40.0515 28.6601 40.7572 29.8178 41.8055 30.4136C42.024 30.5371 42.1016 30.8173 41.9796 31.0387C41.8967 31.1889 41.7429 31.2739 41.5845 31.2739C41.509 31.2739 41.433 31.2552 41.363 31.2153C40.0398 30.4637 39.1489 28.9872 39.1431 27.5376V27.5239C39.1484 26.1454 39.8975 24.8918 41.1018 24.2494C41.1572 24.2199 41.2159 24.2033 41.2746 24.1981ZM48.7254 24.1981C48.7841 24.2033 48.843 24.2198 48.8982 24.2494C50.1025 24.8918 50.8513 26.1454 50.8569 27.5239V27.5377C50.8511 28.9872 49.9602 30.4637 48.637 31.2153C48.567 31.2552 48.491 31.2739 48.4155 31.2739C48.2571 31.2739 48.1031 31.1889 48.0199 31.0387C47.898 30.8173 47.976 30.5371 48.1945 30.4136C49.2431 29.8178 49.9479 28.6601 49.9506 27.5303C49.9483 26.492 49.3841 25.5468 48.4764 25.0625C48.2549 24.9442 48.1694 24.6667 48.2861 24.442C48.3734 24.2738 48.5497 24.1831 48.7254 24.1981ZM44.9998 25.877C46.0851 25.8777 46.9648 26.7703 46.9648 27.8712C46.9648 28.9722 46.0851 29.8647 44.9998 29.8654C43.9147 29.8647 43.0352 28.9722 43.0352 27.8712C43.0352 26.7703 43.9147 25.8777 44.9998 25.877Z" fill="#F8F4EB"/>
<rect y="66" width="90" height="28" rx="14" fill="#121212"/>
<rect x="0.5" y="66.5" width="89" height="27" rx="13.5" stroke="#888888" stroke-opacity="0.25"/>
<path d="M14.0947 76.872H13.0147V75.6H14.0947V76.872ZM14.0947 84H13.0147V78H14.0947V84ZM16.9708 84H15.8788V75.6H16.9708V79.272H21.1828V75.6H22.2748V84H21.1828V80.244H16.9708V84ZM28.8554 79.044C29.2154 79.62 29.4074 80.472 29.3594 81.324H24.8114C24.8354 82.644 25.3874 83.28 26.5154 83.28C27.5354 83.28 28.0874 82.848 28.2314 81.936L29.2754 82.02C29.0114 83.424 28.0514 84.144 26.5274 84.144C25.6034 84.144 24.8834 83.868 24.3674 83.268C23.8634 82.704 23.6354 81.924 23.6354 80.988C23.6354 80.1 23.8874 79.32 24.3914 78.756C24.9194 78.156 25.6514 77.856 26.5154 77.856C27.4634 77.856 28.3634 78.264 28.8554 79.044ZM26.5274 78.732C25.8554 78.732 25.3514 78.984 25.1114 79.38C24.8954 79.74 24.8234 80.148 24.8234 80.448H28.2554C28.2434 80.124 28.1234 79.668 27.9314 79.38C27.6194 78.924 27.1754 78.732 26.5274 78.732ZM36.0291 83.112L36.0531 84C35.8251 84.036 35.6211 84.048 35.3811 84.048C34.7211 84.048 34.3611 83.736 34.3011 83.112C33.9651 83.796 33.3051 84.144 32.2851 84.144C31.2771 84.144 30.2691 83.592 30.2691 82.416C30.2691 81.12 31.3611 80.76 32.3091 80.58L34.2891 80.196C34.2891 79.656 34.2651 79.356 34.0851 79.104C33.9171 78.864 33.5211 78.708 32.9931 78.708C31.9491 78.708 31.5291 79.092 31.5291 80.004L30.4731 79.86C30.4971 79.14 30.7491 78.612 31.2171 78.3C31.6491 78.012 32.2851 77.856 33.0531 77.856C34.5651 77.856 35.3331 78.528 35.3331 79.836V82.704C35.3331 83.016 35.3331 83.16 35.6811 83.16C35.7771 83.16 35.8731 83.148 36.0291 83.112ZM34.2891 81.732V81L32.4771 81.396C31.8411 81.54 31.3731 81.72 31.3731 82.404C31.3731 82.968 31.8651 83.28 32.4531 83.28C33.7611 83.28 34.2891 82.596 34.2891 81.732ZM40.0015 77.868C40.0975 77.856 40.3255 77.856 40.4095 77.856L40.3855 78.876C40.3135 78.864 40.2175 78.864 40.1095 78.864C38.9695 78.864 38.1415 79.224 38.1415 81.156V84H37.0615V78H38.1415V79.056C38.3095 78.48 39.0175 77.94 40.0015 77.868ZM43.2946 84.06C42.1786 84.06 41.6866 83.628 41.6866 82.656V78.9H40.8226V78H41.6866V76.332H42.7546V78H43.9786V78.9H42.7546V82.62C42.7546 83.016 42.9346 83.088 43.3786 83.088C43.5106 83.088 43.7266 83.064 43.9306 83.028L43.9546 84C43.7626 84.036 43.5106 84.06 43.2946 84.06ZM53.8699 81.9C53.8699 82.872 53.9419 83.448 54.3499 83.964L54.3379 84H53.1499C52.8739 83.58 52.7899 83.184 52.7899 82.02C52.7899 80.904 52.3459 80.52 50.8699 80.52H48.9979V84H47.9179V75.6H50.7619C52.2499 75.6 54.0739 75.792 54.0739 78.072C54.0739 79.104 53.5099 79.872 52.7779 80.124C53.5699 80.424 53.8699 81.036 53.8699 81.9ZM48.9979 79.596H50.7499C51.7819 79.596 53.0059 79.512 53.0059 78.12C53.0059 76.536 51.7819 76.536 50.7619 76.536H48.9979V79.596ZM61.0486 83.112L61.0726 84C60.8446 84.036 60.6406 84.048 60.4006 84.048C59.7406 84.048 59.3806 83.736 59.3206 83.112C58.9846 83.796 58.3246 84.144 57.3046 84.144C56.2966 84.144 55.2886 83.592 55.2886 82.416C55.2886 81.12 56.3806 80.76 57.3286 80.58L59.3086 80.196C59.3086 79.656 59.2846 79.356 59.1046 79.104C58.9366 78.864 58.5406 78.708 58.0126 78.708C56.9686 78.708 56.5486 79.092 56.5486 80.004L55.4926 79.86C55.5166 79.14 55.7686 78.612 56.2366 78.3C56.6686 78.012 57.3046 77.856 58.0726 77.856C59.5846 77.856 60.3526 78.528 60.3526 79.836V82.704C60.3526 83.016 60.3526 83.16 60.7006 83.16C60.7966 83.16 60.8926 83.148 61.0486 83.112ZM59.3086 81.732V81L57.4966 81.396C56.8606 81.54 56.3926 81.72 56.3926 82.404C56.3926 82.968 56.8846 83.28 57.4726 83.28C58.7806 83.28 59.3086 82.596 59.3086 81.732ZM66.3891 78.78V75.6H67.4691V84H66.3891V83.124C65.9451 83.808 65.2971 84.144 64.4931 84.144C62.8971 84.144 61.7331 82.956 61.7331 81C61.7331 79.104 62.8371 77.856 64.4571 77.856C65.2971 77.856 65.9331 78.144 66.3891 78.78ZM65.8611 82.86C66.2331 82.488 66.4251 81.864 66.4251 81.012C66.4251 79.896 66.1731 78.72 64.7091 78.72C64.0971 78.72 63.6651 78.9 63.3891 79.224C63.0531 79.62 62.9211 80.22 62.9211 81C62.9211 82.404 63.2811 83.292 64.6851 83.292C65.1891 83.292 65.5731 83.148 65.8611 82.86ZM70.1337 76.872H69.0537V75.6H70.1337V76.872ZM70.1337 84H69.0537V78H70.1337V84ZM74.3539 84.144C72.4819 84.144 71.3539 82.956 71.3539 81C71.3539 79.176 72.4939 77.856 74.3539 77.856C76.1899 77.856 77.3419 79.188 77.3419 81C77.3419 82.884 76.1539 84.144 74.3539 84.144ZM74.3539 83.292C74.9659 83.292 75.3979 83.112 75.6859 82.788C76.0339 82.392 76.1779 81.78 76.1779 81C76.1779 80.22 76.0339 79.596 75.6739 79.2C75.3859 78.888 74.9659 78.708 74.3539 78.708C73.7659 78.708 73.3339 78.864 73.0459 79.164C72.6619 79.56 72.5179 80.196 72.5179 81C72.5179 81.804 72.6619 82.44 73.0459 82.836C73.3339 83.136 73.7539 83.292 74.3539 83.292Z" fill="#888888"/>
</svg>
