<svg width="115" height="94" viewBox="0 0 115 94" fill="none" xmlns="http://www.w3.org/2000/svg">
<rect x="27.5" width="60" height="60" rx="30" fill="#121212"/>
<rect x="28" y="0.5" width="59" height="59" rx="29.5" stroke="#888888" stroke-opacity="0.25"/>
<path fill-rule="evenodd" clip-rule="evenodd" d="M58.7429 19.244C58.7429 18.5569 58.186 18 57.499 18C56.8119 18 56.255 18.5569 56.255 19.244V20.9179C56.255 21.605 56.8119 22.1619 57.499 22.1619C58.186 22.1619 58.7429 21.605 58.7429 20.9179V19.244ZM58.7429 25.5363C58.7429 24.8493 58.186 24.2924 57.499 24.2924C56.8119 24.2924 56.255 24.8493 56.255 25.5363V34.4642C56.255 35.1512 56.8119 35.7081 57.499 35.7081C58.186 35.7081 58.7429 35.1512 58.7429 34.4642V25.5363ZM58.7429 39.0821C58.7429 38.395 58.186 37.8381 57.499 37.8381C56.8119 37.8381 56.255 38.395 56.255 39.0821V40.756C56.255 41.4431 56.8119 42 57.499 42C58.186 42 58.7429 41.4431 58.7429 40.756V39.0821ZM53.3654 24.1415C53.3654 23.4544 52.8085 22.8975 52.1215 22.8975C51.4344 22.8975 50.8775 23.4544 50.8775 24.1415V29.6168C50.8775 30.3038 51.4344 30.8607 52.1215 30.8607C52.8085 30.8607 53.3654 30.3038 53.3654 29.6168V24.1415ZM53.3654 34.1853C53.3654 33.4983 52.8085 32.9414 52.1215 32.9414C51.4344 32.9414 50.8775 33.4983 50.8775 34.1853V35.8593C50.8775 36.5463 51.4344 37.1033 52.1215 37.1033C52.8085 37.1033 53.3654 36.5463 53.3654 35.8593V34.1853ZM46.744 27.9187C47.431 27.9187 47.9879 28.4757 47.9879 29.1627V30.8367C47.9879 31.5237 47.431 32.0807 46.744 32.0807C46.0569 32.0807 45.5 31.5237 45.5 30.8367V29.1627C45.5 28.4757 46.0569 27.9187 46.744 27.9187ZM68.254 27.9187C68.941 27.9187 69.4979 28.4757 69.4979 29.1627V30.8367C69.4979 31.5237 68.941 32.0807 68.254 32.0807C67.5669 32.0807 67.01 31.5237 67.01 30.8367V29.1627C67.01 28.4757 67.5669 27.9187 68.254 27.9187ZM62.8765 22.8975C63.5635 22.8975 64.1204 23.4544 64.1204 24.1415V25.8154C64.1204 26.5025 63.5635 27.0594 62.8765 27.0594C62.1894 27.0594 61.6325 26.5025 61.6325 25.8154V24.1415C61.6325 23.4544 62.1894 22.8975 62.8765 22.8975ZM62.8765 29.1403C63.5635 29.1403 64.1204 29.6972 64.1204 30.3843V35.8596C64.1204 36.5466 63.5635 37.1035 62.8765 37.1035C62.1894 37.1035 61.6325 36.5466 61.6325 35.8596V30.3843C61.6325 29.6972 62.1894 29.1403 62.8765 29.1403Z" fill="#F8F4EB"/>
<rect y="66" width="115" height="28" rx="14" fill="#121212"/>
<rect x="0.5" y="66.5" width="114" height="27" rx="13.5" stroke="#888888" stroke-opacity="0.25"/>
<path d="M16.7383 80.568V79.548H20.3143V84H19.4263L19.3303 82.848C18.7543 83.7 17.8183 84.144 16.6423 84.144C14.0983 84.144 12.6583 82.596 12.6583 79.8C12.6583 77.256 14.0623 75.456 16.6423 75.456C18.3583 75.456 19.7623 76.332 20.2303 78.084L19.0543 78.312C18.7783 77.316 18.0103 76.392 16.6663 76.392C15.7063 76.392 14.9383 76.704 14.4823 77.34C14.0743 77.916 13.8703 78.72 13.8703 79.8C13.8703 80.892 14.0743 81.708 14.4823 82.296C14.9383 82.944 15.7063 83.208 16.7623 83.208C18.3583 83.208 19.2103 82.308 19.2343 80.568H16.7383ZM24.3871 84.144C22.5151 84.144 21.3871 82.956 21.3871 81C21.3871 79.176 22.5271 77.856 24.3871 77.856C26.2231 77.856 27.3751 79.188 27.3751 81C27.3751 82.884 26.1871 84.144 24.3871 84.144ZM24.3871 83.292C24.9991 83.292 25.4311 83.112 25.7191 82.788C26.0671 82.392 26.2111 81.78 26.2111 81C26.2111 80.22 26.0671 79.596 25.7071 79.2C25.4191 78.888 24.9991 78.708 24.3871 78.708C23.7991 78.708 23.3671 78.864 23.0791 79.164C22.6951 79.56 22.5511 80.196 22.5511 81C22.5511 81.804 22.6951 82.44 23.0791 82.836C23.3671 83.136 23.7871 83.292 24.3871 83.292ZM31.2425 84.144C29.3705 84.144 28.2425 82.956 28.2425 81C28.2425 79.176 29.3825 77.856 31.2425 77.856C33.0785 77.856 34.2305 79.188 34.2305 81C34.2305 82.884 33.0425 84.144 31.2425 84.144ZM31.2425 83.292C31.8545 83.292 32.2865 83.112 32.5745 82.788C32.9225 82.392 33.0665 81.78 33.0665 81C33.0665 80.22 32.9225 79.596 32.5625 79.2C32.2745 78.888 31.8545 78.708 31.2425 78.708C30.6545 78.708 30.2225 78.864 29.9345 79.164C29.5505 79.56 29.4065 80.196 29.4065 81C29.4065 81.804 29.5505 82.44 29.9345 82.836C30.2225 83.136 30.6425 83.292 31.2425 83.292ZM39.754 78.84V78H40.834V83.868C40.834 85.476 39.718 86.46 37.954 86.46C36.766 86.46 35.458 85.944 35.398 84.432L36.43 84.36C36.478 85.356 37.114 85.62 38.074 85.62C39.046 85.62 39.754 85.032 39.754 83.94V82.92C39.31 83.616 38.686 83.952 37.858 83.952C36.202 83.952 35.11 82.716 35.11 80.844C35.11 79.068 36.214 77.856 37.822 77.856C38.722 77.856 39.334 78.204 39.754 78.84ZM39.262 82.596C39.658 82.164 39.802 81.492 39.802 80.844C39.802 79.428 39.178 78.72 38.05 78.72C37.438 78.72 37.018 78.888 36.742 79.212C36.406 79.572 36.286 80.136 36.286 80.844C36.286 82.248 36.646 83.088 38.026 83.088C38.59 83.088 38.986 82.896 39.262 82.596ZM43.499 84H42.419V75.6H43.499V84ZM49.9511 79.044C50.3111 79.62 50.5031 80.472 50.4551 81.324H45.9071C45.9311 82.644 46.4831 83.28 47.6111 83.28C48.6311 83.28 49.1831 82.848 49.3271 81.936L50.3711 82.02C50.1071 83.424 49.1471 84.144 47.6231 84.144C46.6991 84.144 45.9791 83.868 45.4631 83.268C44.9591 82.704 44.7311 81.924 44.7311 80.988C44.7311 80.1 44.9831 79.32 45.4871 78.756C46.0151 78.156 46.7471 77.856 47.6111 77.856C48.5591 77.856 49.4591 78.264 49.9511 79.044ZM47.6231 78.732C46.9511 78.732 46.4471 78.984 46.2071 79.38C45.9911 79.74 45.9191 80.148 45.9191 80.448H49.3511C49.3391 80.124 49.2191 79.668 49.0271 79.38C48.7151 78.924 48.2711 78.732 47.6231 78.732ZM55.6444 84H54.5644V75.6H57.3964C58.8964 75.6 60.7084 75.864 60.7084 78.144C60.7084 80.352 58.8964 80.592 57.3844 80.592H55.6444V84ZM55.6444 76.536V79.668H57.3844C58.4164 79.668 59.6524 79.596 59.6524 78.144C59.6524 76.56 58.4164 76.536 57.3964 76.536H55.6444ZM64.2777 84.144C62.4057 84.144 61.2777 82.956 61.2777 81C61.2777 79.176 62.4177 77.856 64.2777 77.856C66.1137 77.856 67.2657 79.188 67.2657 81C67.2657 82.884 66.0777 84.144 64.2777 84.144ZM64.2777 83.292C64.8897 83.292 65.3217 83.112 65.6097 82.788C65.9577 82.392 66.1017 81.78 66.1017 81C66.1017 80.22 65.9577 79.596 65.5977 79.2C65.3097 78.888 64.8897 78.708 64.2777 78.708C63.6897 78.708 63.2577 78.864 62.9697 79.164C62.5857 79.56 62.4417 80.196 62.4417 81C62.4417 81.804 62.5857 82.44 62.9697 82.836C63.2577 83.136 63.6777 83.292 64.2777 83.292ZM72.8012 78.78V75.6H73.8812V84H72.8012V83.124C72.3572 83.808 71.7092 84.144 70.9052 84.144C69.3092 84.144 68.1452 82.956 68.1452 81C68.1452 79.104 69.2492 77.856 70.8692 77.856C71.7092 77.856 72.3452 78.144 72.8012 78.78ZM72.2732 82.86C72.6452 82.488 72.8372 81.864 72.8372 81.012C72.8372 79.896 72.5852 78.72 71.1212 78.72C70.5092 78.72 70.0772 78.9 69.8012 79.224C69.4652 79.62 69.3332 80.22 69.3332 81C69.3332 82.404 69.6932 83.292 71.0972 83.292C71.6012 83.292 71.9852 83.148 72.2732 82.86ZM78.0818 84.144C76.2458 84.144 75.1058 82.968 75.1058 81C75.1058 79.152 76.2458 77.856 78.0818 77.856C79.6058 77.856 80.4698 78.768 80.7098 79.908L79.7018 80.1C79.5218 79.404 79.1618 78.72 78.0818 78.72C77.3978 78.72 76.9658 78.924 76.6898 79.284C76.3898 79.692 76.2938 80.292 76.2938 81C76.2938 82.356 76.6298 83.28 78.0818 83.28C79.0058 83.28 79.4858 82.92 79.7138 82.056L80.7338 82.164C80.5178 83.376 79.4738 84.144 78.0818 84.144ZM87.2888 83.112L87.3128 84C87.0848 84.036 86.8808 84.048 86.6408 84.048C85.9808 84.048 85.6208 83.736 85.5608 83.112C85.2248 83.796 84.5648 84.144 83.5448 84.144C82.5368 84.144 81.5288 83.592 81.5288 82.416C81.5288 81.12 82.6208 80.76 83.5688 80.58L85.5488 80.196C85.5488 79.656 85.5248 79.356 85.3448 79.104C85.1768 78.864 84.7808 78.708 84.2528 78.708C83.2088 78.708 82.7888 79.092 82.7888 80.004L81.7328 79.86C81.7568 79.14 82.0088 78.612 82.4768 78.3C82.9088 78.012 83.5448 77.856 84.3128 77.856C85.8248 77.856 86.5928 78.528 86.5928 79.836V82.704C86.5928 83.016 86.5928 83.16 86.9408 83.16C87.0368 83.16 87.1328 83.148 87.2888 83.112ZM85.5488 81.732V81L83.7368 81.396C83.1008 81.54 82.6328 81.72 82.6328 82.404C82.6328 82.968 83.1248 83.28 83.7128 83.28C85.0208 83.28 85.5488 82.596 85.5488 81.732ZM90.4813 84.144C89.1373 84.144 87.9253 83.52 87.9373 82.032L88.9213 81.936C88.9093 82.776 89.5213 83.292 90.4573 83.292C91.4413 83.292 91.9333 82.956 91.9333 82.32C91.9333 81.636 90.8293 81.552 90.0013 81.336C89.0293 81.084 88.0693 80.796 88.0693 79.608C88.0693 78.36 89.2213 77.856 90.2893 77.856C91.5613 77.856 92.6653 78.36 92.7973 79.824L91.7893 79.98C91.7653 79.152 91.2253 78.708 90.2773 78.708C89.6893 78.708 89.0773 78.984 89.0773 79.536C89.0773 80.088 89.7973 80.244 90.5173 80.4C91.7173 80.652 92.9533 80.856 92.9533 82.26C92.9533 83.724 91.6933 84.144 90.4813 84.144ZM96.0544 84.06C94.9384 84.06 94.4464 83.628 94.4464 82.656V78.9H93.5824V78H94.4464V76.332H95.5144V78H96.7384V78.9H95.5144V82.62C95.5144 83.016 95.6944 83.088 96.1384 83.088C96.2704 83.088 96.4864 83.064 96.6904 83.028L96.7144 84C96.5224 84.036 96.2704 84.06 96.0544 84.06ZM99.95 84.144C98.606 84.144 97.394 83.52 97.406 82.032L98.39 81.936C98.378 82.776 98.99 83.292 99.926 83.292C100.91 83.292 101.402 82.956 101.402 82.32C101.402 81.636 100.298 81.552 99.47 81.336C98.498 81.084 97.538 80.796 97.538 79.608C97.538 78.36 98.69 77.856 99.758 77.856C101.03 77.856 102.134 78.36 102.266 79.824L101.258 79.98C101.234 79.152 100.694 78.708 99.746 78.708C99.158 78.708 98.546 78.984 98.546 79.536C98.546 80.088 99.266 80.244 99.986 80.4C101.186 80.652 102.422 80.856 102.422 82.26C102.422 83.724 101.162 84.144 99.95 84.144Z" fill="#888888"/>
</svg>
