<svg xmlns="http://www.w3.org/2000/svg" width="94" height="94" fill="none">
  <rect width="60" height="60" x="17" fill="#121212" rx="30"/>
  <rect width="59" height="59" x="17.5" y=".5" stroke="#888" stroke-opacity=".25" rx="29.5"/>
  <g clip-path="url(#a)">
    <path fill="#F8F4EB" fill-rule="evenodd" d="M60 30c0 7.18-5.82 13-13 13s-13-5.82-13-13 5.82-13 13-13 13 5.82 13 13Zm-19.975-.039a6.936 6.936 0 1 1 13.872 0h2.584a9.52 9.52 0 1 0-9.52 9.52v-2.584a6.936 6.936 0 0 1-6.936-6.936Zm6.996-3.652a3.713 3.713 0 0 0 0 7.426v1.975a5.688 5.688 0 1 1 5.689-5.689h-1.976a3.713 3.713 0 0 0-3.713-3.712Z" clip-rule="evenodd"/>
  </g>
  <rect width="94" height="28" y="66" fill="#121212" rx="14"/>
  <rect width="93" height="27" x=".5" y="66.5" stroke="#888" stroke-opacity=".25" rx="13.5"/>
  <path fill="#888" d="M14.43 84h-1.08v-8.4h2.832c1.5 0 3.312.264 3.312 2.544 0 2.208-1.813 2.448-3.325 2.448h-1.74V84Zm0-7.464v3.132h1.74c1.031 0 2.267-.072 2.267-1.524 0-1.584-1.236-1.608-2.256-1.608H14.43Zm8.633 7.608c-1.872 0-3-1.188-3-3.144 0-1.824 1.14-3.144 3-3.144 1.836 0 2.988 1.332 2.988 3.144 0 1.884-1.188 3.144-2.988 3.144Zm0-.852c.612 0 1.044-.18 1.332-.504.348-.396.492-1.008.492-1.788s-.144-1.404-.504-1.8c-.288-.312-.708-.492-1.32-.492-.588 0-1.02.156-1.308.456-.384.396-.528 1.032-.528 1.836s.144 1.44.528 1.836c.288.3.708.456 1.308.456Zm6.831.852c-1.836 0-2.976-1.176-2.976-3.144 0-1.848 1.14-3.144 2.976-3.144 1.524 0 2.388.912 2.628 2.052l-1.008.192c-.18-.696-.54-1.38-1.62-1.38-.684 0-1.116.204-1.392.564-.3.408-.396 1.008-.396 1.716 0 1.356.336 2.28 1.788 2.28.924 0 1.404-.36 1.632-1.224l1.02.108c-.216 1.212-1.26 1.98-2.652 1.98Zm8.92-.144h-1.26l-1.98-3.084-.84.792V84h-1.08v-8.4h1.08v4.884L37.24 78h1.464l-2.376 2.196L38.813 84Zm5.395-4.956c.36.576.552 1.428.504 2.28h-4.548c.024 1.32.576 1.956 1.704 1.956 1.02 0 1.572-.432 1.716-1.344l1.044.084c-.264 1.404-1.224 2.124-2.748 2.124-.924 0-1.644-.276-2.16-.876-.504-.564-.732-1.344-.732-2.28 0-.888.252-1.668.756-2.232.528-.6 1.26-.9 2.124-.9.948 0 1.848.408 2.34 1.188Zm-2.328-.312c-.672 0-1.176.252-1.416.648-.216.36-.288.768-.288 1.068h3.432c-.012-.324-.132-.78-.324-1.068-.312-.456-.756-.648-1.404-.648Zm5.904 5.328c-1.116 0-1.608-.432-1.608-1.404V78.9h-.864V78h.864v-1.668h1.068V78h1.224v.9h-1.224v3.72c0 .396.18.468.624.468.132 0 .348-.024.552-.06l.024.972c-.192.036-.444.06-.66.06Zm8.115.084c-2.544 0-3.984-1.548-3.984-4.344 0-2.544 1.404-4.344 3.984-4.344 1.716 0 3.168.876 3.636 2.628l-1.188.228c-.252-1.008-1.068-1.92-2.424-1.92-.96 0-1.728.312-2.184.948-.408.576-.6 1.38-.6 2.46 0 1.092.192 1.884.6 2.472.432.612 1.2.936 2.16.936 1.368 0 2.136-.816 2.472-1.776l1.236.324c-.672 1.536-1.944 2.388-3.708 2.388Zm10.19-1.032.024.888a4.122 4.122 0 0 1-.672.048c-.66 0-1.02-.312-1.08-.936-.336.684-.996 1.032-2.016 1.032-1.008 0-2.016-.552-2.016-1.728 0-1.296 1.092-1.656 2.04-1.836l1.98-.384c0-.54-.024-.84-.204-1.092-.168-.24-.564-.396-1.092-.396-1.044 0-1.464.384-1.464 1.296l-1.056-.144c.024-.72.276-1.248.744-1.56.432-.288 1.068-.444 1.836-.444 1.512 0 2.28.672 2.28 1.98v2.868c0 .312 0 .456.348.456.096 0 .192-.012.348-.048Zm-1.74-1.38V81l-1.812.396c-.636.144-1.104.324-1.104 1.008 0 .564.492.876 1.08.876 1.308 0 1.836-.684 1.836-1.548Zm4.932 2.412c-1.344 0-2.556-.624-2.544-2.112l.984-.096c-.012.84.6 1.356 1.536 1.356.984 0 1.476-.336 1.476-.972 0-.684-1.104-.768-1.932-.984-.972-.252-1.932-.54-1.932-1.728 0-1.248 1.152-1.752 2.22-1.752 1.272 0 2.376.504 2.508 1.968l-1.008.156c-.024-.828-.564-1.272-1.512-1.272-.588 0-1.2.276-1.2.828 0 .552.72.708 1.44.864 1.2.252 2.436.456 2.436 1.86 0 1.464-1.26 1.884-2.472 1.884Zm5.573-.084c-1.116 0-1.608-.432-1.608-1.404V78.9h-.864V78h.864v-1.668h1.068V78h1.224v.9h-1.224v3.72c0 .396.18.468.624.468.132 0 .348-.024.552-.06l.024.972c-.192.036-.444.06-.66.06Zm3.896.084c-1.344 0-2.556-.624-2.544-2.112l.984-.096c-.012.84.6 1.356 1.536 1.356.984 0 1.476-.336 1.476-.972 0-.684-1.104-.768-1.932-.984-.972-.252-1.932-.54-1.932-1.728 0-1.248 1.152-1.752 2.22-1.752 1.272 0 2.376.504 2.508 1.968l-1.008.156c-.024-.828-.564-1.272-1.512-1.272-.588 0-1.2.276-1.2.828 0 .552.72.708 1.44.864 1.2.252 2.436.456 2.436 1.86 0 1.464-1.26 1.884-2.472 1.884Z"/>
  <defs>
    <clipPath id="a">
      <path fill="#fff" d="M34 17h26v26H34z"/>
    </clipPath>
  </defs>
</svg>
