<svg xmlns="http://www.w3.org/2000/svg" width="104" height="94" fill="none">
  <rect width="60" height="60" x="22" fill="#121212" rx="30"/>
  <rect width="59" height="59" x="22.5" y=".5" stroke="#888" stroke-opacity=".25" rx="29.5"/>
  <path fill="#F8F4EB" fill-rule="evenodd" d="M52 43c-7.18 0-13-5.82-13-12.999C39 22.821 44.82 17 52 17s13 5.822 13 13.001C65 37.181 59.18 43 52 43Zm0-7.23a5.77 5.77 0 1 0 0-11.54 5.77 5.77 0 0 0 0 11.54Zm0 1a6.77 6.77 0 1 0 0-13.54 6.77 6.77 0 0 0 0 13.54Zm3.392-6.922L49.645 33.4v-6.803l5.745 3.252Z" clip-rule="evenodd"/>
  <rect width="104" height="28" y="66" fill="#121212" rx="14"/>
  <rect width="103" height="27" x=".5" y="66.5" stroke="#888" stroke-opacity=".25" rx="13.5"/>
  <path fill="#888" d="M16.584 84h-1.092v-3.588L12.48 75.6h1.26l1.416 2.4c.084.144.564.984.876 1.548.348-.624.612-1.092.876-1.548l1.416-2.4h1.272l-3.012 4.812V84Zm5.362.144c-1.872 0-3-1.188-3-3.144 0-1.824 1.14-3.144 3-3.144 1.836 0 2.988 1.332 2.988 3.144 0 1.884-1.188 3.144-2.988 3.144Zm0-.852c.612 0 1.044-.18 1.332-.504.348-.396.492-1.008.492-1.788s-.144-1.404-.504-1.8c-.288-.312-.708-.492-1.32-.492-.588 0-1.02.156-1.308.456-.384.396-.528 1.032-.528 1.836s.144 1.44.528 1.836c.288.3.708.456 1.308.456Zm8.26-1.92V78h1.08v6h-1.08v-.9c-.325.684-.997 1.044-1.849 1.044-.78 0-1.344-.216-1.776-.672-.468-.492-.48-1.248-.48-1.884V78h1.116v3.528c0 .552-.012 1.02.348 1.368.348.336.744.348 1.092.348.54 0 1.548-.132 1.548-1.872ZM34.907 84h-1.092v-7.452H31.02V75.6h6.684v.948h-2.796V84Zm6.617-2.628V78h1.08v6h-1.08v-.9c-.323.684-.995 1.044-1.847 1.044-.78 0-1.344-.216-1.776-.672-.468-.492-.48-1.248-.48-1.884V78h1.116v3.528c0 .552-.012 1.02.348 1.368.347.336.743.348 1.091.348.54 0 1.549-.132 1.549-1.872Zm5.672-3.528c1.62 0 2.724 1.26 2.724 3.156 0 1.956-1.164 3.144-2.76 3.144-.804 0-1.452-.336-1.896-1.02V84h-1.08v-8.4h1.08v3.18c.456-.636 1.092-.936 1.932-.936Zm1.08 4.98c.348-.408.456-1.032.456-1.824 0-1.44-.444-2.304-1.788-2.304-.636 0-1.044.228-1.296.576-.336.444-.42 1.104-.42 1.74 0 1.512.588 2.304 1.74 2.304.612 0 1.032-.18 1.308-.492Zm7.752-3.78c.36.576.552 1.428.504 2.28h-4.548c.024 1.32.576 1.956 1.704 1.956 1.02 0 1.572-.432 1.716-1.344l1.044.084c-.264 1.404-1.224 2.124-2.748 2.124-.924 0-1.644-.276-2.16-.876-.504-.564-.732-1.344-.732-2.28 0-.888.252-1.668.756-2.232.528-.6 1.26-.9 2.124-.9.948 0 1.848.408 2.34 1.188Zm-2.328-.312c-.672 0-1.176.252-1.416.648-.216.36-.288.768-.288 1.068h3.432c-.012-.324-.132-.78-.324-1.068-.312-.456-.756-.648-1.404-.648ZM61.711 84h-1.069v-8.4h1.572l1.776 4.752c.396 1.056.684 1.884.864 2.436h.013c.18-.552.527-1.56.852-2.436l1.776-4.752h1.572V84h-1.068v-5.076c0-.252.023-1.236.06-1.92h-.013a73.52 73.52 0 0 1-.684 1.92L65.406 84h-1.104l-1.956-5.076a90.37 90.37 0 0 1-.683-1.92h-.012c.035.684.06 1.668.06 1.92V84Zm13.13-2.628V78h1.08v6h-1.08v-.9c-.323.684-.995 1.044-1.847 1.044-.78 0-1.344-.216-1.776-.672-.468-.492-.48-1.248-.48-1.884V78h1.116v3.528c0 .552-.012 1.02.348 1.368.348.336.744.348 1.092.348.54 0 1.548-.132 1.548-1.872Zm4.82 2.772c-1.344 0-2.556-.624-2.544-2.112l.984-.096c-.012.84.6 1.356 1.536 1.356.984 0 1.476-.336 1.476-.972 0-.684-1.104-.768-1.932-.984-.972-.252-1.932-.54-1.932-1.728 0-1.248 1.152-1.752 2.22-1.752 1.272 0 2.376.504 2.508 1.968l-1.008.156c-.024-.828-.564-1.272-1.512-1.272-.588 0-1.2.276-1.2.828 0 .552.72.708 1.44.864 1.2.252 2.436.456 2.436 1.86 0 1.464-1.26 1.884-2.472 1.884Zm4.768-7.272h-1.08V75.6h1.08v1.272Zm0 7.128h-1.08v-6h1.08v6Zm4.196.144c-1.836 0-2.976-1.176-2.976-3.144 0-1.848 1.14-3.144 2.976-3.144 1.524 0 2.388.912 2.628 2.052l-1.008.192c-.18-.696-.54-1.38-1.62-1.38-.684 0-1.116.204-1.392.564-.3.408-.396 1.008-.396 1.716 0 1.356.336 2.28 1.788 2.28.924 0 1.404-.36 1.632-1.224l1.02.108c-.216 1.212-1.26 1.98-2.652 1.98Z"/>
</svg>
