<svg width="105" height="94" viewBox="0 0 105 94" fill="none" xmlns="http://www.w3.org/2000/svg">
<rect x="22.5" width="60" height="60" rx="30" fill="#121212"/>
<rect x="23" y="0.5" width="59" height="59" rx="29.5" stroke="#888888" stroke-opacity="0.25"/>
<path d="M56.418 30.7586C56.5615 30.725 56.7055 30.6906 56.849 30.6562C57.3859 30.528 57.4362 30.1852 57.4366 29.7843C57.4362 29.0635 57.4362 28.3432 57.4366 27.6224C57.4353 27.1519 57.3863 26.8668 56.849 26.995C56.7055 27.0294 56.5615 27.0638 56.418 27.0974V30.7586Z" fill="#F8F4EB"/>
<path d="M47.2695 27.4211C47.3818 27.3953 47.494 27.3688 47.6062 27.3423L47.7184 27.3159C48.1855 27.2057 48.3571 26.9919 48.3571 26.3817V24.6208C48.3567 24.063 48.2533 23.9119 47.7873 24.022C47.615 24.063 47.4423 24.104 47.2695 24.1437V27.4211Z" fill="#F8F4EB"/>
<path fill-rule="evenodd" clip-rule="evenodd" d="M47.8117 38.4662C48.7729 38.239 49.7342 38.0118 50.6954 37.9269L50.6956 41.4259C51.562 41.8407 52.4283 41.996 53.2946 42H53.3651C54.5528 41.9945 55.7405 41.7102 56.9282 41.4259C59.0058 40.9287 61.0834 40.4314 63.1611 41.4259V21.5338C61.0834 20.5394 59.0058 21.0367 56.9282 21.5339C55.9931 21.7577 55.058 21.9816 54.1229 22.0693V18.5742C52.0193 17.5797 49.9155 18.0769 47.8117 18.5742C45.7078 19.0715 43.6039 19.5687 41.5 18.5742V38.4662C43.6039 39.4608 45.7078 38.9635 47.8117 38.4662ZM56.418 38.0633V32.8681C56.5886 32.828 56.7592 32.7872 56.9298 32.7464C57.1217 32.7004 57.3136 32.6545 57.5055 32.6097C59.1108 32.2304 59.7503 31.2066 59.7495 29.5947V26.9975C59.7499 25.4126 59.3359 24.4064 57.3846 24.8626C57.2341 24.8981 57.0835 24.9342 56.9329 24.9702C55.996 25.1946 55.0594 25.4189 54.1221 25.5068V38.4774C54.8872 38.4057 55.6524 38.2427 56.418 38.0633ZM47.2695 35.1092C46.5044 35.2861 45.7392 35.4463 44.9736 35.5175V22.5469C45.9209 22.4587 46.8683 22.2347 47.8155 22.0109C48.0766 21.9492 48.3377 21.8875 48.5987 21.8286C49.9973 21.508 50.7044 22.2427 50.7044 23.6334V25.7081C50.7053 26.7856 50.1165 27.3151 49.6863 27.5874C50.0484 27.6578 50.6712 28.0252 50.6704 28.9884V33.399C50.6696 33.9572 50.7742 34.1919 50.8597 34.3426V34.4298C50.0946 34.4843 49.3298 34.6337 48.5643 34.807C48.4442 34.6944 48.3579 34.4359 48.3571 33.8606V30.0773C48.3562 29.4671 48.2196 29.3418 47.7529 29.452C47.5919 29.4901 47.4305 29.5282 47.2695 29.5654V35.1092Z" fill="#F8F4EB"/>
<rect y="66" width="105" height="28" rx="14" fill="#121212"/>
<rect x="0.5" y="66.5" width="104" height="27" rx="13.5" stroke="#888888" stroke-opacity="0.25"/>
<path d="M19.2878 81.9C19.2878 82.872 19.3598 83.448 19.7678 83.964L19.7558 84H18.5678C18.2918 83.58 18.2078 83.184 18.2078 82.02C18.2078 80.904 17.7638 80.52 16.2878 80.52H14.4158V84H13.3358V75.6H16.1798C17.6678 75.6 19.4918 75.792 19.4918 78.072C19.4918 79.104 18.9278 79.872 18.1958 80.124C18.9878 80.424 19.2878 81.036 19.2878 81.9ZM14.4158 79.596H16.1678C17.1998 79.596 18.4238 79.512 18.4238 78.12C18.4238 76.536 17.1998 76.536 16.1798 76.536H14.4158V79.596ZM26.4666 83.112L26.4906 84C26.2626 84.036 26.0586 84.048 25.8186 84.048C25.1586 84.048 24.7986 83.736 24.7386 83.112C24.4026 83.796 23.7426 84.144 22.7226 84.144C21.7146 84.144 20.7066 83.592 20.7066 82.416C20.7066 81.12 21.7986 80.76 22.7466 80.58L24.7266 80.196C24.7266 79.656 24.7026 79.356 24.5226 79.104C24.3546 78.864 23.9586 78.708 23.4306 78.708C22.3866 78.708 21.9666 79.092 21.9666 80.004L20.9106 79.86C20.9346 79.14 21.1866 78.612 21.6546 78.3C22.0866 78.012 22.7226 77.856 23.4906 77.856C25.0026 77.856 25.7706 78.528 25.7706 79.836V82.704C25.7706 83.016 25.7706 83.16 26.1186 83.16C26.2146 83.16 26.3106 83.148 26.4666 83.112ZM24.7266 81.732V81L22.9146 81.396C22.2786 81.54 21.8106 81.72 21.8106 82.404C21.8106 82.968 22.3026 83.28 22.8906 83.28C24.1986 83.28 24.7266 82.596 24.7266 81.732ZM31.807 78.78V75.6H32.887V84H31.807V83.124C31.363 83.808 30.715 84.144 29.911 84.144C28.315 84.144 27.151 82.956 27.151 81C27.151 79.104 28.255 77.856 29.875 77.856C30.715 77.856 31.351 78.144 31.807 78.78ZM31.279 82.86C31.651 82.488 31.843 81.864 31.843 81.012C31.843 79.896 31.591 78.72 30.127 78.72C29.515 78.72 29.083 78.9 28.807 79.224C28.471 79.62 28.339 80.22 28.339 81C28.339 82.404 28.699 83.292 30.103 83.292C30.607 83.292 30.991 83.148 31.279 82.86ZM35.5517 76.872H34.4717V75.6H35.5517V76.872ZM35.5517 84H34.4717V78H35.5517V84ZM39.7718 84.144C37.8998 84.144 36.7718 82.956 36.7718 81C36.7718 79.176 37.9118 77.856 39.7718 77.856C41.6078 77.856 42.7598 79.188 42.7598 81C42.7598 82.884 41.5718 84.144 39.7718 84.144ZM39.7718 83.292C40.3838 83.292 40.8158 83.112 41.1038 82.788C41.4518 82.392 41.5958 81.78 41.5958 81C41.5958 80.22 41.4518 79.596 41.0918 79.2C40.8038 78.888 40.3838 78.708 39.7718 78.708C39.1838 78.708 38.7518 78.864 38.4638 79.164C38.0798 79.56 37.9358 80.196 37.9358 81C37.9358 81.804 38.0798 82.44 38.4638 82.836C38.7518 83.136 39.1718 83.292 39.7718 83.292ZM52.8269 81.9C52.8269 82.872 52.8989 83.448 53.3069 83.964L53.2949 84H52.1069C51.8309 83.58 51.7469 83.184 51.7469 82.02C51.7469 80.904 51.3029 80.52 49.8269 80.52H47.9549V84H46.8749V75.6H49.7189C51.2069 75.6 53.0309 75.792 53.0309 78.072C53.0309 79.104 52.4669 79.872 51.7349 80.124C52.5269 80.424 52.8269 81.036 52.8269 81.9ZM47.9549 79.596H49.7069C50.7389 79.596 51.9629 79.512 51.9629 78.12C51.9629 76.536 50.7389 76.536 49.7189 76.536H47.9549V79.596ZM59.3828 79.044C59.7428 79.62 59.9348 80.472 59.8867 81.324H55.3388C55.3628 82.644 55.9148 83.28 57.0428 83.28C58.0628 83.28 58.6148 82.848 58.7588 81.936L59.8028 82.02C59.5388 83.424 58.5788 84.144 57.0548 84.144C56.1308 84.144 55.4108 83.868 54.8948 83.268C54.3908 82.704 54.1628 81.924 54.1628 80.988C54.1628 80.1 54.4148 79.32 54.9188 78.756C55.4468 78.156 56.1788 77.856 57.0428 77.856C57.9908 77.856 58.8908 78.264 59.3828 79.044ZM57.0548 78.732C56.3828 78.732 55.8788 78.984 55.6388 79.38C55.4228 79.74 55.3508 80.148 55.3508 80.448H58.7828C58.7708 80.124 58.6508 79.668 58.4588 79.38C58.1468 78.924 57.7028 78.732 57.0548 78.732ZM64.0844 77.856C65.6804 77.856 66.8444 79.044 66.8444 81C66.8444 82.896 65.7404 84.144 64.1204 84.144C63.2804 84.144 62.6444 83.856 62.1884 83.22V86.4H61.1084V78H62.1884V78.876C62.6324 78.192 63.2804 77.856 64.0844 77.856ZM65.1044 82.872C65.5004 82.488 65.6564 81.852 65.6564 81C65.6564 79.596 65.2964 78.708 63.8924 78.708C63.3284 78.708 62.8964 78.888 62.6084 79.26C62.3084 79.644 62.1524 80.22 62.1524 80.988C62.1524 82.104 62.4044 83.28 63.8684 83.28C64.4204 83.28 64.8284 83.136 65.1044 82.872ZM72.1251 81.372V78H73.2051V84H72.1251V83.1C71.8011 83.784 71.1291 84.144 70.2771 84.144C69.4971 84.144 68.9331 83.928 68.5011 83.472C68.0331 82.98 68.0211 82.224 68.0211 81.588V78H69.1371V81.528C69.1371 82.08 69.1251 82.548 69.4851 82.896C69.8331 83.232 70.2291 83.244 70.5771 83.244C71.1171 83.244 72.1251 83.112 72.1251 81.372ZM77.7962 77.844C79.4162 77.844 80.5202 79.104 80.5202 81C80.5202 82.956 79.3562 84.144 77.7602 84.144C76.9562 84.144 76.3082 83.808 75.8642 83.124V84H74.7842V75.6H75.8642V78.78C76.3202 78.144 76.9562 77.844 77.7962 77.844ZM78.8762 82.824C79.2242 82.416 79.3322 81.792 79.3322 81C79.3322 79.56 78.8882 78.696 77.5442 78.696C76.9082 78.696 76.5002 78.924 76.2482 79.272C75.9122 79.716 75.8282 80.376 75.8282 81.012C75.8282 82.524 76.4162 83.316 77.5682 83.316C78.1802 83.316 78.6002 83.136 78.8762 82.824ZM82.8368 84H81.7568V75.6H82.8368V84ZM85.497 76.872H84.417V75.6H85.497V76.872ZM85.497 84H84.417V78H85.497V84ZM89.6932 84.144C87.8572 84.144 86.7172 82.968 86.7172 81C86.7172 79.152 87.8572 77.856 89.6932 77.856C91.2172 77.856 92.0812 78.768 92.3212 79.908L91.3132 80.1C91.1332 79.404 90.7732 78.72 89.6932 78.72C89.0092 78.72 88.5772 78.924 88.3012 79.284C88.0012 79.692 87.9052 80.292 87.9052 81C87.9052 82.356 88.2412 83.28 89.6932 83.28C90.6172 83.28 91.0972 82.92 91.3252 82.056L92.3452 82.164C92.1292 83.376 91.0852 84.144 89.6932 84.144Z" fill="#888888"/>
</svg>
