<svg width="800" height="220" xmlns="http://www.w3.org/2000/svg">
  <defs>
    <linearGradient x1="50%" y1="66.266%" x2="50%" y2="0%" id="a">
      <stop stop-color="#e0e0e0" offset="0%"/>
      <stop stop-color="#e0e0e0" stop-opacity="0" offset="100%"/>
    </linearGradient>
  </defs>
  <g fill="none" fill-rule="evenodd" stroke-linecap="square" stroke="url(#a)">
    <path d="M0 226.86L34.62 64M40 226.86l8.317-39.126M80 226.86l27.03-127.159M120 226.86l20.793-97.814M160 226.86l33.269-156.503M200 226.86l6.238-29.344M240 226.86l27.03-127.159M280 226.86l23.912-112.487M320 226.86l16.634-78.252M360 226.86l43.665-205.41M400 226.86l10.396-48.907M440 226.86l24.951-117.377M480 226.86l18.714-88.033M520 226.86l27.03-127.159M560 226.86l8.317-39.126M600 226.86l12.476-58.689M640 226.86l20.793-97.814M680 226.86l28.07-132.05M720 226.86l16.634-78.252M760 226.86l33.269-156.503" opacity=".391"/>
    <path d="M4 226.86L38.62 64M44 226.86l8.317-39.126M84 226.86l27.03-127.159M124 226.86l20.793-97.814M164 226.86l33.269-156.503M204 226.86l6.238-29.344M244 226.86l27.03-127.159" opacity=".128"/>
    <path d="M740 226.86l27.03-127.159" opacity=".391"/>
    <path d="M744 226.86l27.03-127.159M284 226.86l23.912-112.487M324 226.86l16.634-78.252M364 226.86l43.665-205.41M404 226.86l10.396-48.907M444 226.86l24.951-117.377M484 226.86l18.714-88.033M524 226.86l27.03-127.159M564 226.86l8.317-39.126M604 226.86l12.476-58.689" opacity=".128"/>
    <path d="M20 226.86L47.03 99.701M60 226.86l23.912-112.487M100 226.86l16.634-78.252M140 226.86l41.586-195.629M180 226.86l22.872-107.596M220 226.86l24.951-117.377M260 226.86l18.714-88.033M300 226.86l4.159-19.563M340 226.86l24.951-117.377M380 226.86l8.317-39.126" opacity=".391"/>
    <path d="M24 226.86L51.03 99.701M64 226.86l23.912-112.487M104 226.86l16.634-78.252M144 226.86l41.586-195.629M184 226.86l22.872-107.596M224 226.86l24.951-117.377M264 226.86l18.714-88.033M304 226.86l4.159-19.563M344 226.86l24.951-117.377M384 226.86l8.317-39.126M644 226.86l20.793-97.814M684 226.86l28.07-132.05M724 226.86l16.634-78.252M764 226.86l33.269-156.503" opacity=".128"/>
    <path d="M620 226.86l28.07-132.05M660 226.86l16.634-78.252M700 226.86l33.269-156.503" opacity=".391"/>
    <path d="M624 226.86l28.07-132.05M664 226.86l16.634-78.252M704 226.86l33.269-156.503" opacity=".128"/>
    <path d="M420 226.86l12.476-58.689M460 226.86l20.793-97.814M500 226.86l28.07-132.05M540 226.86l16.634-78.252M580 226.86l39.507-185.847" opacity=".391"/>
    <path d="M424 226.86l12.476-58.689M464 226.86l20.793-97.814M504 226.86l28.07-132.05M544 226.86l16.634-78.252" opacity=".128"/>
    <path d="M780 226.86l16.634-78.252" opacity=".391"/>
    <path d="M784 226.86l16.634-78.252M584 226.86l39.507-185.847" opacity=".128"/>
  </g>
</svg>
