<svg height="339" width="2328" xmlns="http://www.w3.org/2000/svg"><filter id="blur"><feGaussianBlur in="SourceGraphic" stdDeviation="4"/></filter><g fill="#fff" filter="url(#blur)"><path d="M-24 113l12-56.5L0 113l-12 56.5" opacity=".141"/><path d="M-12 56.5L0 0l12 56.5L0 113" opacity="-.025"/><path d="M-24 226l12-56.5L0 226l-12 56.5" opacity=".155"/><path d="M-12 169.5L0 113l12 56.5L0 226" opacity=".012"/><path d="M0 113l12-56.5L24 113l-12 56.5" opacity=".077"/><path d="M12 56.5L24 0l12 56.5L24 113" opacity=".117"/><path d="M-24 339l12-56.5L0 339l-12 56.5" opacity=".306"/><path d="M-12 282.5L0 226l12 56.5L0 339" opacity=".262"/><path d="M0 226l12-56.5L24 226l-12 56.5" opacity=".228"/><path d="M12 169.5L24 113l12 56.5L24 226" opacity=".105"/><path d="M24 113l12-56.5L48 113l-12 56.5" opacity=".15"/><path d="M36 56.5L48 0l12 56.5L48 113" opacity=".115"/><path d="M0 339l12-56.5L24 339l-12 56.5" opacity=".138"/><path d="M12 282.5L24 226l12 56.5L24 339" opacity=".1"/><path d="M24 226l12-56.5L48 226l-12 56.5" opacity=".094"/><path d="M36 169.5L48 113l12 56.5L48 226" opacity=".064"/><path d="M48 113l12-56.5L72 113l-12 56.5" opacity=".116"/><path d="M60 56.5L72 0l12 56.5L72 113" opacity=".092"/><path d="M24 339l12-56.5L48 339l-12 56.5" opacity=".167"/><path d="M36 282.5L48 226l12 56.5L48 339" opacity=".203"/><path d="M48 226l12-56.5L72 226l-12 56.5" opacity=".252"/><path d="M60 169.5L72 113l12 56.5L72 226" opacity=".167"/><path d="M72 113l12-56.5L96 113l-12 56.5" opacity=".174"/><path d="M84 56.5L96 0l12 56.5L96 113" opacity=".089"/><path d="M48 339l12-56.5L72 339l-12 56.5" opacity=".38"/><path d="M60 282.5L72 226l12 56.5L72 339" opacity=".38"/><path d="M72 226l12-56.5L96 226l-12 56.5" opacity=".201"/><path d="M84 169.5L96 113l12 56.5L96 226" opacity=".073"/><path d="M96 113l12-56.5 12 56.5-12 56.5" opacity=".124"/><path d="M108 56.5L120 0l12 56.5-12 56.5" opacity=".085"/><path d="M72 339l12-56.5L96 339l-12 56.5" opacity=".282"/><path d="M84 282.5L96 226l12 56.5L96 339" opacity=".308"/><path d="M96 226l12-56.5 12 56.5-12 56.5" opacity=".153"/><path d="M108 169.5l12-56.5 12 56.5-12 56.5" opacity=".105"/><path d="M120 113l12-56.5 12 56.5-12 56.5" opacity=".013"/><path d="M132 56.5L144 0l12 56.5-12 56.5" opacity=".007"/><path d="M96 339l12-56.5 12 56.5-12 56.5" opacity=".176"/><path d="M108 282.5l12-56.5 12 56.5-12 56.5" opacity=".204"/><path d="M120 226l12-56.5 12 56.5-12 56.5" opacity=".066"/><path d="M132 169.5l12-56.5 12 56.5-12 56.5" opacity=".172"/><path d="M144 113l12-56.5 12 56.5-12 56.5" opacity=".094"/><path d="M156 56.5L168 0l12 56.5-12 56.5" opacity="-.04"/><path d="M120 339l12-56.5 12 56.5-12 56.5" opacity=".416"/><path d="M132 282.5l12-56.5 12 56.5-12 56.5" opacity=".344"/><path d="M144 226l12-56.5 12 56.5-12 56.5" opacity=".323"/><path d="M156 169.5l12-56.5 12 56.5-12 56.5" opacity=".218"/><path d="M168 113l12-56.5 12 56.5-12 56.5" opacity=".153"/><path d="M180 56.5L192 0l12 56.5-12 56.5" opacity=".082"/><path d="M144 339l12-56.5 12 56.5-12 56.5" opacity=".311"/><path d="M156 282.5l12-56.5 12 56.5-12 56.5" opacity=".232"/><path d="M168 226l12-56.5 12 56.5-12 56.5" opacity=".214"/><path d="M180 169.5l12-56.5 12 56.5-12 56.5" opacity=".038"/><path d="M192 113l12-56.5 12 56.5-12 56.5" opacity=".063"/><path d="M204 56.5L216 0l12 56.5-12 56.5" opacity=".054"/><path d="M168 339l12-56.5 12 56.5-12 56.5" opacity=".126"/><path d="M180 282.5l12-56.5 12 56.5-12 56.5" opacity=".122"/><path d="M192 226l12-56.5 12 56.5-12 56.5" opacity=".14"/><path d="M204 169.5l12-56.5 12 56.5-12 56.5" opacity=".14"/><path d="M216 113l12-56.5 12 56.5-12 56.5" opacity="-.002"/><path d="M228 56.5L240 0l12 56.5-12 56.5" opacity=".123"/><path d="M192 339l12-56.5 12 56.5-12 56.5" opacity=".555"/><path d="M204 282.5l12-56.5 12 56.5-12 56.5" opacity=".4"/><path d="M216 226l12-56.5 12 56.5-12 56.5" opacity=".229"/><path d="M228 169.5l12-56.5 12 56.5-12 56.5" opacity=".228"/><path d="M240 113l12-56.5 12 56.5-12 56.5" opacity=".233"/><path d="M252 56.5L264 0l12 56.5-12 56.5" opacity="-.015"/><path d="M216 339l12-56.5 12 56.5-12 56.5" opacity=".215"/><path d="M228 282.5l12-56.5 12 56.5-12 56.5" opacity=".201"/><path d="M240 226l12-56.5 12 56.5-12 56.5" opacity=".116"/><path d="M252 169.5l12-56.5 12 56.5-12 56.5" opacity=".122"/><path d="M264 113l12-56.5 12 56.5-12 56.5" opacity="-.016"/><path d="M276 56.5L288 0l12 56.5-12 56.5" opacity="-.056"/><path d="M240 339l12-56.5 12 56.5-12 56.5" opacity=".363"/><path d="M252 282.5l12-56.5 12 56.5-12 56.5" opacity=".355"/><path d="M264 226l12-56.5 12 56.5-12 56.5" opacity=".235"/><path d="M276 169.5l12-56.5 12 56.5-12 56.5" opacity=".099"/><path d="M288 113l12-56.5 12 56.5-12 56.5" opacity=".086"/><path d="M300 56.5L312 0l12 56.5-12 56.5" opacity=".04"/><path d="M264 339l12-56.5 12 56.5-12 56.5" opacity=".316"/><path d="M276 282.5l12-56.5 12 56.5-12 56.5" opacity=".28"/><path d="M288 226l12-56.5 12 56.5-12 56.5" opacity=".2"/><path d="M300 169.5l12-56.5 12 56.5-12 56.5" opacity=".081"/><path d="M312 113l12-56.5 12 56.5-12 56.5" opacity=".068"/><path d="M324 56.5L336 0l12 56.5-12 56.5" opacity="-.02"/><path d="M288 339l12-56.5 12 56.5-12 56.5" opacity=".438"/><path d="M300 282.5l12-56.5 12 56.5-12 56.5" opacity=".304"/><path d="M312 226l12-56.5 12 56.5-12 56.5" opacity=".344"/><path d="M324 169.5l12-56.5 12 56.5-12 56.5" opacity=".171"/><path d="M336 113l12-56.5 12 56.5-12 56.5" opacity=".166"/><path d="M348 56.5L360 0l12 56.5-12 56.5" opacity=".118"/><path d="M312 339l12-56.5 12 56.5-12 56.5" opacity=".309"/><path d="M324 282.5l12-56.5 12 56.5-12 56.5" opacity=".243"/><path d="M336 226l12-56.5 12 56.5-12 56.5" opacity=".177"/><path d="M348 169.5l12-56.5 12 56.5-12 56.5" opacity=".207"/><path d="M360 113l12-56.5 12 56.5-12 56.5" opacity=".127"/><path d="M372 56.5L384 0l12 56.5-12 56.5" opacity=".092"/><path d="M336 339l12-56.5 12 56.5-12 56.5" opacity=".194"/><path d="M348 282.5l12-56.5 12 56.5-12 56.5" opacity=".143"/><path d="M360 226l12-56.5 12 56.5-12 56.5" opacity=".225"/><path d="M372 169.5l12-56.5 12 56.5-12 56.5" opacity=".085"/><path d="M384 113l12-56.5 12 56.5-12 56.5" opacity=".1"/><path d="M396 56.5L408 0l12 56.5-12 56.5" opacity=".056"/><path d="M360 339l12-56.5 12 56.5-12 56.5" opacity=".324"/><path d="M372 282.5l12-56.5 12 56.5-12 56.5" opacity=".343"/><path d="M384 226l12-56.5 12 56.5-12 56.5" opacity=".322"/><path d="M396 169.5l12-56.5 12 56.5-12 56.5" opacity=".193"/><path d="M408 113l12-56.5 12 56.5-12 56.5" opacity=".038"/><path d="M420 56.5L432 0l12 56.5-12 56.5" opacity=".019"/><path d="M384 339l12-56.5 12 56.5-12 56.5" opacity=".477"/><path d="M396 282.5l12-56.5 12 56.5-12 56.5" opacity=".443"/><path d="M408 226l12-56.5 12 56.5-12 56.5" opacity=".286"/><path d="M420 169.5l12-56.5 12 56.5-12 56.5" opacity=".152"/><path d="M432 113l12-56.5 12 56.5-12 56.5" opacity=".102"/><path d="M444 56.5L456 0l12 56.5-12 56.5" opacity=".079"/><path d="M408 339l12-56.5 12 56.5-12 56.5" opacity=".345"/><path d="M420 282.5l12-56.5 12 56.5-12 56.5" opacity=".231"/><path d="M432 226l12-56.5 12 56.5-12 56.5" opacity=".316"/><path d="M444 169.5l12-56.5 12 56.5-12 56.5" opacity=".155"/><path d="M456 113l12-56.5 12 56.5-12 56.5" opacity=".152"/><path d="M468 56.5L480 0l12 56.5-12 56.5" opacity=".109"/><path d="M432 339l12-56.5 12 56.5-12 56.5" opacity=".329"/><path d="M444 282.5l12-56.5 12 56.5-12 56.5" opacity=".293"/><path d="M456 226l12-56.5 12 56.5-12 56.5" opacity=".127"/><path d="M468 169.5l12-56.5 12 56.5-12 56.5" opacity=".202"/><path d="M480 113l12-56.5 12 56.5-12 56.5" opacity=".182"/><path d="M492 56.5L504 0l12 56.5-12 56.5" opacity="-.015"/><path d="M456 339l12-56.5 12 56.5-12 56.5" opacity=".413"/><path d="M468 282.5l12-56.5 12 56.5-12 56.5" opacity=".196"/><path d="M480 226l12-56.5 12 56.5-12 56.5" opacity=".149"/><path d="M492 169.5l12-56.5 12 56.5-12 56.5" opacity=".268"/><path d="M504 113l12-56.5 12 56.5-12 56.5" opacity=".028"/><path d="M516 56.5L528 0l12 56.5-12 56.5" opacity=".07"/><path d="M480 339l12-56.5 12 56.5-12 56.5" opacity=".346"/><path d="M492 282.5l12-56.5 12 56.5-12 56.5" opacity=".14"/><path d="M504 226l12-56.5 12 56.5-12 56.5" opacity=".139"/><path d="M516 169.5l12-56.5 12 56.5-12 56.5" opacity=".093"/><path d="M528 113l12-56.5 12 56.5-12 56.5" opacity="-.006"/><path d="M540 56.5L552 0l12 56.5-12 56.5" opacity="-.023"/><path d="M504 339l12-56.5 12 56.5-12 56.5" opacity=".174"/><path d="M516 282.5l12-56.5 12 56.5-12 56.5" opacity=".205"/><path d="M528 226l12-56.5 12 56.5-12 56.5" opacity=".242"/><path d="M540 169.5l12-56.5 12 56.5-12 56.5" opacity=".103"/><path d="M552 113l12-56.5 12 56.5-12 56.5" opacity=".047"/><path d="M564 56.5L576 0l12 56.5-12 56.5" opacity=".09"/><path d="M528 339l12-56.5 12 56.5-12 56.5" opacity=".35"/><path d="M540 282.5l12-56.5 12 56.5-12 56.5" opacity=".346"/><path d="M552 226l12-56.5 12 56.5-12 56.5" opacity=".242"/><path d="M564 169.5l12-56.5 12 56.5-12 56.5" opacity=".154"/><path d="M576 113l12-56.5 12 56.5-12 56.5" opacity=".159"/><path d="M588 56.5L600 0l12 56.5-12 56.5" opacity=".016"/><path d="M552 339l12-56.5 12 56.5-12 56.5" opacity=".505"/><path d="M564 282.5l12-56.5 12 56.5-12 56.5" opacity=".502"/><path d="M576 226l12-56.5 12 56.5-12 56.5" opacity=".242"/><path d="M588 169.5l12-56.5 12 56.5-12 56.5" opacity=".183"/><path d="M600 113l12-56.5 12 56.5-12 56.5" opacity=".24"/><path d="M612 56.5L624 0l12 56.5-12 56.5" opacity=".01"/><path d="M576 339l12-56.5 12 56.5-12 56.5" opacity=".417"/><path d="M588 282.5l12-56.5 12 56.5-12 56.5" opacity=".337"/><path d="M600 226l12-56.5 12 56.5-12 56.5" opacity=".36"/><path d="M612 169.5l12-56.5 12 56.5-12 56.5" opacity=".31"/><path d="M624 113l12-56.5 12 56.5-12 56.5" opacity=".056"/><path d="M636 56.5L648 0l12 56.5-12 56.5" opacity=".02"/><path d="M600 339l12-56.5 12 56.5-12 56.5" opacity=".198"/><path d="M612 282.5l12-56.5 12 56.5-12 56.5" opacity=".304"/><path d="M624 226l12-56.5 12 56.5-12 56.5" opacity=".1"/><path d="M636 169.5l12-56.5 12 56.5-12 56.5" opacity=".094"/><path d="M648 113l12-56.5 12 56.5-12 56.5" opacity="-.001"/><path d="M660 56.5L672 0l12 56.5-12 56.5" opacity=".023"/><path d="M624 339l12-56.5 12 56.5-12 56.5" opacity=".414"/><path d="M636 282.5l12-56.5 12 56.5-12 56.5" opacity=".237"/><path d="M648 226l12-56.5 12 56.5-12 56.5" opacity=".295"/><path d="M660 169.5l12-56.5 12 56.5-12 56.5" opacity=".239"/><path d="M672 113l12-56.5 12 56.5-12 56.5" opacity=".146"/><path d="M684 56.5L696 0l12 56.5-12 56.5" opacity=".125"/><path d="M648 339l12-56.5 12 56.5-12 56.5" opacity=".444"/><path d="M660 282.5l12-56.5 12 56.5-12 56.5" opacity=".423"/><path d="M672 226l12-56.5 12 56.5-12 56.5" opacity=".357"/><path d="M684 169.5l12-56.5 12 56.5-12 56.5" opacity=".274"/><path d="M696 113l12-56.5 12 56.5-12 56.5" opacity=".184"/><path d="M708 56.5L720 0l12 56.5-12 56.5" opacity=".092"/><path d="M672 339l12-56.5 12 56.5-12 56.5" opacity=".32"/><path d="M684 282.5l12-56.5 12 56.5-12 56.5" opacity=".154"/><path d="M696 226l12-56.5 12 56.5-12 56.5" opacity=".114"/><path d="M708 169.5l12-56.5 12 56.5-12 56.5" opacity=".188"/><path d="M720 113l12-56.5 12 56.5-12 56.5" opacity=".085"/><path d="M732 56.5L744 0l12 56.5-12 56.5" opacity=".135"/><path d="M696 339l12-56.5 12 56.5-12 56.5" opacity=".287"/><path d="M708 282.5l12-56.5 12 56.5-12 56.5" opacity=".141"/><path d="M720 226l12-56.5 12 56.5-12 56.5" opacity=".178"/><path d="M732 169.5l12-56.5 12 56.5-12 56.5" opacity=".103"/><path d="M744 113l12-56.5 12 56.5-12 56.5" opacity="-.009"/><path d="M756 56.5L768 0l12 56.5-12 56.5" opacity="-.037"/><path d="M720 339l12-56.5 12 56.5-12 56.5" opacity=".451"/><path d="M732 282.5l12-56.5 12 56.5-12 56.5" opacity=".426"/><path d="M744 226l12-56.5 12 56.5-12 56.5" opacity=".228"/><path d="M756 169.5l12-56.5 12 56.5-12 56.5" opacity=".3"/><path d="M768 113l12-56.5 12 56.5-12 56.5" opacity=".195"/><path d="M780 56.5L792 0l12 56.5-12 56.5" opacity="-.017"/><path d="M744 339l12-56.5 12 56.5-12 56.5" opacity=".342"/><path d="M756 282.5l12-56.5 12 56.5-12 56.5" opacity=".319"/><path d="M768 226l12-56.5 12 56.5-12 56.5" opacity=".148"/><path d="M780 169.5l12-56.5 12 56.5-12 56.5" opacity=".161"/><path d="M792 113l12-56.5 12 56.5-12 56.5" opacity=".033"/><path d="M804 56.5L816 0l12 56.5-12 56.5" opacity=".125"/><path d="M768 339l12-56.5 12 56.5-12 56.5" opacity=".164"/><path d="M780 282.5l12-56.5 12 56.5-12 56.5" opacity=".176"/><path d="M792 226l12-56.5 12 56.5-12 56.5" opacity=".243"/><path d="M804 169.5l12-56.5 12 56.5-12 56.5" opacity=".071"/><path d="M816 113l12-56.5 12 56.5-12 56.5" opacity=".076"/><path d="M828 56.5L840 0l12 56.5-12 56.5" opacity=".043"/><path d="M792 339l12-56.5 12 56.5-12 56.5" opacity=".265"/><path d="M804 282.5l12-56.5 12 56.5-12 56.5" opacity=".246"/><path d="M816 226l12-56.5 12 56.5-12 56.5" opacity=".181"/><path d="M828 169.5l12-56.5 12 56.5-12 56.5" opacity=".057"/><path d="M840 113l12-56.5 12 56.5-12 56.5" opacity=".113"/><path d="M852 56.5L864 0l12 56.5-12 56.5" opacity=".122"/><path d="M816 339l12-56.5 12 56.5-12 56.5" opacity=".387"/><path d="M828 282.5l12-56.5 12 56.5-12 56.5" opacity=".345"/><path d="M840 226l12-56.5 12 56.5-12 56.5" opacity=".209"/><path d="M852 169.5l12-56.5 12 56.5-12 56.5" opacity=".146"/><path d="M864 113l12-56.5 12 56.5-12 56.5" opacity=".085"/><path d="M876 56.5L888 0l12 56.5-12 56.5" opacity=".134"/><path d="M840 339l12-56.5 12 56.5-12 56.5" opacity=".26"/><path d="M852 282.5l12-56.5 12 56.5-12 56.5" opacity=".297"/><path d="M864 226l12-56.5 12 56.5-12 56.5" opacity=".149"/><path d="M876 169.5l12-56.5 12 56.5-12 56.5" opacity=".093"/><path d="M888 113l12-56.5 12 56.5-12 56.5" opacity=".108"/><path d="M900 56.5L912 0l12 56.5-12 56.5" opacity=".003"/><path d="M864 339l12-56.5 12 56.5-12 56.5" opacity=".245"/><path d="M876 282.5l12-56.5 12 56.5-12 56.5" opacity=".19"/><path d="M888 226l12-56.5 12 56.5-12 56.5" opacity=".282"/><path d="M900 169.5l12-56.5 12 56.5-12 56.5" opacity=".192"/><path d="M912 113l12-56.5 12 56.5-12 56.5" opacity=".149"/><path d="M924 56.5L936 0l12 56.5-12 56.5" opacity=".145"/><path d="M888 339l12-56.5 12 56.5-12 56.5" opacity=".39"/><path d="M900 282.5l12-56.5 12 56.5-12 56.5" opacity=".463"/><path d="M912 226l12-56.5 12 56.5-12 56.5" opacity=".383"/><path d="M924 169.5l12-56.5 12 56.5-12 56.5" opacity=".281"/><path d="M936 113l12-56.5 12 56.5-12 56.5" opacity=".239"/><path d="M948 56.5L960 0l12 56.5-12 56.5" opacity=".122"/><path d="M912 339l12-56.5 12 56.5-12 56.5" opacity=".326"/><path d="M924 282.5l12-56.5 12 56.5-12 56.5" opacity=".216"/><path d="M936 226l12-56.5 12 56.5-12 56.5" opacity=".161"/><path d="M948 169.5l12-56.5 12 56.5-12 56.5" opacity=".22"/><path d="M960 113l12-56.5 12 56.5-12 56.5" opacity=".121"/><path d="M972 56.5L984 0l12 56.5-12 56.5" opacity=".063"/><path d="M936 339l12-56.5 12 56.5-12 56.5" opacity=".469"/><path d="M948 282.5l12-56.5 12 56.5-12 56.5" opacity=".378"/><path d="M960 226l12-56.5 12 56.5-12 56.5" opacity=".309"/><path d="M972 169.5l12-56.5 12 56.5-12 56.5" opacity=".25"/><path d="M984 113l12-56.5 12 56.5-12 56.5" opacity=".033"/><path d="M996 56.5L1008 0l12 56.5-12 56.5" opacity=".065"/><path d="M960 339l12-56.5 12 56.5-12 56.5" opacity=".337"/><path d="M972 282.5l12-56.5 12 56.5-12 56.5" opacity=".271"/><path d="M984 226l12-56.5 12 56.5-12 56.5" opacity=".165"/><path d="M996 169.5l12-56.5 12 56.5-12 56.5" opacity=".2"/><path d="M1008 113l12-56.5 12 56.5-12 56.5" opacity=".09"/><path d="M1020 56.5L1032 0l12 56.5-12 56.5" opacity=".102"/><path d="M984 339l12-56.5 12 56.5-12 56.5" opacity=".477"/><path d="M996 282.5l12-56.5 12 56.5-12 56.5" opacity=".377"/><path d="M1008 226l12-56.5 12 56.5-12 56.5" opacity=".352"/><path d="M1020 169.5l12-56.5 12 56.5-12 56.5" opacity=".248"/><path d="M1032 113l12-56.5 12 56.5-12 56.5" opacity=".212"/><path d="M1044 56.5L1056 0l12 56.5-12 56.5" opacity=".009"/><path d="M1008 339l12-56.5 12 56.5-12 56.5" opacity=".367"/><path d="M1020 282.5l12-56.5 12 56.5-12 56.5" opacity=".193"/><path d="M1032 226l12-56.5 12 56.5-12 56.5" opacity=".216"/><path d="M1044 169.5l12-56.5 12 56.5-12 56.5" opacity=".131"/><path d="M1056 113l12-56.5 12 56.5-12 56.5" opacity=".027"/><path d="M1068 56.5L1080 0l12 56.5-12 56.5" opacity="-.007"/><path d="M1032 339l12-56.5 12 56.5-12 56.5" opacity=".292"/><path d="M1044 282.5l12-56.5 12 56.5-12 56.5" opacity=".293"/><path d="M1056 226l12-56.5 12 56.5-12 56.5" opacity=".128"/><path d="M1068 169.5l12-56.5 12 56.5-12 56.5" opacity=".204"/><path d="M1080 113l12-56.5 12 56.5-12 56.5" opacity=".152"/><path d="M1092 56.5L1104 0l12 56.5-12 56.5" opacity=".075"/><path d="M1056 339l12-56.5 12 56.5-12 56.5" opacity=".402"/><path d="M1068 282.5l12-56.5 12 56.5-12 56.5" opacity=".381"/><path d="M1080 226l12-56.5 12 56.5-12 56.5" opacity=".319"/><path d="M1092 169.5l12-56.5 12 56.5-12 56.5" opacity=".289"/><path d="M1104 113l12-56.5 12 56.5-12 56.5" opacity=".205"/><path d="M1116 56.5L1128 0l12 56.5-12 56.5" opacity=".115"/><path d="M1080 339l12-56.5 12 56.5-12 56.5" opacity=".276"/><path d="M1092 282.5l12-56.5 12 56.5-12 56.5" opacity=".335"/><path d="M1104 226l12-56.5 12 56.5-12 56.5" opacity=".237"/><path d="M1116 169.5l12-56.5 12 56.5-12 56.5" opacity=".143"/><path d="M1128 113l12-56.5 12 56.5-12 56.5" opacity=".191"/><path d="M1140 56.5L1152 0l12 56.5-12 56.5" opacity=".135"/><path d="M1104 339l12-56.5 12 56.5-12 56.5" opacity=".491"/><path d="M1116 282.5l12-56.5 12 56.5-12 56.5" opacity=".436"/><path d="M1128 226l12-56.5 12 56.5-12 56.5" opacity=".346"/><path d="M1140 169.5l12-56.5 12 56.5-12 56.5" opacity=".219"/><path d="M1152 113l12-56.5 12 56.5-12 56.5" opacity=".076"/><path d="M1164 56.5L1176 0l12 56.5-12 56.5" opacity=".018"/><path d="M1128 339l12-56.5 12 56.5-12 56.5" opacity=".25"/><path d="M1140 282.5l12-56.5 12 56.5-12 56.5" opacity=".307"/><path d="M1152 226l12-56.5 12 56.5-12 56.5" opacity=".137"/><path d="M1164 169.5l12-56.5 12 56.5-12 56.5" opacity=".222"/><path d="M1176 113l12-56.5 12 56.5-12 56.5" opacity=".128"/><path d="M1188 56.5L1200 0l12 56.5-12 56.5" opacity=".064"/><path d="M1152 339l12-56.5 12 56.5-12 56.5" opacity=".565"/><path d="M1164 282.5l12-56.5 12 56.5-12 56.5" opacity=".368"/><path d="M1176 226l12-56.5 12 56.5-12 56.5" opacity=".358"/><path d="M1188 169.5l12-56.5 12 56.5-12 56.5" opacity=".304"/><path d="M1200 113l12-56.5 12 56.5-12 56.5" opacity=".1"/><path d="M1212 56.5L1224 0l12 56.5-12 56.5" opacity=".167"/><path d="M1176 339l12-56.5 12 56.5-12 56.5" opacity=".517"/><path d="M1188 282.5l12-56.5 12 56.5-12 56.5" opacity=".356"/><path d="M1200 226l12-56.5 12 56.5-12 56.5" opacity=".397"/><path d="M1212 169.5l12-56.5 12 56.5-12 56.5" opacity=".191"/><path d="M1224 113l12-56.5 12 56.5-12 56.5" opacity=".082"/><path d="M1236 56.5L1248 0l12 56.5-12 56.5" opacity=".077"/><path d="M1200 339l12-56.5 12 56.5-12 56.5" opacity=".34"/><path d="M1212 282.5l12-56.5 12 56.5-12 56.5" opacity=".351"/><path d="M1224 226l12-56.5 12 56.5-12 56.5" opacity=".16"/><path d="M1236 169.5l12-56.5 12 56.5-12 56.5" opacity=".124"/><path d="M1248 113l12-56.5 12 56.5-12 56.5" opacity=".046"/><path d="M1260 56.5L1272 0l12 56.5-12 56.5" opacity=".068"/><path d="M1224 339l12-56.5 12 56.5-12 56.5" opacity=".38"/><path d="M1236 282.5l12-56.5 12 56.5-12 56.5" opacity=".261"/><path d="M1248 226l12-56.5 12 56.5-12 56.5" opacity=".211"/><path d="M1260 169.5l12-56.5 12 56.5-12 56.5" opacity=".213"/><path d="M1272 113l12-56.5 12 56.5-12 56.5" opacity=".099"/><path d="M1284 56.5L1296 0l12 56.5-12 56.5" opacity=".088"/><path d="M1248 339l12-56.5 12 56.5-12 56.5" opacity=".522"/><path d="M1260 282.5l12-56.5 12 56.5-12 56.5" opacity=".379"/><path d="M1272 226l12-56.5 12 56.5-12 56.5" opacity=".303"/><path d="M1284 169.5l12-56.5 12 56.5-12 56.5" opacity=".221"/><path d="M1296 113l12-56.5 12 56.5-12 56.5" opacity=".233"/><path d="M1308 56.5L1320 0l12 56.5-12 56.5" opacity=".076"/><path d="M1272 339l12-56.5 12 56.5-12 56.5" opacity=".304"/><path d="M1284 282.5l12-56.5 12 56.5-12 56.5" opacity=".078"/><path d="M1296 226l12-56.5 12 56.5-12 56.5" opacity=".105"/><path d="M1308 169.5l12-56.5 12 56.5-12 56.5" opacity=".029"/><path d="M1320 113l12-56.5 12 56.5-12 56.5" opacity=".033"/><path d="M1332 56.5L1344 0l12 56.5-12 56.5" opacity="-.004"/><path d="M1296 339l12-56.5 12 56.5-12 56.5" opacity=".522"/><path d="M1308 282.5l12-56.5 12 56.5-12 56.5" opacity=".428"/><path d="M1320 226l12-56.5 12 56.5-12 56.5" opacity=".339"/><path d="M1332 169.5l12-56.5 12 56.5-12 56.5" opacity=".334"/><path d="M1344 113l12-56.5 12 56.5-12 56.5" opacity=".1"/><path d="M1356 56.5L1368 0l12 56.5-12 56.5" opacity=".165"/><path d="M1320 339l12-56.5 12 56.5-12 56.5" opacity=".333"/><path d="M1332 282.5l12-56.5 12 56.5-12 56.5" opacity=".299"/><path d="M1344 226l12-56.5 12 56.5-12 56.5" opacity=".314"/><path d="M1356 169.5l12-56.5 12 56.5-12 56.5" opacity=".15"/><path d="M1368 113l12-56.5 12 56.5-12 56.5" opacity=".058"/><path d="M1380 56.5L1392 0l12 56.5-12 56.5" opacity=".141"/><path d="M1344 339l12-56.5 12 56.5-12 56.5" opacity=".259"/><path d="M1356 282.5l12-56.5 12 56.5-12 56.5" opacity=".115"/><path d="M1368 226l12-56.5 12 56.5-12 56.5" opacity=".127"/><path d="M1380 169.5l12-56.5 12 56.5-12 56.5" opacity=".046"/><path d="M1392 113l12-56.5 12 56.5-12 56.5" opacity=".15"/><path d="M1404 56.5L1416 0l12 56.5-12 56.5" opacity=".078"/><path d="M1368 339l12-56.5 12 56.5-12 56.5" opacity=".308"/><path d="M1380 282.5l12-56.5 12 56.5-12 56.5" opacity=".211"/><path d="M1392 226l12-56.5 12 56.5-12 56.5" opacity=".096"/><path d="M1404 169.5l12-56.5 12 56.5-12 56.5" opacity=".207"/><path d="M1416 113l12-56.5 12 56.5-12 56.5" opacity=".035"/><path d="M1428 56.5L1440 0l12 56.5-12 56.5" opacity=".011"/><path d="M1392 339l12-56.5 12 56.5-12 56.5" opacity=".518"/><path d="M1404 282.5l12-56.5 12 56.5-12 56.5" opacity=".452"/><path d="M1416 226l12-56.5 12 56.5-12 56.5" opacity=".346"/><path d="M1428 169.5l12-56.5 12 56.5-12 56.5" opacity=".165"/><path d="M1440 113l12-56.5 12 56.5-12 56.5" opacity=".25"/><path d="M1452 56.5L1464 0l12 56.5-12 56.5" opacity=".082"/><path d="M1416 339l12-56.5 12 56.5-12 56.5" opacity=".516"/><path d="M1428 282.5l12-56.5 12 56.5-12 56.5" opacity=".283"/><path d="M1440 226l12-56.5 12 56.5-12 56.5" opacity=".207"/><path d="M1452 169.5l12-56.5 12 56.5-12 56.5" opacity=".216"/><path d="M1464 113l12-56.5 12 56.5-12 56.5" opacity=".238"/><path d="M1476 56.5L1488 0l12 56.5-12 56.5" opacity=".024"/><path d="M1440 339l12-56.5 12 56.5-12 56.5" opacity=".216"/><path d="M1452 282.5l12-56.5 12 56.5-12 56.5" opacity=".261"/><path d="M1464 226l12-56.5 12 56.5-12 56.5" opacity=".086"/><path d="M1476 169.5l12-56.5 12 56.5-12 56.5" opacity=".089"/><path d="M1488 113l12-56.5 12 56.5-12 56.5" opacity=".127"/><path d="M1500 56.5L1512 0l12 56.5-12 56.5" opacity=".088"/><path d="M1464 339l12-56.5 12 56.5-12 56.5" opacity=".313"/><path d="M1476 282.5l12-56.5 12 56.5-12 56.5" opacity=".304"/><path d="M1488 226l12-56.5 12 56.5-12 56.5" opacity=".309"/><path d="M1500 169.5l12-56.5 12 56.5-12 56.5" opacity=".251"/><path d="M1512 113l12-56.5 12 56.5-12 56.5" opacity=".04"/><path d="M1524 56.5L1536 0l12 56.5-12 56.5" opacity=".077"/><path d="M1488 339l12-56.5 12 56.5-12 56.5" opacity=".251"/><path d="M1500 282.5l12-56.5 12 56.5-12 56.5" opacity=".304"/><path d="M1512 226l12-56.5 12 56.5-12 56.5" opacity=".187"/><path d="M1524 169.5l12-56.5 12 56.5-12 56.5" opacity=".238"/><path d="M1536 113l12-56.5 12 56.5-12 56.5" opacity=".045"/><path d="M1548 56.5L1560 0l12 56.5-12 56.5" opacity=".073"/><path d="M1512 339l12-56.5 12 56.5-12 56.5" opacity=".483"/><path d="M1524 282.5l12-56.5 12 56.5-12 56.5" opacity=".314"/><path d="M1536 226l12-56.5 12 56.5-12 56.5" opacity=".241"/><path d="M1548 169.5l12-56.5 12 56.5-12 56.5" opacity=".2"/><path d="M1560 113l12-56.5 12 56.5-12 56.5" opacity=".226"/><path d="M1572 56.5L1584 0l12 56.5-12 56.5" opacity=".003"/><path d="M1536 339l12-56.5 12 56.5-12 56.5" opacity=".134"/><path d="M1548 282.5l12-56.5 12 56.5-12 56.5" opacity=".191"/><path d="M1560 226l12-56.5 12 56.5-12 56.5" opacity=".22"/><path d="M1572 169.5l12-56.5 12 56.5-12 56.5" opacity=".082"/><path d="M1584 113l12-56.5 12 56.5-12 56.5" opacity=".152"/><path d="M1596 56.5L1608 0l12 56.5-12 56.5" opacity="-.02"/><path d="M1560 339l12-56.5 12 56.5-12 56.5" opacity=".127"/><path d="M1572 282.5l12-56.5 12 56.5-12 56.5" opacity=".143"/><path d="M1584 226l12-56.5 12 56.5-12 56.5" opacity=".158"/><path d="M1596 169.5l12-56.5 12 56.5-12 56.5" opacity=".107"/><path d="M1608 113l12-56.5 12 56.5-12 56.5" opacity="-.019"/><path d="M1620 56.5L1632 0l12 56.5-12 56.5" opacity=".018"/><path d="M1584 339l12-56.5 12 56.5-12 56.5" opacity=".17"/><path d="M1596 282.5l12-56.5 12 56.5-12 56.5" opacity=".206"/><path d="M1608 226l12-56.5 12 56.5-12 56.5" opacity=".075"/><path d="M1620 169.5l12-56.5 12 56.5-12 56.5" opacity=".159"/><path d="M1632 113l12-56.5 12 56.5-12 56.5" opacity="-.023"/><path d="M1644 56.5L1656 0l12 56.5-12 56.5" opacity="-.061"/><path d="M1608 339l12-56.5 12 56.5-12 56.5" opacity=".288"/><path d="M1620 282.5l12-56.5 12 56.5-12 56.5" opacity=".268"/><path d="M1632 226l12-56.5 12 56.5-12 56.5" opacity=".264"/><path d="M1644 169.5l12-56.5 12 56.5-12 56.5" opacity=".263"/><path d="M1656 113l12-56.5 12 56.5-12 56.5" opacity=".199"/><path d="M1668 56.5L1680 0l12 56.5-12 56.5" opacity=".154"/><path d="M1632 339l12-56.5 12 56.5-12 56.5" opacity=".372"/><path d="M1644 282.5l12-56.5 12 56.5-12 56.5" opacity=".318"/><path d="M1656 226l12-56.5 12 56.5-12 56.5" opacity=".237"/><path d="M1668 169.5l12-56.5 12 56.5-12 56.5" opacity=".146"/><path d="M1680 113l12-56.5 12 56.5-12 56.5" opacity=".135"/><path d="M1692 56.5L1704 0l12 56.5-12 56.5" opacity=".054"/><path d="M1656 339l12-56.5 12 56.5-12 56.5" opacity=".531"/><path d="M1668 282.5l12-56.5 12 56.5-12 56.5" opacity=".471"/><path d="M1680 226l12-56.5 12 56.5-12 56.5" opacity=".351"/><path d="M1692 169.5l12-56.5 12 56.5-12 56.5" opacity=".242"/><path d="M1704 113l12-56.5 12 56.5-12 56.5" opacity=".069"/><path d="M1716 56.5L1728 0l12 56.5-12 56.5" opacity=".005"/><path d="M1680 339l12-56.5 12 56.5-12 56.5" opacity=".302"/><path d="M1692 282.5l12-56.5 12 56.5-12 56.5" opacity=".196"/><path d="M1704 226l12-56.5 12 56.5-12 56.5" opacity=".169"/><path d="M1716 169.5l12-56.5 12 56.5-12 56.5" opacity=".18"/><path d="M1728 113l12-56.5 12 56.5-12 56.5" opacity=".042"/><path d="M1740 56.5L1752 0l12 56.5-12 56.5" opacity=".116"/><path d="M1704 339l12-56.5 12 56.5-12 56.5" opacity=".374"/><path d="M1716 282.5l12-56.5 12 56.5-12 56.5" opacity=".293"/><path d="M1728 226l12-56.5 12 56.5-12 56.5" opacity=".124"/><path d="M1740 169.5l12-56.5 12 56.5-12 56.5" opacity=".16"/><path d="M1752 113l12-56.5 12 56.5-12 56.5" opacity="-.005"/><path d="M1764 56.5L1776 0l12 56.5-12 56.5" opacity="-.016"/><path d="M1728 339l12-56.5 12 56.5-12 56.5" opacity=".334"/><path d="M1740 282.5l12-56.5 12 56.5-12 56.5" opacity=".16"/><path d="M1752 226l12-56.5 12 56.5-12 56.5" opacity=".142"/><path d="M1764 169.5l12-56.5 12 56.5-12 56.5" opacity=".101"/><path d="M1776 113l12-56.5 12 56.5-12 56.5" opacity=".069"/><path d="M1788 56.5L1800 0l12 56.5-12 56.5" opacity=".064"/><path d="M1752 339l12-56.5 12 56.5-12 56.5" opacity=".341"/><path d="M1764 282.5l12-56.5 12 56.5-12 56.5" opacity=".193"/><path d="M1776 226l12-56.5 12 56.5-12 56.5" opacity=".12"/><path d="M1788 169.5l12-56.5 12 56.5-12 56.5" opacity=".088"/><path d="M1800 113l12-56.5 12 56.5-12 56.5" opacity=".013"/><path d="M1812 56.5L1824 0l12 56.5-12 56.5" opacity="-.037"/><path d="M1776 339l12-56.5 12 56.5-12 56.5" opacity=".137"/><path d="M1788 282.5l12-56.5 12 56.5-12 56.5" opacity=".259"/><path d="M1800 226l12-56.5 12 56.5-12 56.5" opacity=".17"/><path d="M1812 169.5l12-56.5 12 56.5-12 56.5" opacity=".078"/><path d="M1824 113l12-56.5 12 56.5-12 56.5" opacity=".058"/><path d="M1836 56.5L1848 0l12 56.5-12 56.5" opacity=".026"/><path d="M1800 339l12-56.5 12 56.5-12 56.5" opacity=".403"/><path d="M1812 282.5l12-56.5 12 56.5-12 56.5" opacity=".412"/><path d="M1824 226l12-56.5 12 56.5-12 56.5" opacity=".341"/><path d="M1836 169.5l12-56.5 12 56.5-12 56.5" opacity=".123"/><path d="M1848 113l12-56.5 12 56.5-12 56.5" opacity=".167"/><path d="M1860 56.5L1872 0l12 56.5-12 56.5" opacity=".02"/><path d="M1824 339l12-56.5 12 56.5-12 56.5" opacity=".255"/><path d="M1836 282.5l12-56.5 12 56.5-12 56.5" opacity=".131"/><path d="M1848 226l12-56.5 12 56.5-12 56.5" opacity=".101"/><path d="M1860 169.5l12-56.5 12 56.5-12 56.5" opacity=".198"/><path d="M1872 113l12-56.5 12 56.5-12 56.5" opacity=".026"/><path d="M1884 56.5L1896 0l12 56.5-12 56.5" opacity=".081"/><path d="M1848 339l12-56.5 12 56.5-12 56.5" opacity=".373"/><path d="M1860 282.5l12-56.5 12 56.5-12 56.5" opacity=".398"/><path d="M1872 226l12-56.5 12 56.5-12 56.5" opacity=".268"/><path d="M1884 169.5l12-56.5 12 56.5-12 56.5" opacity=".286"/><path d="M1896 113l12-56.5 12 56.5-12 56.5" opacity=".207"/><path d="M1908 56.5L1920 0l12 56.5-12 56.5" opacity=".056"/><path d="M1872 339l12-56.5 12 56.5-12 56.5" opacity=".375"/><path d="M1884 282.5l12-56.5 12 56.5-12 56.5" opacity=".293"/><path d="M1896 226l12-56.5 12 56.5-12 56.5" opacity=".253"/><path d="M1908 169.5l12-56.5 12 56.5-12 56.5" opacity=".069"/><path d="M1920 113l12-56.5 12 56.5-12 56.5" opacity="-.001"/><path d="M1932 56.5L1944 0l12 56.5-12 56.5" opacity=".078"/><path d="M1896 339l12-56.5 12 56.5-12 56.5" opacity=".35"/><path d="M1908 282.5l12-56.5 12 56.5-12 56.5" opacity=".227"/><path d="M1920 226l12-56.5 12 56.5-12 56.5" opacity=".21"/><path d="M1932 169.5l12-56.5 12 56.5-12 56.5" opacity=".087"/><path d="M1956 56.5L1968 0l12 56.5-12 56.5" opacity=".029"/><path d="M1920 339l12-56.5 12 56.5-12 56.5" opacity=".283"/><path d="M1932 282.5l12-56.5 12 56.5-12 56.5" opacity=".136"/><path d="M1944 226l12-56.5 12 56.5-12 56.5" opacity=".182"/><path d="M1956 169.5l12-56.5 12 56.5-12 56.5" opacity=".107"/><path d="M1968 113l12-56.5 12 56.5-12 56.5" opacity=".129"/><path d="M1980 56.5L1992 0l12 56.5-12 56.5" opacity=".051"/><path d="M1944 339l12-56.5 12 56.5-12 56.5" opacity=".434"/><path d="M1956 282.5l12-56.5 12 56.5-12 56.5" opacity=".324"/><path d="M1968 226l12-56.5 12 56.5-12 56.5" opacity=".157"/><path d="M1980 169.5l12-56.5 12 56.5-12 56.5" opacity=".241"/><path d="M1992 113l12-56.5 12 56.5-12 56.5" opacity=".176"/><path d="M2004 56.5L2016 0l12 56.5-12 56.5" opacity=".099"/><path d="M1968 339l12-56.5 12 56.5-12 56.5" opacity=".343"/><path d="M1980 282.5l12-56.5 12 56.5-12 56.5" opacity=".176"/><path d="M1992 226l12-56.5 12 56.5-12 56.5" opacity=".113"/><path d="M2004 169.5l12-56.5 12 56.5-12 56.5" opacity=".079"/><path d="M2016 113l12-56.5 12 56.5-12 56.5" opacity=".087"/><path d="M2028 56.5L2040 0l12 56.5-12 56.5" opacity=".028"/><path d="M1992 339l12-56.5 12 56.5-12 56.5" opacity=".155"/><path d="M2004 282.5l12-56.5 12 56.5-12 56.5" opacity=".128"/><path d="M2016 226l12-56.5 12 56.5-12 56.5" opacity=".1"/><path d="M2028 169.5l12-56.5 12 56.5-12 56.5" opacity=".043"/><path d="M2040 113l12-56.5 12 56.5-12 56.5" opacity=".123"/><path d="M2052 56.5L2064 0l12 56.5-12 56.5" opacity=".119"/><path d="M2016 339l12-56.5 12 56.5-12 56.5" opacity=".331"/><path d="M2028 282.5l12-56.5 12 56.5-12 56.5" opacity=".123"/><path d="M2040 226l12-56.5 12 56.5-12 56.5" opacity=".24"/><path d="M2052 169.5l12-56.5 12 56.5-12 56.5" opacity=".189"/><path d="M2064 113l12-56.5 12 56.5-12 56.5" opacity=".115"/><path d="M2076 56.5L2088 0l12 56.5-12 56.5" opacity="-.044"/><path d="M2040 339l12-56.5 12 56.5-12 56.5" opacity=".29"/><path d="M2052 282.5l12-56.5 12 56.5-12 56.5" opacity=".345"/><path d="M2064 226l12-56.5 12 56.5-12 56.5" opacity=".215"/><path d="M2076 169.5l12-56.5 12 56.5-12 56.5" opacity=".201"/><path d="M2088 113l12-56.5 12 56.5-12 56.5" opacity=".154"/><path d="M2100 56.5L2112 0l12 56.5-12 56.5" opacity="-.024"/><path d="M2064 339l12-56.5 12 56.5-12 56.5" opacity=".255"/><path d="M2076 282.5l12-56.5 12 56.5-12 56.5" opacity=".291"/><path d="M2088 226l12-56.5 12 56.5-12 56.5" opacity=".101"/><path d="M2100 169.5l12-56.5 12 56.5-12 56.5" opacity=".049"/><path d="M2112 113l12-56.5 12 56.5-12 56.5" opacity=".102"/><path d="M2124 56.5L2136 0l12 56.5-12 56.5" opacity=".136"/><path d="M2088 339l12-56.5 12 56.5-12 56.5" opacity=".39"/><path d="M2100 282.5l12-56.5 12 56.5-12 56.5" opacity=".286"/><path d="M2112 226l12-56.5 12 56.5-12 56.5" opacity=".275"/><path d="M2124 169.5l12-56.5 12 56.5-12 56.5" opacity=".221"/><path d="M2136 113l12-56.5 12 56.5-12 56.5" opacity=".201"/><path d="M2148 56.5L2160 0l12 56.5-12 56.5" opacity="-.022"/><path d="M2112 339l12-56.5 12 56.5-12 56.5" opacity=".418"/><path d="M2124 282.5l12-56.5 12 56.5-12 56.5" opacity=".266"/><path d="M2136 226l12-56.5 12 56.5-12 56.5" opacity=".18"/><path d="M2148 169.5l12-56.5 12 56.5-12 56.5" opacity=".13"/><path d="M2160 113l12-56.5 12 56.5-12 56.5" opacity=".149"/><path d="M2172 56.5L2184 0l12 56.5-12 56.5" opacity=".147"/><path d="M2136 339l12-56.5 12 56.5-12 56.5" opacity=".182"/><path d="M2148 282.5l12-56.5 12 56.5-12 56.5" opacity=".214"/><path d="M2160 226l12-56.5 12 56.5-12 56.5" opacity=".184"/><path d="M2172 169.5l12-56.5 12 56.5-12 56.5" opacity=".106"/><path d="M2184 113l12-56.5 12 56.5-12 56.5" opacity=".001"/><path d="M2196 56.5L2208 0l12 56.5-12 56.5" opacity="-.002"/><path d="M2160 339l12-56.5 12 56.5-12 56.5" opacity=".552"/><path d="M2172 282.5l12-56.5 12 56.5-12 56.5" opacity=".397"/><path d="M2184 226l12-56.5 12 56.5-12 56.5" opacity=".331"/><path d="M2196 169.5l12-56.5 12 56.5-12 56.5" opacity=".337"/><path d="M2208 113l12-56.5 12 56.5-12 56.5" opacity=".157"/><path d="M2220 56.5L2232 0l12 56.5-12 56.5" opacity=".104"/><path d="M2184 339l12-56.5 12 56.5-12 56.5" opacity=".528"/><path d="M2196 282.5l12-56.5 12 56.5-12 56.5" opacity=".319"/><path d="M2208 226l12-56.5 12 56.5-12 56.5" opacity=".279"/><path d="M2220 169.5l12-56.5 12 56.5-12 56.5" opacity=".175"/><path d="M2232 113l12-56.5 12 56.5-12 56.5" opacity=".085"/><path d="M2244 56.5L2256 0l12 56.5-12 56.5" opacity=".011"/><path d="M2208 339l12-56.5 12 56.5-12 56.5" opacity=".35"/><path d="M2220 282.5l12-56.5 12 56.5-12 56.5" opacity=".309"/><path d="M2232 226l12-56.5 12 56.5-12 56.5" opacity=".373"/><path d="M2244 169.5l12-56.5 12 56.5-12 56.5" opacity=".226"/><path d="M2256 113l12-56.5 12 56.5-12 56.5" opacity=".216"/><path d="M2268 56.5L2280 0l12 56.5-12 56.5" opacity=".001"/><path d="M2232 339l12-56.5 12 56.5-12 56.5" opacity=".224"/><path d="M2244 282.5l12-56.5 12 56.5-12 56.5" opacity=".213"/><path d="M2256 226l12-56.5 12 56.5-12 56.5" opacity=".209"/><path d="M2268 169.5l12-56.5 12 56.5-12 56.5" opacity=".085"/><path d="M2280 113l12-56.5 12 56.5-12 56.5" opacity=".122"/><path d="M2292 56.5L2304 0l12 56.5-12 56.5" opacity=".119"/><path d="M2256 339l12-56.5 12 56.5-12 56.5" opacity=".239"/><path d="M2268 282.5l12-56.5 12 56.5-12 56.5" opacity=".235"/><path d="M2280 226l12-56.5 12 56.5-12 56.5" opacity=".207"/><path d="M2292 169.5l12-56.5 12 56.5-12 56.5" opacity=".098"/><path d="M2304 113l12-56.5 12 56.5-12 56.5" opacity=".055"/><path d="M2316 56.5L2328 0l12 56.5-12 56.5" opacity=".142"/><path d="M2280 339l12-56.5 12 56.5-12 56.5" opacity=".273"/><path d="M2292 282.5l12-56.5 12 56.5-12 56.5" opacity=".241"/><path d="M2304 226l12-56.5 12 56.5-12 56.5" opacity=".132"/><path d="M2316 169.5l12-56.5 12 56.5-12 56.5" opacity=".073"/><path d="M2304 339l12-56.5 12 56.5-12 56.5" opacity=".29"/><path d="M2316 282.5l12-56.5 12 56.5-12 56.5" opacity=".14"/></g></svg>
